<mxfile host="app.diagrams.net" modified="2022-09-28T01:05:51.759Z" agent="5.0 (Windows NT 10.0; Win64; x64) AppleWebKit/537.36 (KHTML, like Gecko) Chrome/105.0.0.0 Safari/537.36" etag="5aT_UquauInj179G8m59" version="18.0.2" type="github" pages="4">
  <diagram id="6a731a19-8d31-9384-78a2-239565b7b9f0" name="财人汇物理图">
    <mxGraphModel dx="4890" dy="2269" grid="1" gridSize="10" guides="1" tooltips="1" connect="1" arrows="1" fold="1" page="1" pageScale="1" pageWidth="827" pageHeight="1169" background="none" math="1" shadow="0">
      <root>
        <mxCell id="0" />
        <mxCell id="1" parent="0" />
        <mxCell id="mS-wyy-bUG0AQd56grwA-2262" value="同步" style="orthogonalLoop=1;jettySize=auto;verticalAlign=middle;spacingBottom=-25;fillColor=#fad7ac;fontColor=default;labelBackgroundColor=default;fontFamily=Tahoma;fontSize=22;startArrow=none;startFill=0;strokeWidth=3;endArrow=none;endFill=0;strokeColor=#b46504;" parent="1" source="mS-wyy-bUG0AQd56grwA-2258" target="mS-wyy-bUG0AQd56grwA-2261" edge="1">
          <mxGeometry relative="1" as="geometry" />
        </mxCell>
        <mxCell id="mS-wyy-bUG0AQd56grwA-2258" value="oracle&#xa;10.169.15.100" style="shape=datastore;verticalAlign=middle;spacingBottom=0;fillColor=none;labelBackgroundColor=default;fontFamily=Tahoma;spacing=2;fontSize=22;labelPosition=center;verticalLabelPosition=bottom;align=center;" parent="1" vertex="1">
          <mxGeometry x="-520" y="2490" width="75" height="130" as="geometry" />
        </mxCell>
        <mxCell id="mS-wyy-bUG0AQd56grwA-2261" value="oracle&#xa;10.169.15.101" style="shape=datastore;fillColor=none;spacingBottom=0;verticalAlign=middle;labelBackgroundColor=default;fontFamily=Tahoma;fontSize=22;labelPosition=center;verticalLabelPosition=bottom;align=center;" parent="1" vertex="1">
          <mxGeometry x="386.5" y="2495" width="75" height="120" as="geometry" />
        </mxCell>
        <mxCell id="mS-wyy-bUG0AQd56grwA-2276" style="orthogonalLoop=1;jettySize=auto;fillColor=#fad7ac;fontColor=default;labelBackgroundColor=default;fontFamily=Tahoma;fontSize=22;verticalAlign=middle;startArrow=none;startFill=0;strokeWidth=3;endArrow=none;endFill=0;strokeColor=#b46504;" parent="1" source="mS-wyy-bUG0AQd56grwA-2270" target="mS-wyy-bUG0AQd56grwA-2275" edge="1">
          <mxGeometry relative="1" as="geometry" />
        </mxCell>
        <mxCell id="mS-wyy-bUG0AQd56grwA-2270" value="USERS" style="verticalAlign=middle;verticalLabelPosition=bottom;labelPosition=center;align=center;outlineConnect=0;fillColor=none;gradientDirection=north;strokeWidth=2;shape=mxgraph.networks.users;labelBackgroundColor=default;fontFamily=Tahoma;fontSize=22;" parent="1" vertex="1">
          <mxGeometry x="-52" y="50" width="90" height="100" as="geometry" />
        </mxCell>
        <mxCell id="mS-wyy-bUG0AQd56grwA-2279" style="orthogonalLoop=1;jettySize=auto;fillColor=#fad7ac;fontColor=default;labelBackgroundColor=default;fontFamily=Tahoma;fontSize=22;verticalAlign=middle;startArrow=none;startFill=0;strokeWidth=3;endArrow=none;endFill=0;curved=1;strokeColor=#b46504;" parent="1" source="mS-wyy-bUG0AQd56grwA-2275" target="mS-wyy-bUG0AQd56grwA-2278" edge="1">
          <mxGeometry relative="1" as="geometry" />
        </mxCell>
        <mxCell id="mS-wyy-bUG0AQd56grwA-2280" style="edgeStyle=none;orthogonalLoop=1;jettySize=auto;fillColor=#fad7ac;fontColor=default;labelBackgroundColor=default;fontFamily=Tahoma;fontSize=22;verticalAlign=middle;startArrow=none;startFill=0;strokeWidth=3;endArrow=none;endFill=0;curved=1;strokeColor=#b46504;" parent="1" source="mS-wyy-bUG0AQd56grwA-2275" target="mS-wyy-bUG0AQd56grwA-2277" edge="1">
          <mxGeometry relative="1" as="geometry" />
        </mxCell>
        <mxCell id="mS-wyy-bUG0AQd56grwA-2275" value="F5" style="verticalAlign=middle;verticalLabelPosition=bottom;labelPosition=center;align=center;outlineConnect=0;fillColor=none;gradientDirection=north;strokeWidth=2;shape=mxgraph.networks.hub;labelBackgroundColor=default;fontFamily=Tahoma;fontSize=22;" parent="1" vertex="1">
          <mxGeometry x="-140" y="440" width="266" height="80" as="geometry" />
        </mxCell>
        <mxCell id="mS-wyy-bUG0AQd56grwA-2296" style="edgeStyle=none;orthogonalLoop=1;jettySize=auto;fillColor=#fad7ac;fontColor=default;labelBackgroundColor=default;fontFamily=Tahoma;fontSize=22;verticalAlign=middle;startArrow=none;startFill=0;strokeWidth=3;endArrow=none;endFill=0;curved=1;strokeColor=#b46504;" parent="1" source="mS-wyy-bUG0AQd56grwA-2277" target="mS-wyy-bUG0AQd56grwA-2288" edge="1">
          <mxGeometry relative="1" as="geometry" />
        </mxCell>
        <mxCell id="mS-wyy-bUG0AQd56grwA-2297" style="edgeStyle=none;orthogonalLoop=1;jettySize=auto;fillColor=#fad7ac;fontColor=default;labelBackgroundColor=default;fontFamily=Tahoma;fontSize=22;verticalAlign=middle;startArrow=none;startFill=0;strokeWidth=3;endArrow=none;endFill=0;curved=1;strokeColor=#b46504;" parent="1" source="mS-wyy-bUG0AQd56grwA-2277" target="mS-wyy-bUG0AQd56grwA-2289" edge="1">
          <mxGeometry relative="1" as="geometry" />
        </mxCell>
        <mxCell id="mS-wyy-bUG0AQd56grwA-2298" style="edgeStyle=none;orthogonalLoop=1;jettySize=auto;fillColor=#fad7ac;fontColor=default;labelBackgroundColor=default;fontFamily=Tahoma;fontSize=22;verticalAlign=middle;startArrow=none;startFill=0;strokeWidth=3;endArrow=none;endFill=0;curved=1;strokeColor=#b46504;" parent="1" source="mS-wyy-bUG0AQd56grwA-2277" target="mS-wyy-bUG0AQd56grwA-2290" edge="1">
          <mxGeometry relative="1" as="geometry" />
        </mxCell>
        <mxCell id="mS-wyy-bUG0AQd56grwA-2299" style="edgeStyle=none;orthogonalLoop=1;jettySize=auto;fillColor=#fad7ac;fontColor=default;labelBackgroundColor=default;fontFamily=Tahoma;fontSize=22;verticalAlign=middle;startArrow=none;startFill=0;strokeWidth=3;endArrow=none;endFill=0;curved=1;strokeColor=#b46504;" parent="1" source="mS-wyy-bUG0AQd56grwA-2277" target="mS-wyy-bUG0AQd56grwA-2291" edge="1">
          <mxGeometry relative="1" as="geometry" />
        </mxCell>
        <mxCell id="mS-wyy-bUG0AQd56grwA-2302" style="edgeStyle=none;orthogonalLoop=1;jettySize=auto;fillColor=#fad7ac;fontColor=default;labelBackgroundColor=default;fontFamily=Tahoma;fontSize=22;verticalAlign=middle;startArrow=none;startFill=0;strokeWidth=3;endArrow=none;endFill=0;curved=1;strokeColor=#b46504;" parent="1" source="mS-wyy-bUG0AQd56grwA-2277" target="mS-wyy-bUG0AQd56grwA-2300" edge="1">
          <mxGeometry relative="1" as="geometry" />
        </mxCell>
        <mxCell id="mS-wyy-bUG0AQd56grwA-2277" value="Nginx&#xa;10.169.17.2" style="verticalAlign=middle;verticalLabelPosition=bottom;labelPosition=center;align=center;outlineConnect=0;fillColor=none;gradientDirection=north;strokeWidth=2;shape=mxgraph.networks.proxy_server;labelBackgroundColor=default;fontFamily=Tahoma;fontSize=22;" parent="1" vertex="1">
          <mxGeometry x="310" y="860" width="110" height="110" as="geometry" />
        </mxCell>
        <mxCell id="mS-wyy-bUG0AQd56grwA-2292" style="edgeStyle=none;orthogonalLoop=1;jettySize=auto;fillColor=#fad7ac;fontColor=default;labelBackgroundColor=default;fontFamily=Tahoma;fontSize=22;verticalAlign=middle;startArrow=none;startFill=0;strokeWidth=3;endArrow=none;endFill=0;curved=1;strokeColor=#b46504;" parent="1" source="mS-wyy-bUG0AQd56grwA-2278" target="mS-wyy-bUG0AQd56grwA-2288" edge="1">
          <mxGeometry relative="1" as="geometry" />
        </mxCell>
        <mxCell id="mS-wyy-bUG0AQd56grwA-2293" style="edgeStyle=none;orthogonalLoop=1;jettySize=auto;fillColor=#fad7ac;fontColor=default;labelBackgroundColor=default;fontFamily=Tahoma;fontSize=22;verticalAlign=middle;startArrow=none;startFill=0;strokeWidth=3;endArrow=none;endFill=0;curved=1;strokeColor=#b46504;" parent="1" source="mS-wyy-bUG0AQd56grwA-2278" target="mS-wyy-bUG0AQd56grwA-2289" edge="1">
          <mxGeometry relative="1" as="geometry" />
        </mxCell>
        <mxCell id="mS-wyy-bUG0AQd56grwA-2294" style="edgeStyle=none;orthogonalLoop=1;jettySize=auto;fillColor=#fad7ac;fontColor=default;labelBackgroundColor=default;fontFamily=Tahoma;fontSize=22;verticalAlign=middle;startArrow=none;startFill=0;strokeWidth=3;endArrow=none;endFill=0;curved=1;strokeColor=#b46504;" parent="1" source="mS-wyy-bUG0AQd56grwA-2278" target="mS-wyy-bUG0AQd56grwA-2290" edge="1">
          <mxGeometry relative="1" as="geometry" />
        </mxCell>
        <mxCell id="mS-wyy-bUG0AQd56grwA-2295" style="edgeStyle=none;orthogonalLoop=1;jettySize=auto;fillColor=#fad7ac;fontColor=default;labelBackgroundColor=default;fontFamily=Tahoma;fontSize=22;verticalAlign=middle;startArrow=none;startFill=0;strokeWidth=3;endArrow=none;endFill=0;curved=1;strokeColor=#b46504;" parent="1" source="mS-wyy-bUG0AQd56grwA-2278" target="mS-wyy-bUG0AQd56grwA-2291" edge="1">
          <mxGeometry relative="1" as="geometry" />
        </mxCell>
        <mxCell id="mS-wyy-bUG0AQd56grwA-2301" style="edgeStyle=none;orthogonalLoop=1;jettySize=auto;fillColor=#fad7ac;fontColor=default;labelBackgroundColor=default;fontFamily=Tahoma;fontSize=22;verticalAlign=middle;startArrow=none;startFill=0;strokeWidth=3;endArrow=none;endFill=0;curved=1;strokeColor=#b46504;" parent="1" source="mS-wyy-bUG0AQd56grwA-2278" target="mS-wyy-bUG0AQd56grwA-2300" edge="1">
          <mxGeometry relative="1" as="geometry" />
        </mxCell>
        <mxCell id="mS-wyy-bUG0AQd56grwA-2392" style="edgeStyle=none;orthogonalLoop=1;jettySize=auto;labelBackgroundColor=default;fontFamily=Tahoma;fontColor=default;endArrow=none;endFill=0;fontSize=22;verticalAlign=middle;startArrow=none;startFill=0;strokeWidth=3;curved=1;fillColor=#fad7ac;strokeColor=#b46504;" parent="1" source="mS-wyy-bUG0AQd56grwA-2278" target="mS-wyy-bUG0AQd56grwA-2277" edge="1">
          <mxGeometry relative="1" as="geometry" />
        </mxCell>
        <mxCell id="mS-wyy-bUG0AQd56grwA-2278" value="Nginx&#xa;10.169.17.1" style="verticalAlign=middle;verticalLabelPosition=bottom;labelPosition=center;align=center;outlineConnect=0;fillColor=none;gradientDirection=north;strokeWidth=2;shape=mxgraph.networks.proxy_server;labelBackgroundColor=default;fontFamily=Tahoma;fontSize=22;" parent="1" vertex="1">
          <mxGeometry x="-390" y="870" width="110" height="110" as="geometry" />
        </mxCell>
        <mxCell id="mS-wyy-bUG0AQd56grwA-2370" style="edgeStyle=none;orthogonalLoop=1;jettySize=auto;labelBackgroundColor=default;fontFamily=Tahoma;fontColor=default;fillColor=#fad7ac;fontSize=22;verticalAlign=middle;startArrow=none;startFill=0;strokeWidth=3;endArrow=none;endFill=0;curved=1;strokeColor=#b46504;" parent="1" source="mS-wyy-bUG0AQd56grwA-2288" target="mS-wyy-bUG0AQd56grwA-2258" edge="1">
          <mxGeometry relative="1" as="geometry">
            <mxPoint x="1190" y="1470" as="targetPoint" />
          </mxGeometry>
        </mxCell>
        <mxCell id="mS-wyy-bUG0AQd56grwA-2377" style="edgeStyle=none;orthogonalLoop=1;jettySize=auto;labelBackgroundColor=default;fontFamily=Tahoma;fontColor=default;fillColor=#fad7ac;fontSize=22;verticalAlign=middle;startArrow=none;startFill=0;strokeWidth=3;endArrow=none;endFill=0;curved=1;strokeColor=#b46504;" parent="1" source="mS-wyy-bUG0AQd56grwA-2288" target="mS-wyy-bUG0AQd56grwA-2261" edge="1">
          <mxGeometry relative="1" as="geometry" />
        </mxCell>
        <mxCell id="mS-wyy-bUG0AQd56grwA-2288" value="TOMCAT&#xa;10.169.15.3" style="verticalAlign=middle;verticalLabelPosition=bottom;labelPosition=center;align=center;outlineConnect=0;fillColor=none;gradientDirection=north;strokeWidth=2;shape=mxgraph.networks.server;labelBackgroundColor=default;fontFamily=Tahoma;fontSize=22;" parent="1" vertex="1">
          <mxGeometry x="-700" y="1720" width="90" height="100" as="geometry" />
        </mxCell>
        <mxCell id="mS-wyy-bUG0AQd56grwA-2371" style="edgeStyle=none;orthogonalLoop=1;jettySize=auto;labelBackgroundColor=default;fontFamily=Tahoma;fontColor=default;fillColor=#fad7ac;fontSize=22;verticalAlign=middle;startArrow=none;startFill=0;strokeWidth=3;endArrow=none;endFill=0;curved=1;strokeColor=#b46504;entryX=0.787;entryY=0.01;entryDx=0;entryDy=0;entryPerimeter=0;" parent="1" source="mS-wyy-bUG0AQd56grwA-2289" target="mS-wyy-bUG0AQd56grwA-2258" edge="1">
          <mxGeometry relative="1" as="geometry">
            <mxPoint x="-390" y="2010" as="targetPoint" />
          </mxGeometry>
        </mxCell>
        <mxCell id="mS-wyy-bUG0AQd56grwA-2376" style="edgeStyle=none;orthogonalLoop=1;jettySize=auto;labelBackgroundColor=default;fontFamily=Tahoma;fontColor=default;fillColor=#fad7ac;fontSize=22;verticalAlign=middle;startArrow=none;startFill=0;strokeWidth=3;endArrow=none;endFill=0;curved=1;strokeColor=#b46504;" parent="1" source="mS-wyy-bUG0AQd56grwA-2289" target="mS-wyy-bUG0AQd56grwA-2261" edge="1">
          <mxGeometry relative="1" as="geometry" />
        </mxCell>
        <mxCell id="mS-wyy-bUG0AQd56grwA-2289" value="TOMCAT&#xa;10.169.15.4" style="verticalAlign=middle;verticalLabelPosition=bottom;labelPosition=center;align=center;outlineConnect=0;fillColor=none;gradientDirection=north;strokeWidth=2;shape=mxgraph.networks.server;labelBackgroundColor=default;fontFamily=Tahoma;fontSize=22;" parent="1" vertex="1">
          <mxGeometry x="-70" y="1720" width="90" height="100" as="geometry" />
        </mxCell>
        <mxCell id="mS-wyy-bUG0AQd56grwA-2372" style="edgeStyle=none;orthogonalLoop=1;jettySize=auto;labelBackgroundColor=default;fontFamily=Tahoma;fontColor=default;fillColor=#fad7ac;fontSize=22;verticalAlign=middle;startArrow=none;startFill=0;strokeWidth=3;endArrow=none;endFill=0;curved=1;strokeColor=#b46504;" parent="1" source="mS-wyy-bUG0AQd56grwA-2290" target="mS-wyy-bUG0AQd56grwA-2258" edge="1">
          <mxGeometry relative="1" as="geometry">
            <mxPoint x="1190" y="1430" as="targetPoint" />
          </mxGeometry>
        </mxCell>
        <mxCell id="mS-wyy-bUG0AQd56grwA-2375" style="edgeStyle=none;orthogonalLoop=1;jettySize=auto;labelBackgroundColor=default;fontFamily=Tahoma;fontColor=default;fillColor=#fad7ac;fontSize=22;verticalAlign=middle;startArrow=none;startFill=0;strokeWidth=3;endArrow=none;endFill=0;curved=1;strokeColor=#b46504;" parent="1" source="mS-wyy-bUG0AQd56grwA-2290" target="mS-wyy-bUG0AQd56grwA-2313" edge="1">
          <mxGeometry relative="1" as="geometry" />
        </mxCell>
        <mxCell id="mS-wyy-bUG0AQd56grwA-2380" style="edgeStyle=none;orthogonalLoop=1;jettySize=auto;labelBackgroundColor=default;fontFamily=Tahoma;fontColor=default;fillColor=#fad7ac;fontSize=22;verticalAlign=middle;startArrow=none;startFill=0;strokeWidth=3;endArrow=none;endFill=0;curved=1;strokeColor=#b46504;" parent="1" source="mS-wyy-bUG0AQd56grwA-2290" target="mS-wyy-bUG0AQd56grwA-2261" edge="1">
          <mxGeometry relative="1" as="geometry" />
        </mxCell>
        <mxCell id="mS-wyy-bUG0AQd56grwA-2290" value="PRD&#xa;10.169.15.5" style="verticalAlign=middle;verticalLabelPosition=bottom;labelPosition=center;align=center;outlineConnect=0;fillColor=none;gradientDirection=north;strokeWidth=2;shape=mxgraph.networks.server;labelBackgroundColor=default;fontFamily=Tahoma;fontSize=22;" parent="1" vertex="1">
          <mxGeometry x="810" y="1720" width="90" height="100" as="geometry" />
        </mxCell>
        <mxCell id="mS-wyy-bUG0AQd56grwA-2373" style="edgeStyle=none;orthogonalLoop=1;jettySize=auto;labelBackgroundColor=default;fontFamily=Tahoma;fontColor=default;fillColor=#fad7ac;fontSize=22;verticalAlign=middle;startArrow=none;startFill=0;strokeWidth=3;endArrow=none;endFill=0;curved=1;strokeColor=#b46504;" parent="1" source="mS-wyy-bUG0AQd56grwA-2291" target="mS-wyy-bUG0AQd56grwA-2258" edge="1">
          <mxGeometry relative="1" as="geometry" />
        </mxCell>
        <mxCell id="mS-wyy-bUG0AQd56grwA-2374" style="edgeStyle=none;orthogonalLoop=1;jettySize=auto;labelBackgroundColor=default;fontFamily=Tahoma;fontColor=default;fillColor=#fad7ac;fontSize=22;verticalAlign=middle;startArrow=none;startFill=0;strokeWidth=3;endArrow=none;endFill=0;curved=1;strokeColor=#b46504;" parent="1" source="mS-wyy-bUG0AQd56grwA-2291" target="mS-wyy-bUG0AQd56grwA-2313" edge="1">
          <mxGeometry relative="1" as="geometry" />
        </mxCell>
        <mxCell id="mS-wyy-bUG0AQd56grwA-2379" style="edgeStyle=none;orthogonalLoop=1;jettySize=auto;labelBackgroundColor=default;fontFamily=Tahoma;fontColor=default;fillColor=#fad7ac;fontSize=22;verticalAlign=middle;startArrow=none;startFill=0;strokeWidth=3;endArrow=none;endFill=0;curved=1;strokeColor=#b46504;" parent="1" source="mS-wyy-bUG0AQd56grwA-2291" target="mS-wyy-bUG0AQd56grwA-2261" edge="1">
          <mxGeometry relative="1" as="geometry" />
        </mxCell>
        <mxCell id="mS-wyy-bUG0AQd56grwA-2291" value="PRD&#xa;10.169.15.6" style="verticalAlign=middle;verticalLabelPosition=bottom;labelPosition=center;align=center;outlineConnect=0;fillColor=none;gradientDirection=north;strokeWidth=2;shape=mxgraph.networks.server;labelBackgroundColor=default;fontFamily=Tahoma;fontSize=22;" parent="1" vertex="1">
          <mxGeometry x="1420" y="1704" width="90" height="100" as="geometry" />
        </mxCell>
        <mxCell id="mS-wyy-bUG0AQd56grwA-2369" style="edgeStyle=none;orthogonalLoop=1;jettySize=auto;labelBackgroundColor=default;fontFamily=Tahoma;fontColor=default;fillColor=#fad7ac;fontSize=22;verticalAlign=middle;startArrow=none;startFill=0;strokeWidth=3;endArrow=none;endFill=0;curved=1;strokeColor=#b46504;" parent="1" source="mS-wyy-bUG0AQd56grwA-2300" target="mS-wyy-bUG0AQd56grwA-2258" edge="1">
          <mxGeometry relative="1" as="geometry" />
        </mxCell>
        <mxCell id="mS-wyy-bUG0AQd56grwA-2378" style="edgeStyle=none;orthogonalLoop=1;jettySize=auto;labelBackgroundColor=default;fontFamily=Tahoma;fontColor=default;fillColor=#fad7ac;fontSize=22;verticalAlign=middle;startArrow=none;startFill=0;strokeWidth=3;endArrow=none;endFill=0;curved=1;strokeColor=#b46504;" parent="1" source="mS-wyy-bUG0AQd56grwA-2300" target="mS-wyy-bUG0AQd56grwA-2261" edge="1">
          <mxGeometry relative="1" as="geometry" />
        </mxCell>
        <mxCell id="mS-wyy-bUG0AQd56grwA-2300" value="AnyChat&#xa;10.169.42.71" style="verticalAlign=middle;verticalLabelPosition=bottom;labelPosition=center;align=center;outlineConnect=0;fillColor=none;gradientDirection=north;strokeWidth=2;shape=mxgraph.networks.server;labelBackgroundColor=default;fontFamily=Tahoma;fontSize=22;" parent="1" vertex="1">
          <mxGeometry x="450" y="1720" width="90" height="100" as="geometry" />
        </mxCell>
        <mxCell id="mS-wyy-bUG0AQd56grwA-2313" value="mysql&#xa;10.169.15.102" style="verticalAlign=middle;verticalLabelPosition=bottom;labelPosition=center;align=center;outlineConnect=0;fillColor=none;gradientDirection=north;strokeWidth=2;shape=mxgraph.networks.server_storage;labelBackgroundColor=default;fontFamily=Tahoma;fontSize=22;" parent="1" vertex="1">
          <mxGeometry x="1180" y="2480" width="110" height="110" as="geometry" />
        </mxCell>
        <mxCell id="mS-wyy-bUG0AQd56grwA-2382" style="edgeStyle=none;orthogonalLoop=1;jettySize=auto;labelBackgroundColor=default;fontFamily=Tahoma;fontColor=default;fillColor=#fad9d5;fontSize=22;verticalAlign=middle;endArrow=none;endFill=0;startArrow=none;startFill=0;strokeWidth=3;curved=1;strokeColor=#ae4132;" parent="1" source="mS-wyy-bUG0AQd56grwA-2316" target="mS-wyy-bUG0AQd56grwA-2300" edge="1">
          <mxGeometry relative="1" as="geometry" />
        </mxCell>
        <mxCell id="mS-wyy-bUG0AQd56grwA-2383" style="edgeStyle=none;orthogonalLoop=1;jettySize=auto;labelBackgroundColor=default;fontFamily=Tahoma;fontColor=default;fillColor=#fad9d5;fontSize=22;verticalAlign=middle;endArrow=none;endFill=0;startArrow=none;startFill=0;strokeWidth=3;curved=1;strokeColor=#ae4132;" parent="1" source="mS-wyy-bUG0AQd56grwA-2316" target="mS-wyy-bUG0AQd56grwA-2288" edge="1">
          <mxGeometry relative="1" as="geometry" />
        </mxCell>
        <mxCell id="mS-wyy-bUG0AQd56grwA-2384" style="edgeStyle=none;orthogonalLoop=1;jettySize=auto;labelBackgroundColor=default;fontFamily=Tahoma;fontColor=default;fillColor=#fad9d5;fontSize=22;verticalAlign=middle;endArrow=none;endFill=0;startArrow=none;startFill=0;strokeWidth=3;curved=1;strokeColor=#ae4132;" parent="1" source="mS-wyy-bUG0AQd56grwA-2316" target="mS-wyy-bUG0AQd56grwA-2289" edge="1">
          <mxGeometry relative="1" as="geometry" />
        </mxCell>
        <mxCell id="mS-wyy-bUG0AQd56grwA-2385" style="edgeStyle=none;orthogonalLoop=1;jettySize=auto;labelBackgroundColor=default;fontFamily=Tahoma;fontColor=default;fillColor=#fad9d5;fontSize=22;verticalAlign=middle;endArrow=none;endFill=0;startArrow=none;startFill=0;strokeWidth=3;curved=1;strokeColor=#ae4132;" parent="1" source="mS-wyy-bUG0AQd56grwA-2316" target="mS-wyy-bUG0AQd56grwA-2290" edge="1">
          <mxGeometry relative="1" as="geometry" />
        </mxCell>
        <mxCell id="mS-wyy-bUG0AQd56grwA-2386" style="edgeStyle=none;orthogonalLoop=1;jettySize=auto;labelBackgroundColor=default;fontFamily=Tahoma;fontColor=default;fillColor=#fad9d5;fontSize=22;verticalAlign=middle;endArrow=none;endFill=0;startArrow=none;startFill=0;strokeWidth=3;curved=1;strokeColor=#ae4132;" parent="1" source="mS-wyy-bUG0AQd56grwA-2316" target="mS-wyy-bUG0AQd56grwA-2291" edge="1">
          <mxGeometry relative="1" as="geometry" />
        </mxCell>
        <mxCell id="mS-wyy-bUG0AQd56grwA-2388" style="edgeStyle=none;orthogonalLoop=1;jettySize=auto;labelBackgroundColor=default;fontFamily=Tahoma;fontColor=default;fontSize=22;verticalAlign=middle;endArrow=none;endFill=0;startArrow=none;startFill=0;strokeWidth=3;curved=1;fillColor=#fad9d5;strokeColor=#ae4132;" parent="1" source="mS-wyy-bUG0AQd56grwA-2316" target="mS-wyy-bUG0AQd56grwA-2278" edge="1">
          <mxGeometry relative="1" as="geometry" />
        </mxCell>
        <mxCell id="mS-wyy-bUG0AQd56grwA-2389" style="edgeStyle=none;orthogonalLoop=1;jettySize=auto;labelBackgroundColor=default;fontFamily=Tahoma;fontColor=default;fontSize=22;verticalAlign=middle;endArrow=none;endFill=0;startArrow=none;startFill=0;strokeWidth=3;curved=1;fillColor=#fad9d5;strokeColor=#ae4132;" parent="1" source="mS-wyy-bUG0AQd56grwA-2316" target="mS-wyy-bUG0AQd56grwA-2277" edge="1">
          <mxGeometry relative="1" as="geometry" />
        </mxCell>
        <mxCell id="mS-wyy-bUG0AQd56grwA-2396" style="edgeStyle=none;orthogonalLoop=1;jettySize=auto;entryX=0.85;entryY=0.95;entryDx=0;entryDy=0;entryPerimeter=0;startArrow=none;startFill=0;endArrow=none;endFill=0;strokeWidth=3;fillColor=#fad9d5;strokeColor=#ae4132;" parent="1" source="mS-wyy-bUG0AQd56grwA-2316" target="mS-wyy-bUG0AQd56grwA-2258" edge="1">
          <mxGeometry relative="1" as="geometry" />
        </mxCell>
        <mxCell id="mS-wyy-bUG0AQd56grwA-2398" style="edgeStyle=none;orthogonalLoop=1;jettySize=auto;startArrow=none;startFill=0;endArrow=none;endFill=0;strokeWidth=3;fillColor=#fad9d5;strokeColor=#ae4132;" parent="1" source="mS-wyy-bUG0AQd56grwA-2316" target="mS-wyy-bUG0AQd56grwA-2261" edge="1">
          <mxGeometry relative="1" as="geometry" />
        </mxCell>
        <mxCell id="mS-wyy-bUG0AQd56grwA-2399" style="edgeStyle=none;orthogonalLoop=1;jettySize=auto;startArrow=none;startFill=0;endArrow=none;endFill=0;strokeWidth=3;fillColor=#fad9d5;strokeColor=#ae4132;" parent="1" source="mS-wyy-bUG0AQd56grwA-2316" target="mS-wyy-bUG0AQd56grwA-2313" edge="1">
          <mxGeometry relative="1" as="geometry" />
        </mxCell>
        <mxCell id="mS-wyy-bUG0AQd56grwA-2316" value="中登查询服务器&#xa;10.169.15.7" style="verticalAlign=middle;verticalLabelPosition=bottom;labelPosition=center;align=center;outlineConnect=0;fillColor=#fad9d5;gradientDirection=north;strokeWidth=2;shape=mxgraph.networks.virtual_pc;labelBackgroundColor=default;fontFamily=Tahoma;fontSize=22;strokeColor=#ae4132;" parent="1" vertex="1">
          <mxGeometry x="1060" y="620" width="120" height="90" as="geometry" />
        </mxCell>
        <mxCell id="mS-wyy-bUG0AQd56grwA-2402" value="ad" style="fontColor=#FFFFFF;verticalAlign=middle;verticalLabelPosition=bottom;labelPosition=center;align=center;outlineConnect=0;fillColor=none;strokeColor=#FFFFFF;gradientColor=none;gradientDirection=north;strokeWidth=2;shape=mxgraph.networks.user_male;fontSize=22;" parent="1" vertex="1">
          <mxGeometry x="1100" y="330" width="40" height="100" as="geometry" />
        </mxCell>
      </root>
    </mxGraphModel>
  </diagram>
  <diagram id="5mDLQG2qul_xc48alwTu" name="财人汇-物理架构图">
    <mxGraphModel dx="1422" dy="794" grid="1" gridSize="10" guides="1" tooltips="1" connect="1" arrows="1" fold="1" page="1" pageScale="1" pageWidth="827" pageHeight="1169" math="1" shadow="0">
      <root>
        <mxCell id="0" />
        <mxCell id="1" parent="0" />
        <mxCell id="KctGKJqIe7BDy6V7C65T-1" value="防火墙" style="endArrow=none;dashed=1;dashPattern=1 3;strokeWidth=2;fontSize=22;fontColor=#FFFFFF;verticalAlign=middle;" parent="1" edge="1">
          <mxGeometry width="50" height="50" relative="1" as="geometry">
            <mxPoint x="241.66666666666697" y="330.00000000000045" as="sourcePoint" />
            <mxPoint x="241.66666666666697" y="742.0000000000005" as="targetPoint" />
          </mxGeometry>
        </mxCell>
        <mxCell id="KctGKJqIe7BDy6V7C65T-5" value="柜员&#xa;PC" style="fontColor=#0066CC;verticalAlign=top;verticalLabelPosition=bottom;labelPosition=center;align=center;outlineConnect=0;fillColor=none;strokeColor=#6881B3;gradientColor=none;gradientDirection=north;strokeWidth=2;shape=mxgraph.networks.pc;fontSize=22;" parent="1" vertex="1">
          <mxGeometry x="660" y="340" width="100" height="70" as="geometry" />
        </mxCell>
        <mxCell id="KctGKJqIe7BDy6V7C65T-7" value="互联网用户&#xa;APP" style="verticalAlign=top;verticalLabelPosition=bottom;labelPosition=center;align=center;outlineConnect=0;gradientDirection=north;strokeWidth=2;shape=mxgraph.networks.mobile;fontSize=22;fillColor=none;strokeColor=default;container=0;flipH=0;flipV=0;movableLabel=0;backgroundOutline=0;metaEdit=0;rotation=0;" parent="1" vertex="1">
          <mxGeometry x="120" y="470" width="50" height="100" as="geometry" />
        </mxCell>
        <mxCell id="KctGKJqIe7BDy6V7C65T-8" value="F5" style="strokeColor=#666666;labelPosition=right;align=left;spacingLeft=-99;shadow=0;dashed=0;outlineConnect=0;shape=mxgraph.rack.f5.arx_5000;fontSize=22;fontColor=#FFFFFF;fillColor=none;verticalAlign=middle;spacingBottom=-50;" parent="1" vertex="1">
          <mxGeometry x="310" y="540" width="168" height="20" as="geometry" />
        </mxCell>
        <mxCell id="KctGKJqIe7BDy6V7C65T-12" value="反向代理&#xa;Nginx" style="shape=mxgraph.rack.hp.hp_proliant_bl685c_server_blade;labelPosition=right;align=center;spacingLeft=-60;dashed=0;shadow=0;fillColor=#ffffff;fontSize=22;fontColor=#FFFFFF;strokeColor=#FFFFFF;points=[[0.5,0.48,0,0,0]];spacingBottom=-180;" parent="1" vertex="1">
          <mxGeometry x="620" y="540" width="37" height="121" as="geometry" />
        </mxCell>
        <mxCell id="KctGKJqIe7BDy6V7C65T-14" value="反向代理&#xa;Nginx" style="shape=mxgraph.rack.hp.hp_proliant_bl685c_server_blade;labelPosition=right;align=center;spacingLeft=-60;dashed=0;shadow=0;fillColor=#ffffff;fontSize=22;fontColor=#FFFFFF;strokeColor=#FFFFFF;points=[[0.5,0.48,0,0,0]];spacingBottom=-180;" parent="1" vertex="1">
          <mxGeometry x="760" y="540" width="37" height="121" as="geometry" />
        </mxCell>
        <mxCell id="KctGKJqIe7BDy6V7C65T-15" value="防火墙" style="endArrow=none;dashed=1;dashPattern=1 3;strokeWidth=2;fontSize=22;fontColor=#FFFFFF;verticalAlign=middle;" parent="1" edge="1">
          <mxGeometry width="50" height="50" relative="1" as="geometry">
            <mxPoint x="881.666666666667" y="324" as="sourcePoint" />
            <mxPoint x="881.666666666667" y="736" as="targetPoint" />
          </mxGeometry>
        </mxCell>
        <mxCell id="KctGKJqIe7BDy6V7C65T-17" value="防火墙" style="endArrow=none;dashed=1;dashPattern=1 3;strokeWidth=2;fontSize=22;fontColor=#FFFFFF;verticalAlign=middle;" parent="1" edge="1">
          <mxGeometry width="50" height="50" relative="1" as="geometry">
            <mxPoint x="541.666666666667" y="324" as="sourcePoint" />
            <mxPoint x="541.666666666667" y="736" as="targetPoint" />
          </mxGeometry>
        </mxCell>
        <mxCell id="KctGKJqIe7BDy6V7C65T-22" value="PDR" style="shape=mxgraph.rack.hp.hp_proliant_bl685c_server_blade;labelPosition=center;align=center;spacingLeft=1;dashed=0;shadow=0;fillColor=#ffffff;fontSize=22;fontColor=#FFFFFF;strokeColor=#FFFFFF;points=[[0.5,0.48,0,0,0]];spacingBottom=0;verticalAlign=top;verticalLabelPosition=bottom;" parent="1" vertex="1">
          <mxGeometry x="990" y="720" width="37" height="121" as="geometry" />
        </mxCell>
        <mxCell id="KctGKJqIe7BDy6V7C65T-25" value="防火墙" style="endArrow=none;dashed=1;dashPattern=1 3;strokeWidth=2;fontSize=22;fontColor=#FFFFFF;verticalAlign=middle;" parent="1" edge="1">
          <mxGeometry width="50" height="50" relative="1" as="geometry">
            <mxPoint x="1281.666666666667" y="324" as="sourcePoint" />
            <mxPoint x="1281.666666666667" y="736" as="targetPoint" />
          </mxGeometry>
        </mxCell>
        <mxCell id="KctGKJqIe7BDy6V7C65T-30" value="Oracle" style="sketch=0;points=[];align=center;image;fontSize=22;image=img/lib/mscae/Database_General.svg;fontColor=#FFFFFF;strokeColor=#FFFFFF;fillColor=none;aspect=fixed;horizontal=1;imageBackground=none;" parent="1" vertex="1">
          <mxGeometry x="1381" y="326.5" width="80" height="105.26" as="geometry" />
        </mxCell>
        <mxCell id="KctGKJqIe7BDy6V7C65T-31" value="Oracle" style="sketch=0;points=[];align=center;image;fontSize=22;image=img/lib/mscae/Database_General.svg;fontColor=#FFFFFF;strokeColor=#FFFFFF;fillColor=none;aspect=fixed;horizontal=1;imageBackground=none;" parent="1" vertex="1">
          <mxGeometry x="1381" y="520" width="80" height="105.26" as="geometry" />
        </mxCell>
        <mxCell id="KctGKJqIe7BDy6V7C65T-33" value="MySql" style="sketch=0;points=[];align=center;image;fontSize=22;image=img/lib/mscae/Azure_Database_for_MySQL_servers.svg;fontColor=#FFFFFF;strokeColor=#FFFFFF;fillColor=none;aspect=fixed;horizontal=1;imageBackground=none;" parent="1" vertex="1">
          <mxGeometry x="1379.58" y="710" width="82.84" height="109" as="geometry" />
        </mxCell>
        <mxCell id="KctGKJqIe7BDy6V7C65T-34" value="DMZ区" style="endArrow=none;fontSize=22;fontColor=#FFFFFF;strokeWidth=3;align=center;" parent="1" edge="1">
          <mxGeometry width="50" height="50" relative="1" as="geometry">
            <mxPoint x="277" y="960" as="sourcePoint" />
            <mxPoint x="827" y="960" as="targetPoint" />
          </mxGeometry>
        </mxCell>
        <mxCell id="KctGKJqIe7BDy6V7C65T-36" value="APP CORE区" style="endArrow=none;fontSize=22;fontColor=#FFFFFF;strokeWidth=3;align=center;verticalAlign=middle;fontStyle=0" parent="1" edge="1">
          <mxGeometry width="50" height="50" relative="1" as="geometry">
            <mxPoint x="893.5" y="960" as="sourcePoint" />
            <mxPoint x="1280" y="960" as="targetPoint" />
          </mxGeometry>
        </mxCell>
        <mxCell id="KctGKJqIe7BDy6V7C65T-41" value="互联网" style="endArrow=none;fontSize=22;fontColor=#FFFFFF;strokeWidth=3;align=center;" parent="1" edge="1">
          <mxGeometry width="50" height="50" relative="1" as="geometry">
            <mxPoint x="10" y="960" as="sourcePoint" />
            <mxPoint x="240" y="960" as="targetPoint" />
          </mxGeometry>
        </mxCell>
        <mxCell id="KctGKJqIe7BDy6V7C65T-42" value="DB区" style="endArrow=none;fontSize=22;fontColor=#FFFFFF;strokeWidth=3;align=center;verticalAlign=middle;fontStyle=0" parent="1" edge="1">
          <mxGeometry width="50" height="50" relative="1" as="geometry">
            <mxPoint x="1290" y="960" as="sourcePoint" />
            <mxPoint x="1640" y="960" as="targetPoint" />
          </mxGeometry>
        </mxCell>
        <mxCell id="3d4-YvJgNXGxu6EetACu-1" value="PDR" style="shape=mxgraph.rack.hp.hp_proliant_bl685c_server_blade;labelPosition=center;align=center;spacingLeft=1;dashed=0;shadow=0;fillColor=#ffffff;fontSize=22;fontColor=#FFFFFF;strokeColor=#FFFFFF;points=[[0.5,0.48,0,0,0]];spacingBottom=0;verticalAlign=top;verticalLabelPosition=bottom;" parent="1" vertex="1">
          <mxGeometry x="1140" y="661" width="37" height="121" as="geometry" />
        </mxCell>
        <mxCell id="3d4-YvJgNXGxu6EetACu-2" value="中间件&#xa;Tomcat" style="shape=mxgraph.rack.hp.hp_proliant_bl685c_server_blade;labelPosition=center;align=center;spacingLeft=1;dashed=0;shadow=0;fillColor=#ffffff;fontSize=22;fontColor=#FFFFFF;strokeColor=#FFFFFF;points=[[0.5,0.48,0,0,0]];spacingBottom=0;verticalAlign=top;verticalLabelPosition=bottom;" parent="1" vertex="1">
          <mxGeometry x="990" y="482" width="37" height="121" as="geometry" />
        </mxCell>
        <mxCell id="3d4-YvJgNXGxu6EetACu-3" value="中间件&#xa;Tomcat" style="shape=mxgraph.rack.hp.hp_proliant_bl685c_server_blade;labelPosition=center;align=center;spacingLeft=1;dashed=0;shadow=0;fillColor=#ffffff;fontSize=22;fontColor=#FFFFFF;strokeColor=#FFFFFF;points=[[0.5,0.48,0,0,0]];spacingBottom=0;verticalAlign=top;verticalLabelPosition=bottom;" parent="1" vertex="1">
          <mxGeometry x="990" y="270" width="37" height="121" as="geometry" />
        </mxCell>
        <mxCell id="3d4-YvJgNXGxu6EetACu-4" value="AnyChat" style="shape=mxgraph.rack.hp.hp_proliant_bl685c_server_blade;labelPosition=center;align=center;spacingLeft=1;dashed=0;shadow=0;fillColor=#ffffff;fontSize=22;fontColor=#FFFFFF;strokeColor=#FFFFFF;points=[[0.5,0.48,0,0,0]];spacingBottom=0;verticalAlign=top;verticalLabelPosition=bottom;" parent="1" vertex="1">
          <mxGeometry x="1130" y="370" width="37" height="121" as="geometry" />
        </mxCell>
      </root>
    </mxGraphModel>
  </diagram>
  <diagram id="2kgWgccQ6f5Ev8A1jgla" name="plantuml">
    <mxGraphModel dx="2249" dy="794" grid="1" gridSize="10" guides="1" tooltips="1" connect="1" arrows="1" fold="1" page="1" pageScale="1" pageWidth="827" pageHeight="1169" math="1" shadow="0">
      <root>
        <mxCell id="0" />
        <mxCell id="1" parent="0" />
        <UserObject label="" plantUmlData="{&quot;data&quot;:&quot;@startuml\n!theme sketchy\nactor actor\nagent agent\nartifact artifact\nboundary boundary\ncard card\ncloud cloud\ncomponent component\ncontrol control\ndatabase database\nentity entity\nfile file\nfolder folder\nframe frame\ninterface  interface\nnode node\npackage package\nqueue queue\nstack stack\nrectangle rectangle\nstorage storage\nusecase usecase\n@enduml&quot;,&quot;format&quot;:&quot;svg&quot;}" id="eATnwCpRuOH77-6JVb-D-44">
          <mxCell style="shape=image;noLabel=1;verticalAlign=top;aspect=fixed;imageAspect=0;image=data:image/svg+xml,PD94bWwgdmVyc2lvbj0iMS4wIiBlbmNvZGluZz0iVVRGLTgiIHN0YW5kYWxvbmU9Im5vIj8+PHN2ZyB4bWxucz0iaHR0cDovL3d3dy53My5vcmcvMjAwMC9zdmciIHhtbG5zOnhsaW5rPSJodHRwOi8vd3d3LnczLm9yZy8xOTk5L3hsaW5rIiBjb250ZW50U3R5bGVUeXBlPSJ0ZXh0L2NzcyIgaGVpZ2h0PSI1ODIuMjkxN3B4IiBwcmVzZXJ2ZUFzcGVjdFJhdGlvPSJub25lIiBzdHlsZT0id2lkdGg6NjE4cHg7aGVpZ2h0OjU4MnB4O2JhY2tncm91bmQ6IzAwMDAwMDAwOyIgdmVyc2lvbj0iMS4xIiB2aWV3Qm94PSIwIDAgNjE4IDU4MiIgd2lkdGg9IjYxOC43NXB4IiB6b29tQW5kUGFuPSJtYWduaWZ5Ij48ZGVmcz48bGluZWFyR3JhZGllbnQgaWQ9ImcxNzZqMHlrYjk2b2x5MCIgeDE9IjUwJSIgeDI9IjUwJSIgeTE9IjAlIiB5Mj0iMTAwJSI+PHN0b3Agb2Zmc2V0PSIwJSIgc3RvcC1jb2xvcj0iI0YyRkNGRSIvPjxzdG9wIG9mZnNldD0iMTAwJSIgc3RvcC1jb2xvcj0iI0VFRUVFRSIvPjwvbGluZWFyR3JhZGllbnQ+PC9kZWZzPjxnPjwhLS1NRDU9W2UyMDliMzdmYzkxZjM3OGFiYWEyZGRmNDY4MzE4MDU1XQplbnRpdHkgYWN0b3ItLT48ZyBpZD0iZWxlbV9hY3RvciI+PHBvbHlnb24gZmlsbD0iIzQ3NDc0NyIgcG9pbnRzPSI3OS43MzM1LDI3LjAyNyw3OC41MTIsMjguNjk2MSw3Ny4wNjcyLDMxLjE0MDcsNzUuMDAwOCwzMi43ODgyLDcyLjgyOTUsMzMuNjg5MSw3MS4wOTgxLDMzLjc2NzMsNjguODcyOSwzMi42NDA2LDY2Ljc3MzIsMzEuOTA0NSw2NS4xNzk2LDMwLjQxLDY0LjM0MzYsMjguNjk5MSw2My44NDc5LDI3LjMzNjgsNjMuMzYyMiwyNS41NTczLDYyLjU3MzksMjQuMDI2MSw2My4xNzk2LDIyLjUzMTEsNjMuNzEwNCwyMC44OTM0LDY1LjcwMjEsMTkuNTk4MSw2Ny4xMDM0LDE3LjkxNzUsNjguODM3OCwxNy4zNTk0LDcwLjg5OTcsMTYuODc4OCw3My41NDM5LDE3LjE2NDQsNzQuOTkyMSwxNy44NDc0LDc2LjY3NTksMTguMTU3LDc4LjcyMzIsMjAuMjU0NSw3OS40MzY5LDIyLjQ2ODksNzkuNzQ3LDIzLjk3OTgsNzkuMzk1OCwyNi40Njk2IiBzdHlsZT0ic3Ryb2tlOiMzMzMzMzM7c3Ryb2tlLXdpZHRoOjEuMDQxNjY2NjY2NjY2NjY2NzsiLz48cGF0aCBkPSJNNzEuMzU0MiwzMy4zMzMzIEw3MS41NDg4LDMzLjMzMzMgTDcwLjk3MDUsMzguOTU4MyBMNzEuNTMzMSw0NC41ODMzIEw3MS43MjQyLDUwLjIwODMgTDcwLjY5MzYsNTUuODMzMyBMNzEuMzU0Miw2MS40NTgzIE01Ny44MTI1LDQxLjY2NjcgTDU3LjgxMjUsNDEuNTk0NyBMNjMuMjI5Miw0MS4yNzE4IEw2OC42NDU4LDQxLjMxMTYgTDc0LjA2MjUsNDEuNjAzNiBMNzkuNDc5Miw0MS4wMjY1IEw4NC44OTU4LDQxLjY2NjcgTTcxLjM1NDIsNjEuNDU4MyBMNzEuNzQxNiw2MS43OTQxIEw2OC4yMDQ4LDY0LjIwMTEgTDY1Ljc5OTEsNjcuNTg4NCBMNjMuNTMxNCw3MS4wOTUzIEw2MC40NjA4LDczLjkwNjMgTDU3LjgxMjUsNzcuMDgzMyBNNzEuMzU0Miw2MS40NTgzIEw3MS40MDE5LDYxLjQ5OTcgTDc0LjA0MDEsNjQuNTY0IEw3Ni44OTU4LDY3LjgxNjYgTDc5LjY0NjUsNzAuOTc4MyBMODIuNTk3Myw3NC4zMTM1IEw4NC44OTU4LDc3LjA4MzMgIiBmaWxsPSJub25lIiBzdHlsZT0ic3Ryb2tlOiMzMzMzMzM7c3Ryb2tlLXdpZHRoOjEuMDQxNjY2NjY2NjY2NjY2NzsiLz48dGV4dCBmaWxsPSIjRkZGRkZGIiBmb250LWZhbWlseT0iJnF1b3Q7U2Vnb2UgUHJpbnQmcXVvdDsiIGZvbnQtc2l6ZT0iMTIuNSIgbGVuZ3RoQWRqdXN0PSJzcGFjaW5nIiB0ZXh0TGVuZ3RoPSIzNC4zNzUiIHg9IjU0LjE2NjciIHk9Ijk2LjE5MTQiPmFjdG9yPC90ZXh0PjwvZz48IS0tTUQ1PVszOTA4ZGI1MDRmMTVlYjU2NGQ1ZjBlMTJiZDcyNzNjMV0KZW50aXR5IGFnZW50LS0+PGcgaWQ9ImVsZW1fYWdlbnQiPjxwb2x5Z29uIGZpbGw9IiNGRkMxMDciIHBvaW50cz0iMTM0Ljg5NTgsMzYuOTc5MiwxMzQuODk1OCwzNy4xOTgxLDE0NC42MTgxLDM2LjU0NzYsMTU0LjM0MDMsMzcuMTgwNSwxNjQuMDYyNSwzNy4zOTU1LDE3My43ODQ3LDM2LjIzNiwxODMuNTA2OSwzNi44OTgyLDE5My4yMjkyLDM2Ljk3OTIsMTkzLjE3MjUsMzYuODQyNCwxOTMuNzY3NSwzNy4xMDAyLDE5NC4zOTg2LDM3LjQ0NTUsMTk0LjkwNTEsMzcuNDg5NiwxOTUuNjU5OCwzOC4xMzMxLDE5Ni4xNzU0LDM4LjE5OTYsMTk1Ljk3MzMsMzguMTE1OCwxOTYuMzU2MSwzOC43NjI1LDE5Ni44MDIyLDM5LjQzNTUsMTk2Ljg4MDIsMzkuOTU1OSwxOTcuMTczNiw0MC41NjU2LDE5Ny4zOTU4LDQxLjE0NTgsMTk3LjM4NDcsNDEuMTQ1OCwxOTcuNDU3OCw0OC40MDQ5LDE5Ny40Nzg5LDU1LjY2NDEsMTk3LjU5OTIsNjIuOTIzMiwxOTcuNjI4OCw3MC4xODIzLDE5Ny4zOTU4LDc3LjQ0MTQsMTk3LjYxMzcsNzcuNTMxNywxOTcuMjMzNCw3OC4wNjQ1LDE5Ny4wNTY0LDc4LjY4MTUsMTk2Ljg4ODksNzkuMzAyNSwxOTYuMTg4Miw3OS43MDI2LDE5Ni4xNzU0LDgwLjM4NzcsMTk2LjI2NTYsODAuNjA1MywxOTUuNTQ2OCw4MC41MzY2LDE5NS4wNjc5LDgxLjA0NzEsMTk0LjM0MTksODAuOTYxMSwxOTMuODA5Myw4MS4zNDIsMTkzLjIyOTIsODEuNjA4MSwxOTMuMjI5Miw4Mi4zODA2LDE4My41MDY5LDgxLjU1NzMsMTczLjc4NDcsODEuNzE3OCwxNjQuMDYyNSw4MS45NjA4LDE1NC4zNDAzLDgyLjA0MTYsMTQ0LjYxODEsODEuNjA0LDEzNC44OTU4LDgxLjYwODEsMTM0LjkzNCw4MS43MDAyLDEzNC4yMzA1LDgxLjE4MDQsMTMzLjc1NTEsODEuMjExMSwxMzMuMjAwOSw4MS4wNTE3LDEzMi41OTc5LDgwLjc3NDQsMTMxLjk0OTYsODAuMzg3NywxMzIuMTQ2Miw4MC40NjkxLDEzMS41NTA1LDc5LjczNDIsMTMxLjI1MjIsNzkuMTIyNSwxMzEuMDE4LDc4LjUzNzMsMTMwLjk1NDQsNzguMDIyOCwxMzAuNzI5Miw3Ny40NDE0LDEzMC42NjA5LDc3LjQ0MTQsMTMwLjk2NTgsNzAuMTgyMywxMzAuNjY4NSw2Mi45MjMyLDEzMC42MTAxLDU1LjY2NDEsMTMwLjgwODQsNDguNDA0OSwxMzAuNzI5Miw0MS4xNDU4LDEzMC41MTUzLDQxLjA1NzIsMTMwLjgwNjcsNDAuNDg3NiwxMzEuNDI1NSw0MC4wNTM2LDEzMS42MDEyLDM5LjQzNiwxMzEuOTQxMSwzOC44ODY0LDEzMS45NDk2LDM4LjE5OTYsMTMxLjkwNjgsMzguMDk2MywxMzIuNTgxMiwzOC4wNTc5LDEzMy4yMDY1LDM3LjkwMDgsMTMzLjY1NDYsMzcuMzE1OCwxMzQuMjkzOCwzNy4xOTI1LDEzNC44OTU4LDM2Ljk3OTIiIHN0eWxlPSJzdHJva2U6I0ZGQzcyMDtzdHJva2Utd2lkdGg6MS4wNDE2NjY2NjY2NjY2NjY3OyIvPjx0ZXh0IGZpbGw9IiM1NTU1NTUiIGZvbnQtZmFtaWx5PSImcXVvdDtTZWdvZSBQcmludCZxdW90OyIgZm9udC1zaXplPSIxMi41IiBsZW5ndGhBZGp1c3Q9InNwYWNpbmciIHRleHRMZW5ndGg9IjM1LjQxNjciIHg9IjE0Ni4zNTQyIiB5PSI2NC40MjA2Ij5hZ2VudDwvdGV4dD48L2c+PCEtLU1ENT1bZWQxM2JiZmU2MWQ0ZjRiZTYyYzA5ZWViZTRkYjY2ZDNdCmVudGl0eSBhcnRpZmFjdC0tPjxnIGlkPSJlbGVtX2FydGlmYWN0Ij48cG9seWdvbiBmaWxsPSIjNTU1NTU1IiBwb2ludHM9IjIzOC41NDE3LDM1LjQxNjcsMjM4LjU0MTcsMzUuNjM1NiwyNDkuMzQ5LDM0Ljk4NTEsMjYwLjE1NjMsMzUuNjE4LDI3MC45NjM1LDM1LjgzMywyODEuNzcwOCwzNC42NzM1LDI5Mi41NzgxLDM1LjMzNTcsMzAzLjM4NTQsMzQuOTcyNCwzMTQuMTkyNywzNS4wMTcyLDMyNSwzNS40MTY3LDMyNC45OTA5LDM1LjM5NDgsMzI1LjQ5NzQsMzUuNDM5LDMyNi4yNTIxLDM2LjA4MjQsMzI2LjY4NCwzNS45NDY3LDMyNy4zMzA3LDM2LjMyOTUsMzI3Ljk0NjMsMzYuNjM3MSwzMjguMDg0OCwzNi42OTQ1LDMyOC4xNjI4LDM3LjIxNDksMzI4LjQ1NjMsMzcuODI0NiwzMjguNjY4MywzOC40MDA2LDMyOC45Nzk5LDM5LjAxNzgsMzI5LjE2NjcsMzkuNTgzMywzMjkuMjQ5NywzOS41ODMzLDMyOS4zNyw0Ny40Njc0LDMyOS4zOTk3LDU1LjM1MTYsMzI5LjQwMjUsNjMuMjM1NywzMjkuMjU1MSw3MS4xMTk4LDMyOS4xNjY3LDc5LjAwMzksMzI5LjMxNTQsNzkuMDY1NSwzMjkuMTQ3OSw3OS42ODY1LDMyOC40NDcyLDgwLjA4NjYsMzI4LjY1MjEsODAuODYxOCwzMjguMDk1Miw4MS4zMjE1LDMyNy45NDYzLDgxLjk1MDIsMzI4LjAxNzIsODIuMTIxNCwzMjcuMjkxMiw4Mi4wMzU1LDMyNi43NTg3LDgyLjQxNjQsMzI2LjI3NzEsODIuOTIwMywzMjUuNTgyOCw4Mi45MTA5LDMyNSw4My4xNzA2LDMyNSw4My4yODAzLDMxNC4xOTI3LDgzLjUyMzMsMzAzLjM4NTQsODMuNjA0MSwyOTIuNTc4MSw4My4xNjY1LDI4MS43NzA4LDgzLjQ2OTgsMjcwLjk2MzUsODIuNTc0MywyNjAuMTU2Myw4My40NjY4LDI0OS4zNDksODMuNzQxNiwyMzguNTQxNyw4My4xNzA2LDIzOC42MDA3LDgzLjMxMzIsMjM4LjAzMzksODMuMTIzMSwyMzcuMjk5LDgyLjUyNzQsMjM2LjY4NzIsODIuMjI5MSwyMzYuMTAyMSw4MS45OTQ5LDIzNS41OTU0LDgxLjk1MDIsMjM1LjU3NjUsODEuOTQyNCwyMzUuMjg4Myw4MS4zMzQ4LDIzNS4zMjU4LDgwLjg2MjIsMjM0LjgwNzEsODAuMTU5MiwyMzQuNTA5LDc5LjU0NzYsMjM0LjM3NSw3OS4wMDM5LDIzNC40NTQzLDc5LjAwMzksMjM0LjE0MzUsNzEuMTE5OCwyMzQuMTk0Nyw2My4yMzU3LDIzNC42MDAzLDU1LjM1MTYsMjM0LjUyNjMsNDcuNDY3NCwyMzQuMzc1LDM5LjU4MzMsMjM0LjYxMDYsMzkuNjgwOSwyMzQuNTE1OCwzOC45NTEzLDIzNC45NjU2LDM4LjQ0NzIsMjM1LjI5NjYsMzcuODk0LDIzNS4xOTk4LDM3LjE2MzUsMjM1LjU5NTQsMzYuNjM3MSwyMzUuNTgyNywzNi42MDYzLDIzNi4yMDE0LDM2LjQzMzQsMjM2Ljg2MDUsMzYuMzU4LDIzNy4zNjI2LDM1LjkwMzUsMjM4LjAxMzksMzUuODA5MSwyMzguNTQxNywzNS40MTY3IiBzdHlsZT0ic3Ryb2tlOiM0RDRENEQ7c3Ryb2tlLXdpZHRoOjEuMDQxNjY2NjY2NjY2NjY2NzsiLz48cG9seWdvbiBmaWxsPSIjNTU1NTU1IiBwb2ludHM9IjMxMS40NTgzLDQwLjYyNSwzMTEuNTMxMyw0MC42MjUsMzExLjMxNDUsNDMuNTQxNywzMTEuNTI1NCw0Ni40NTgzLDMxMS41OTcxLDQ5LjM3NSwzMTEuMjEwNiw1Mi4yOTE3LDMxMS40NTgzLDU1LjIwODMsMzExLjQ1ODMsNTUuMTgxMywzMTMuOTU4Myw1NS4wNjAyLDMxNi40NTgzLDU1LjA3NTIsMzE4Ljk1ODMsNTUuMTg0NywzMjEuNDU4Myw1NC45NjgzLDMyMy45NTgzLDU1LjIwODMsMzI0LjE1MDYsNTUuMjA4MywzMjMuNzM5NSw1My41NDE3LDMyMy44ODk3LDUxLjg3NSwzMjQuMTA4Myw1MC4yMDgzLDMyMy45Mjg1LDQ4LjU0MTcsMzIzLjk1ODMsNDYuODc1LDMyMy45NzUxLDQ2Ljg5MTgsMzIyLjcwMDUsNDUuNjE3MiwzMjEuNTAyMiw0NC40MTg4LDMyMC4yNjcsNDMuMTgzNywzMTkuMTAyMSw0Mi4wMTg4LDMxNy43MDgzLDQwLjYyNSwzMTcuNzA4Myw0MC44NTgsMzE2LjQ1ODMsNDAuODYwOSwzMTUuMjA4Myw0MC43MTM0LDMxMy45NTgzLDQwLjc4NiwzMTIuNzA4Myw0MC44Njg4LDMxMS40NTgzLDQwLjYyNSIgc3R5bGU9InN0cm9rZTojNEQ0RDREO3N0cm9rZS13aWR0aDoxLjA0MTY2NjY2NjY2NjY2Njc7Ii8+PHBhdGggZD0iTTMxNy43MDgzLDQwLjYyNSBMMzE3LjgwNTYsNDAuNjI1IEwzMTcuNTE2NSw0MS44NzUgTDMxNy43OTc4LDQzLjEyNSBMMzE3Ljg5MzQsNDQuMzc1IEwzMTcuMzc4MSw0NS42MjUgTDMxNy43MDgzLDQ2Ljg3NSAiIGZpbGw9IiM1NTU1NTUiIHN0eWxlPSJzdHJva2U6IzRENEQ0RDtzdHJva2Utd2lkdGg6MS4wNDE2NjY2NjY2NjY2NjY3OyIvPjxwYXRoIGQ9Ik0zMjMuOTU4Myw0Ni44NzUgTDMyMy45NTgzLDQ2Ljk3MjMgTDMyMi43MDgzLDQ2LjY4MzIgTDMyMS40NTgzLDQ2Ljk2NDUgTDMyMC4yMDgzLDQ3LjA2IEwzMTguOTU4Myw0Ni41NDQ3IEwzMTcuNzA4Myw0Ni44NzUgIiBmaWxsPSIjNTU1NTU1IiBzdHlsZT0ic3Ryb2tlOiM0RDRENEQ7c3Ryb2tlLXdpZHRoOjEuMDQxNjY2NjY2NjY2NjY2NzsiLz48dGV4dCBmaWxsPSIjRkZGRkZGIiBmb250LWZhbWlseT0iJnF1b3Q7U2Vnb2UgUHJpbnQmcXVvdDsiIGZvbnQtc2l6ZT0iMTIuNSIgbGVuZ3RoQWRqdXN0PSJzcGFjaW5nIiB0ZXh0TGVuZ3RoPSI1My4xMjUiIHg9IjI1MCIgeT0iNjUuOTgzMSI+YXJ0aWZhY3Q8L3RleHQ+PC9nPjwhLS1NRDU9WzZjYmYwNDhmZDJkNWEwNTViMGYyY2JmZDIzMzkxNzg4XQplbnRpdHkgYm91bmRhcnktLT48ZyBpZD0iZWxlbV9ib3VuZGFyeSI+PHBhdGggZD0iTTM3OS4xNjY3LDM0Ljg5NTggTDM3OS4zNjEzLDM0Ljg5NTggTDM3OC43ODMsMzkuODk1OCBMMzc5LjM0NTYsNDQuODk1OCBMMzc5LjUzNjcsNDkuODk1OCBMMzc4LjUwNjEsNTQuODk1OCBMMzc5LjE2NjcsNTkuODk1OCBNMzc5LjE2NjcsNDcuMzk1OCBMMzc5LjE2NjcsNDcuMzIzOSBMMzgyLjcwODMsNDcuMDAwOSBMMzg2LjI1LDQ3LjA0MDcgTDM4OS43OTE3LDQ3LjMzMjcgTDM5My4zMzMzLDQ2Ljc1NTcgTDM5Ni44NzUsNDcuMzk1OCAiIGZpbGw9Im5vbmUiIHN0eWxlPSJzdHJva2U6IzMzMzMzMztzdHJva2Utd2lkdGg6MS4wNDE2NjY2NjY2NjY2NjY3OyIvPjxwb2x5Z29uIGZpbGw9IiM0NzQ3NDciIHBvaW50cz0iNDIxLjk0NDEsNTAuNDM2Myw0MjAuMTExOCw1Mi45Mzk5LDQxNy45NDQ2LDU2LjYwNjksNDE0Ljg0NSw1OS4wNzgxLDQxMS41ODc5LDYwLjQyOTUsNDA4Ljk5MDksNjAuNTQ2OCw0MDUuNjUzMSw1OC44NTY3LDQwMi41MDM2LDU3Ljc1MjYsNDAwLjExMzEsNTUuNTEwOCwzOTguODU5Miw1Mi45NDQ0LDM5OC4xMTU1LDUwLjkwMSwzOTcuMzg3LDQ4LjIzMTksMzk2LjIwNDUsNDUuOTM1LDM5Ny4xMTMyLDQzLjY5MjQsMzk3LjkwOTMsNDEuMjM1OSw0MDAuODk2OSwzOS4yOTMsNDAyLjk5ODgsMzYuNzcyMSw0MDUuNjAwNCwzNS45MzUsNDA4LjY5MzMsMzUuMjE0MSw0MTIuNjU5NSwzNS42NDI0LDQxNC44MzE5LDM2LjY2NjksNDE3LjM1NzYsMzcuMTMxMyw0MjAuNDI4Niw0MC4yNzc2LDQyMS40OTkyLDQzLjU5OTIsNDIxLjk2NDMsNDUuODY1Niw0MjEuNDM3NCw0OS42MDAyIiBzdHlsZT0ic3Ryb2tlOiMzMzMzMzM7c3Ryb2tlLXdpZHRoOjEuMDQxNjY2NjY2NjY2NjY2NzsiLz48dGV4dCBmaWxsPSIjRkZGRkZGIiBmb250LWZhbWlseT0iJnF1b3Q7U2Vnb2UgUHJpbnQmcXVvdDsiIGZvbnQtc2l6ZT0iMTIuNSIgbGVuZ3RoQWRqdXN0PSJzcGFjaW5nIiB0ZXh0TGVuZ3RoPSI1OC4zMzMzIiB4PSIzNzEuMzU0MiIgeT0iODEuMDg3MiI+Ym91bmRhcnk8L3RleHQ+PC9nPjwhLS1NRDU9WzA1NjhlYTYwMGQxYzJhY2U4Njc5YWM3NWM4MGRmYzg5XQplbnRpdHkgY2FyZC0tPjxnIGlkPSJlbGVtX2NhcmQiPjxwb2x5Z29uIGZpbGw9IiMxN0EyQjgiIHBvaW50cz0iNDc2LjA0MTcsNDQuMjcwOCw0NzYuMDQxNyw0NC40ODk4LDQ4Ni4yNSw0My44MzkyLDQ5Ni40NTgzLDQ0LjQ3MjIsNTA2LjY2NjcsNDQuNjg3Miw1MTYuODc1LDQzLjUyNzcsNTI3LjA4MzMsNDQuMjcwOCw1MjcuMDczLDQ0LjI0NTksNTI3LjYxNTksNDQuMzc4MSw1MjguMjEwOSw0NC42MzYsNTI4Ljg0Miw0NC45ODEyLDUyOS4zNDg1LDQ1LjAyNTQsNTMwLjAyOTYsNDUuNDkxMiw1MzAuMjA3Miw0NS41NjQ4LDUzMC4wNzE1LDQ1Ljk5NjcsNTMwLjQ1NDMsNDYuNjQzNSw1MzAuOTAwNCw0Ny4zMTY0LDUzMC45Nzg0LDQ3LjgzNjgsNTMxLjI1LDQ4LjQzNzUsNTMxLjI3MzcsNDguNDM3NSw1MzEuMjM4OSw1Mi43Nzk5LDUzMS4zMTIsNTcuMTIyNCw1MzEuMzMzLDYxLjQ2NDgsNTMxLjQ1MzQsNjUuODA3Myw1MzEuMjUsNzAuMTQ5Nyw1MzEuNDY1Myw3MC4yMzg5LDUzMS4yMjM4LDcwLjgyOTMsNTMwLjg0MzUsNzEuMzYyMSw1MzAuNjY2NSw3MS45NzkxLDUzMC40OTksNzIuNjAwMSw1MzAuMDI5Niw3My4wOTYsNTI5LjkzMzgsNzIuODY0Nyw1MjkuNTMwNSw3My41NTc4LDUyOC44MTE3LDczLjQ4OTEsNTI4LjMzMjgsNzMuOTk5NSw1MjcuNjA2OCw3My45MTM1LDUyNy4wODMzLDc0LjMxNjQsNTI3LjA4MzMsNzQuMjQ1MSw1MTYuODc1LDc1LjA4ODksNTA2LjY2NjcsNzQuMjY1Niw0OTYuNDU4Myw3NC40MjYxLDQ4Ni4yNSw3NC42NjkxLDQ3Ni4wNDE3LDc0LjMxNjQsNDc2LjA5Nyw3NC40NDk5LDQ3NS40NTE5LDc0LjA3MTEsNDc0LjkwMTMsNzMuOTIwNCw0NzQuMTk3OCw3My40MDA1LDQ3My43MjI0LDczLjQzMTMsNDczLjA5NTQsNzMuMDk2LDQ3My4yNzEyLDczLjE2ODksNDcyLjk5MzksNzIuNTY1OCw0NzIuODAzOSw3MS45OTksNDcyLjIwODIsNzEuMjY0MSw0NzEuOTA5OSw3MC42NTIzLDQ3MS44NzUsNzAuMTQ5Nyw0NzEuNjU5Miw3MC4xNDk3LDQ3MS44NTQ2LDY1LjgwNzMsNDcxLjgwNjgsNjEuNDY0OCw0NzIuMTExNiw1Ny4xMjI0LDQ3MS44MTQzLDUyLjc3OTksNDcxLjg3NSw0OC40Mzc1LDQ3MS43NjUsNDguMzkxOSw0NzIuMTkyMyw0Ny44Nzg2LDQ3Mi4xNDkyLDQ3LjE3MDQsNDcyLjQ0MDcsNDYuNjAwOCw0NzMuMDU5NSw0Ni4xNjY3LDQ3My4wOTU0LDQ1LjQ5MTIsNDczLjE1MzMsNDUuNjMxLDQ3My43ODIyLDQ1LjQ4MjgsNDc0LjIzMTEsNDQuODk5OCw0NzQuOTA1Niw0NC44NjE0LDQ3NS41MzA5LDQ0LjcwNDMsNDc2LjA0MTcsNDQuMjcwOCIgc3R5bGU9InN0cm9rZTojMTU5MkE2O3N0cm9rZS13aWR0aDoxLjA0MTY2NjY2NjY2NjY2Njc7Ii8+PHRleHQgZmlsbD0iI0ZGRkZGRiIgZm9udC1mYW1pbHk9IiZxdW90O1NlZ29lIFByaW50JnF1b3Q7IiBmb250LXNpemU9IjEyLjUiIGxlbmd0aEFkanVzdD0ic3BhY2luZyIgdGV4dExlbmd0aD0iMjguMTI1IiB4PSI0ODcuNSIgeT0iNjQuNDIwNiI+Y2FyZDwvdGV4dD48L2c+PCEtLU1ENT1bM2E0ZDcyZWZiMWI1M2UxYWNiZGQxMTg5Y2NjYmMzMjhdCmVudGl0eSBjbG91ZC0tPjxnIGlkPSJlbGVtX2Nsb3VkIj48cGF0aCBkPSJNNDMuMTI0OCwxNzYuNTQxMyBMNDMuMTI0OCwxNzYuNTQxMyBMNDMuMTUyMiwxNzYuNjM0NyBMNDYuMDQ4MywxNzUuNDgzOSBMNDkuMTA0OSwxNzQuODgwNSBMNTIuMTA5MywxNzQuMDk4OCBMNTQuOTQxNywxNzIuNzMxIEw1OC4wMTIxLDE3Mi4xNzQ2IEw1OC4wMTIxLDE3Mi4xNzQ2IEw1OC4wMDUyLDE3Mi4xMzkzIEw2MC45Nzg2LDE3MS4zOTc1IEw2My45ODY1LDE3MC44MzM4IEw2Ny4wMTg1LDE3MC4zOTM4IEw2OS45Njc2LDE2OS41MjczIEw3My4wMzI4LDE2OS4yNTgzIEw3My4wMzI4LDE2OS4yNTgzIEw3My4wODA2LDE2OS41MTAxIEw3NS44MjU0LDE2OS41MTIxIEw3OC43MDk4LDE3MC4yNDkzIEw4MS42MTEyLDE3MS4wNzYyIEw4NC40MTM1LDE3MS4zODEyIEw4Ny4yNjgsMTcxLjk2MDcgTDg3LjI2OCwxNzEuOTYwNyBMODcuMjc3OSwxNzEuOTkwNyBMOTAuNDQzLDE3Mi45OTM5IEw5My42NTMxLDE3NC4xMzM4IEw5Ni44NDE2LDE3NS4yMDc3IEwxMDAuMDcxNCwxNzYuNDA3MyBMMTAzLjE2NjMsMTc3LjE5NyBMMTAzLjE2NjMsMTc3LjE5NyBMMTAzLjQ3MzgsMTc3LjI0MTEgTDEwNCwxODAuODg3OSBMMTA0LjMyNzksMTg0LjUwNjIgTDEwNC45NDYxLDE4OC4xNjYxIEwxMDUuNTc3OSwxOTEuODI4IEwxMDUuNzc4NiwxOTUuNDI4MSBMMTA1Ljc3ODYsMTk1LjQyODEgTDEwNS40NTA3LDE5NS4zNjQ4IEwxMDUuMzYzMiwxOTkuMjM2NyBMMTA0LjE5NjIsMjAyLjkwMDIgTDEwMy44NDk5LDIwNi43MjIyIEwxMDIuNjU4NSwyMTAuMzgxIEwxMDIuMTU5NywyMTQuMTczNSBMMTAyLjE1OTcsMjE0LjE3MzUgTDEwMi4xNTc2LDIxNC4xNDE5IEw5OS4zMjEsMjE0LjcwMzggTDk2LjQzNTksMjE0LjUyNjQgTDkzLjU3OTQsMjE0Ljc4NTMgTDkwLjcyNTIsMjE1LjA4MDggTDg3Ljg1MzgsMjE1LjExMjEgTDg3Ljg1MzgsMjE1LjExMjEgTDg3Ljg1NjYsMjE1LjMwNDggTDg0LjYwNTYsMjE1LjE1NyBMODEuMzU5NCwyMTUuMzM4NSBMNzguMTA1NSwyMTQuOTg3NCBMNzQuODYzLDIxNS40MzA4IEw3MS42MTMsMjE1LjM0NTkgTDcxLjYxMywyMTUuMzQ1OSBMNzEuNjE1NywyMTUuNTk5NiBMNjguODkwMywyMTUuNTgwOSBMNjYuMTY2MywyMTUuNjg4MSBMNjMuNDM2LDIxNS4yMDk5IEw2MC43MTAzLDIxNS4xNjA4IEw1Ny45ODg3LDIxNS40OTE5IEw1Ny45ODg3LDIxNS40OTE5IEw1Ny45ODY2LDIxNS4yMDQyIEw1NC43NTk0LDIxNS40ODg0IEw1MS41Mjk4LDIxNS40NDgzIEw0OC4zMDM3LDIxNS44Nzg1IEw0NS4wNzE3LDIxNS41MDU5IEw0MS44NDMzLDIxNS42MTA0IEw0MS44NDMzLDIxNS42MTA0IEw0MS42ODU5LDIxNS41ODkxIEw0MS40MDYzLDIxMS42Mjg4IEw0MC40NTQsMjA3LjU3NzIgTDM5Ljk4MDIsMjAzLjU5MDUgTDM5Ljk3NDQsMTk5LjY2NzMgTDM5LjEzNTEsMTk1LjYzMSBMMzkuMTM1MSwxOTUuNjMxIEwzOS4zMzI1LDE5NS42NzIzIEw0MC4yNjU5LDE5MS44ODI3IEw0MC41ODUxLDE4Ny45NjQ3IEw0MS42NzM2LDE4NC4yMDc0IEw0Mi41OTQ0LDE4MC40MTUyIEw0My4xMjQ4LDE3Ni41NDEzICIgZmlsbD0idXJsKCNnMTc2ajB5a2I5Nm9seTApIiBzdHlsZT0ic3Ryb2tlOiNGMkZDRkU7c3Ryb2tlLXdpZHRoOjEuMDQxNjY2NjY2NjY2NjY2NzsiLz48dGV4dCBmaWxsPSIjNTU1NTU1IiBmb250LWZhbWlseT0iJnF1b3Q7U2Vnb2UgUHJpbnQmcXVvdDsiIGZvbnQtc2l6ZT0iMTIuNSIgbGVuZ3RoQWRqdXN0PSJzcGFjaW5nIiB0ZXh0TGVuZ3RoPSIzNC4zNzUiIHg9IjU0LjE2NjciIHk9IjE5OS4zMTY0Ij5jbG91ZDwvdGV4dD48L2c+PCEtLU1ENT1bNWYxNzVlYzAxOGMyMjVjODZlOGU3NzE0OWU2MzQ1ZDRdCmVudGl0eSBjb21wb25lbnQtLT48ZyBpZD0iZWxlbV9jb21wb25lbnQiPjxwb2x5Z29uIGZpbGw9IiM0NzQ3NDciIHBvaW50cz0iMTUwLjUyMDgsMTY2LjY2NjcsMTUwLjUyMDgsMTY2Ljg4NTYsMTYxLjE0NTgsMTY2LjIzNTEsMTcxLjc3MDgsMTY2Ljg2OCwxODIuMzk1OCwxNjcuMDgzLDE5My4wMjA4LDE2NS45MjM1LDIwMy42NDU4LDE2Ni41ODU3LDIxNC4yNzA4LDE2Ni4yMjI0LDIyNC44OTU4LDE2Ni4yNjcyLDIzNS41MjA4LDE2Ni41OTU3LDI0Ni4xNDU4LDE2NS45NDY1LDI1Ni43NzA4LDE2Ni42NjY3LDI1Ni44NDQ0LDE2Ni44NDQzLDI1Ny4yNzYzLDE2Ni43MDg2LDI1Ny45MjMxLDE2Ny4wOTE0LDI1OC41OTYsMTY3LjUzNzUsMjU5LjExNjUsMTY3LjYxNTUsMjU5LjcxNzEsMTY3Ljg4NzEsMjU5LjczOSwxNjcuODk2MSwyNTkuOTUwOSwxNjguNDcyMSwyNjAuMjYyNSwxNjkuMDg5MywyNjAuNTI2MSwxNjkuNjg2NiwyNjAuODgxMywxNzAuMzIxOSwyNjAuOTM3NSwxNzAuODMzMywyNjEuMTcwNSwxNzAuODMzMywyNjEuMTczNCwxODAuMTc1OCwyNjEuMDI1OSwxODkuNTE4MiwyNjEuMDk4NSwxOTguODYwNywyNjEuMTgxMywyMDguMjAzMSwyNjAuOTM3NSwyMTcuNTQ1NiwyNjAuNzA2MSwyMTcuNDQ5NywyNjAuOTExMSwyMTguMjI1LDI2MC4zNTQyLDIxOC42ODQ3LDI2MC4zNzY1LDIxOS4zODQzLDI1OS44MDI0LDIxOS44MzY4LDI1OS43MTcxLDIyMC40OTE5LDI1OS43MDgsMjIwLjQ2OTksMjU5LjIyNjQsMjIwLjk3MzgsMjU4LjUzMjEsMjIwLjk2NDQsMjU3Ljk2MzMsMjIxLjI1NzksMjU3LjQwNTEsMjIxLjU3NjgsMjU2Ljc3MDgsMjIxLjcxMjIsMjU2Ljc3MDgsMjIyLjE0NTgsMjQ2LjE0NTgsMjIxLjcwODIsMjM1LjUyMDgsMjIyLjAxMTQsMjI0Ljg5NTgsMjIxLjExNiwyMTQuMjcwOCwyMjIuMDA4NSwyMDMuNjQ1OCwyMjIuMjgzMywxOTMuMDIwOCwyMjIuMTc1MywxODIuMzk1OCwyMjIuMzUwOCwxNzEuNzcwOCwyMjEuMjA5LDE2MS4xNDU4LDIyMS4wMzI5LDE1MC41MjA4LDIyMS43MTIyLDE1MC40MzgzLDIyMS41MTI5LDE0OS45MjM4LDIyMS40NDkzLDE0OS4zMTYyLDIyMS4xNjEsMTQ4Ljg0MzYsMjIxLjE5ODYsMTQ4LjE0MDYsMjIwLjY3OTksMTQ3LjU3NDYsMjIwLjQ5MTksMTQ3LjQ2NDUsMjIwLjQ0NjMsMTQ3LjQwMzcsMjE5LjkzMjksMTQ2Ljg3MjUsMjE5LjIyNDcsMTQ2LjY3NTgsMjE4LjY1NTEsMTQ2LjgwNjQsMjE4LjIyMTEsMTQ2LjM1NDIsMjE3LjU0NTYsMTQ2LjUwNTQsMjE3LjU0NTYsMTQ2LjYwOTIsMjA4LjIwMzEsMTQ2LjI0MjQsMTk4Ljg2MDcsMTQ2LjQ2NSwxODkuNTE4MiwxNDYuNTU5MiwxODAuMTc1OCwxNDYuMzU0MiwxNzAuODMzMywxNDYuMjAyNiwxNzAuNzcwNiwxNDYuNTY3NSwxNzAuMjMxMywxNDYuODgyNywxNjkuNjcxNiwxNDcuMjk1NSwxNjkuMTUyMiwxNDcuMzI5MSwxNjguNDc1OCwxNDcuNTc0NiwxNjcuODg3MSwxNDcuNjM2LDE2OC4wMzU0LDE0OC4wOTAyLDE2Ny40NjUzLDE0OC42NjMxLDE2Ny4xODE2LDE0OS40MDkyLDE2Ny4zMTY0LDE0OS44MzYzLDE2Ni42ODA4LDE1MC41MjA4LDE2Ni42NjY3IiBzdHlsZT0ic3Ryb2tlOiMzMzMzMzM7c3Ryb2tlLXdpZHRoOjEuMDQxNjY2NjY2NjY2NjY2NzsiLz48cG9seWdvbiBmaWxsPSIjNDc0NzQ3IiBwb2ludHM9IjI0MC4xMDQyLDE3MS44NzUsMjQwLjEwNDIsMTcxLjk0OCwyNDMuMjI5MiwxNzEuNzMxMSwyNDYuMzU0MiwxNzEuOTQyMSwyNDkuNDc5MiwxNzIuMDEzOCwyNTIuNjA0MiwxNzEuNjI3MywyNTUuNzI5MiwxNzEuODc1LDI1NS43MDIyLDE3MS44NzUsMjU1LjU4MTEsMTczLjk1ODMsMjU1LjU5NiwxNzYuMDQxNywyNTUuNzA1NSwxNzguMTI1LDI1NS40ODkxLDE4MC4yMDgzLDI1NS43MjkyLDE4Mi4yOTE3LDI1NS43MjkyLDE4Mi40ODM5LDI1Mi42MDQyLDE4Mi4wNzI4LDI0OS40NzkyLDE4Mi4yMjMsMjQ2LjM1NDIsMTgyLjQ0MTYsMjQzLjIyOTIsMTgyLjI2MTksMjQwLjEwNDIsMTgyLjI5MTcsMjQwLjEyNzksMTgyLjI5MTcsMjQwLjA5MzEsMTgwLjIwODMsMjQwLjE2NjIsMTc4LjEyNSwyNDAuMTg3MiwxNzYuMDQxNywyNDAuMzA3NSwxNzMuOTU4MywyNDAuMTA0MiwxNzEuODc1IiBzdHlsZT0ic3Ryb2tlOiMzMzMzMzM7c3Ryb2tlLXdpZHRoOjEuMDQxNjY2NjY2NjY2NjY2NzsiLz48cG9seWdvbiBmaWxsPSIjNDc0NzQ3IiBwb2ludHM9IjIzOC4wMjA4LDE3My45NTgzLDIzOC4wMjA4LDE3NC4wMzEzLDIzOC44NTQyLDE3My44MTQ1LDIzOS42ODc1LDE3NC4wMjU0LDI0MC41MjA4LDE3NC4wOTcxLDI0MS4zNTQyLDE3My43MTA2LDI0Mi4xODc1LDE3My45NTgzLDI0Mi4xNjA1LDE3My45NTgzLDI0Mi4wMzk0LDE3NC4zNzUsMjQyLjA1NDMsMTc0Ljc5MTcsMjQyLjE2MzgsMTc1LjIwODMsMjQxLjk0NzQsMTc1LjYyNSwyNDIuMTg3NSwxNzYuMDQxNywyNDIuMTg3NSwxNzYuMjMzOSwyNDEuMzU0MiwxNzUuODIyOCwyNDAuNTIwOCwxNzUuOTczLDIzOS42ODc1LDE3Ni4xOTE2LDIzOC44NTQyLDE3Ni4wMTE5LDIzOC4wMjA4LDE3Ni4wNDE3LDIzOC4wNDQ1LDE3Ni4wNDE3LDIzOC4wMDk3LDE3NS42MjUsMjM4LjA4MjgsMTc1LjIwODMsMjM4LjEwMzksMTc0Ljc5MTcsMjM4LjIyNDIsMTc0LjM3NSwyMzguMDIwOCwxNzMuOTU4MyIgc3R5bGU9InN0cm9rZTojMzMzMzMzO3N0cm9rZS13aWR0aDoxLjA0MTY2NjY2NjY2NjY2Njc7Ii8+PHBvbHlnb24gZmlsbD0iIzQ3NDc0NyIgcG9pbnRzPSIyMzguMDIwOCwxNzguMTI1LDIzOC4wMjA4LDE3OC4xOTgsMjM4Ljg1NDIsMTc3Ljk4MTEsMjM5LjY4NzUsMTc4LjE5MjEsMjQwLjUyMDgsMTc4LjI2MzgsMjQxLjM1NDIsMTc3Ljg3NzMsMjQyLjE4NzUsMTc4LjEyNSwyNDIuMTYwNSwxNzguMTI1LDI0Mi4wMzk0LDE3OC41NDE3LDI0Mi4wNTQzLDE3OC45NTgzLDI0Mi4xNjM4LDE3OS4zNzUsMjQxLjk0NzQsMTc5Ljc5MTcsMjQyLjE4NzUsMTgwLjIwODMsMjQyLjE4NzUsMTgwLjQwMDYsMjQxLjM1NDIsMTc5Ljk4OTUsMjQwLjUyMDgsMTgwLjEzOTcsMjM5LjY4NzUsMTgwLjM1ODMsMjM4Ljg1NDIsMTgwLjE3ODUsMjM4LjAyMDgsMTgwLjIwODMsMjM4LjA0NDUsMTgwLjIwODMsMjM4LjAwOTcsMTc5Ljc5MTcsMjM4LjA4MjgsMTc5LjM3NSwyMzguMTAzOSwxNzguOTU4MywyMzguMjI0MiwxNzguNTQxNywyMzguMDIwOCwxNzguMTI1IiBzdHlsZT0ic3Ryb2tlOiMzMzMzMzM7c3Ryb2tlLXdpZHRoOjEuMDQxNjY2NjY2NjY2NjY2NzsiLz48dGV4dCBmaWxsPSIjRkZGRkZGIiBmb250LWZhbWlseT0iJnF1b3Q7U2Vnb2UgUHJpbnQmcXVvdDsiIGZvbnQtc2l6ZT0iMTIuNSIgbGVuZ3RoQWRqdXN0PSJzcGFjaW5nIiB0ZXh0TGVuZ3RoPSI2Mi41IiB4PSIxNjcuMTg3NSIgeT0iMjA0LjUyNDciPmNvbXBvbmVudDwvdGV4dD48L2c+PCEtLU1ENT1bMGI0NjAzYzIyYmMwZDkyMTRiYWYzZGIxMWVmZmExNWZdCmVudGl0eSBjb250cm9sLS0+PGcgaWQ9ImVsZW1fY29udHJvbCI+PHBvbHlnb24gZmlsbD0iIzQ3NDc0NyIgcG9pbnRzPSIzMzkuMTMxNiwxODUuMzMyMiwzMzcuMjk5MywxODcuODM1NywzMzUuMTMyMSwxOTEuNTAyNywzMzIuMDMyNSwxOTMuOTczOSwzMjguNzc1NCwxOTUuMzI1MywzMjYuMTc4NCwxOTUuNDQyNiwzMjIuODQwNiwxOTMuNzUyNSwzMTkuNjkxMSwxOTIuNjQ4NCwzMTcuMzAwNiwxOTAuNDA2NiwzMTYuMDQ2NywxODcuODQwMywzMTUuMzAzLDE4NS43OTY4LDMxNC41NzQ1LDE4My4xMjc3LDMxMy4zOTIsMTgwLjgzMDgsMzE0LjMwMDcsMTc4LjU4ODMsMzE1LjA5NjgsMTc2LjEzMTcsMzE4LjA4NDQsMTc0LjE4ODgsMzIwLjE4NjMsMTcxLjY2NzksMzIyLjc4NzksMTcwLjgzMDgsMzI1Ljg4MDgsMTcwLjEwOTksMzI5Ljg0NywxNzAuNTM4MiwzMzIuMDE5NCwxNzEuNTYyNywzMzQuNTQ1MSwxNzIuMDI3MSwzMzcuNjE2MSwxNzUuMTczNSwzMzguNjg2NywxNzguNDk1LDMzOS4xNTE4LDE4MC43NjE0LDMzOC42MjQ5LDE4NC40OTYxIiBzdHlsZT0ic3Ryb2tlOiMzMzMzMzM7c3Ryb2tlLXdpZHRoOjEuMDQxNjY2NjY2NjY2NjY2NzsiLz48cG9seWdvbiBmaWxsPSIjMzMzMzMzIiBwb2ludHM9IjMyMi4zOTU4LDE2OS43OTE3LDMyMi40NDI2LDE2OS44NDc3LDMyMy41NTM3LDE2OC42Mzk1LDMyNC45Mzg4LDE2Ny43NTk5LDMyNi4yMzQ3LDE2Ni43NzMzLDMyNy4yMzczLDE2NS40MzQ3LDMyOC42NDU4LDE2NC41ODMzLDMyOC42MjA4LDE2NC41NzMzLDMyOC4wOTE3LDE2NS41NywzMjcuNjg4OSwxNjYuNjE3MiwzMjcuMzczOSwxNjcuNjk5NSwzMjYuNzU2MywxNjguNjYwOCwzMjYuNTYyNSwxNjkuNzkxNywzMjYuNzQxLDE2OS44NjMxLDMyNi43NzYsMTcwLjc1MjEsMzI3LjMzMjEsMTcxLjg0OTUsMzI3Ljk1MTgsMTcyLjk3MjQsMzI4LjIwMTUsMTczLjk0NzMsMzI4LjY0NTgsMTc1LDMyOC42NjEsMTc1LjAxODIsMzI3LjM4ODcsMTczLjk0OTgsMzI2LjE4NTUsMTcyLjk2NDMsMzI0Ljk0OSwxNzEuOTM4OCwzMjMuNzc2LDE3MC45ODk2LDMyMi4zOTU4LDE2OS43OTE3IiBzdHlsZT0ic3Ryb2tlOiMzMzMzMzM7c3Ryb2tlLXdpZHRoOjEuMDQxNjY2NjY2NjY2NjY2NzsiLz48dGV4dCBmaWxsPSIjRkZGRkZGIiBmb250LWZhbWlseT0iJnF1b3Q7U2Vnb2UgUHJpbnQmcXVvdDsiIGZvbnQtc2l6ZT0iMTIuNSIgbGVuZ3RoQWRqdXN0PSJzcGFjaW5nIiB0ZXh0TGVuZ3RoPSI0Ny45MTY3IiB4PSIzMDIuNjA0MiIgeT0iMjE1Ljk4MzEiPmNvbnRyb2w8L3RleHQ+PC9nPjwhLS1NRDU9W2Y1MGZmNWU0Y2Q2NGYyNTkzMDNmYzgzZGJhMTgxOWZjXQplbnRpdHkgZGF0YWJhc2UtLT48ZyBpZD0iZWxlbV9kYXRhYmFzZSI+PHBhdGggZD0iTTM5Mi43MDgzLDE3Ny42MDQyIEwzOTIuNzA4MywxNzcuNjA0MiBMMzkyLjc3MjIsMTc3LjY3NzYgTDM5My45NjU4LDE3Ni4yNTUxIEwzOTUuNTM0LDE3NS4yNjI4IEwzOTYuOTgwMiwxNzQuMTMwNCBMMzk4LjAyNTMsMTcyLjUzNzQgTDM5OS42MjU3LDE3MS41ODIgTDM5OS42MTg1LDE3MS41NDY4IEw0MDIuNjMsMTcwLjc3IEw0MDUuNjc3NSwxNzAuMTcxMSBMNDA4Ljc1MDIsMTY5LjY5NTYgTDQxMS43MzY0LDE2OC43OTQ0IEw0MTQuODQzOCwxNjguNDg5NiBMNDE0Ljg2MjksMTY4Ljc0NTIgTDQxNy44NjU2LDE2Ny45NzA3IEw0MjAuOTI0MiwxNjcuOTQyNiBMNDIzLjk4OTUsMTY4LjAwNTQgTDQyNy4wMTUzLDE2Ny41Mzg1IEw0MzAuMDYxOCwxNjcuMzUwMyBMNDMwLjA2MjYsMTY3LjM4MTggTDQzMS40NDUsMTY3LjMwMjkgTDQzMi44MzA3LDE2Ny4zNjc4IEw0MzQuMjE0OCwxNjcuMzYzMyBMNDM1LjYwMjEsMTY3LjQ5MTEgTDQzNi45NzkyLDE2Ny4xODc1IEw0MzYuOTc5MiwxNjcuMTg3NSBMNDM2Ljk4NjUsMTY3LjQ5ODEgTDQzOC4zNywxNjcuNTM0NCBMNDM5Ljc0ODksMTY3LjM3MDUgTDQ0MS4xMzQ2LDE2Ny40OTk3IEw0NDIuNTIwNywxNjcuNjQyNyBMNDQzLjg5NjUsMTY3LjM1MDMgTDQ0My44NzE2LDE2Ny4wMTczIEw0NDYuOTYzNiwxNjcuODkxNCBMNDQ5Ljk3MzUsMTY3LjY2OTEgTDQ1My4wNDU4LDE2OC4yODAzIEw0NTYuMDUzOSwxNjguMDMzMiBMNDU5LjExNDYsMTY4LjQ4OTYgTDQ1OS4xMDgzLDE2OC40NTg1IEw0NjIuMjI2NiwxNjkuNDQ0NSBMNDY1LjE5NzMsMTY5LjcwNDUgTDQ2OC4yNTUyLDE3MC4zOTI4IEw0NzEuMzIwMywxNzEuMTE3MiBMNDc0LjMzMjcsMTcxLjU4MiBMNDc0LjQ1OTIsMTcxLjcyNzQgTDQ3NS43MTUsMTcyLjc4NTEgTDQ3Ny4xODY5LDE3NC4wOTEyIEw0NzguMzA5MSwxNzQuOTk1NCBMNDc5Ljk1MywxNzYuNDk5IEw0ODEuMjUsMTc3LjYwNDIgTDQ4MS43NTc2LDE3Ny42MDQyIEw0ODEuNjYxNiwxODQuMjM4MyBMNDgxLjgxNzYsMTkwLjg3MjQgTDQ4MC44MDI3LDE5Ny41MDY1IEw0ODAuNjQ2MSwyMDQuMTQwNiBMNDgxLjI1LDIxMC43NzQ3IEw0ODEuMjUsMjEwLjc3NDcgTDQ4MS4wNjExLDIxMC41NTc4IEw0NzkuODQ4NiwyMTEuOTU4NiBMNDc4LjQyMzMsMjEzLjExNSBMNDc3LjMwNjgsMjE0LjYyNiBMNDc1LjY2MywyMTUuNTMxNSBMNDc0LjMzMjcsMjE2Ljc5NjkgTDQ3NC4zMDExLDIxNi42NDEyIEw0NzEuMzEwMSwyMTcuNTE4OSBMNDY4LjE4NCwyMTcuNzMxMyBMNDY1LjE1NCwyMTguNDE2OCBMNDYyLjIxOCwyMTkuNTY1MyBMNDU5LjExNDYsMjE5Ljg4OTMgTDQ1OS4xMjk2LDIyMC4wOTA1IEw0NTYuMDk2NCwyMjAuNDU2MyBMNDUzLjAxNjIsMjIwLjE5NjUgTDQ0OS45OTQ4LDIyMC43MjAzIEw0NDYuOTYwNSwyMjEuMDczNCBMNDQzLjg5NjUsMjIxLjAyODYgTDQ0My44OTEzLDIyMC44MSBMNDQyLjUxMiwyMjEuMDE2OCBMNDQxLjEzMDksMjIxLjE1MjEgTDQzOS43NTMyLDIyMS40MjggTDQzOC4zNjI2LDIyMS4xNTY5IEw0MzYuOTc5MiwyMjEuMTkxNCBMNDM2Ljk3OTIsMjIxLjE5MTQgTDQzNi45ODQyLDIyMS40MDU1IEw0MzUuNTg5NywyMjAuOTAyNSBMNDM0LjIwNDksMjIwLjgxMjggTDQzMi44MzQzLDIyMS4zMjY4IEw0MzEuNDM3NSwyMjAuNzI5NCBMNDMwLjA2MTgsMjIxLjAyODYgTDQzMC4wNzk0LDIyMS4yNjM2IEw0MjcuMDI1NCwyMjAuODk2MiBMNDIzLjk2NTMsMjIwLjQ0OTIgTDQyMC45MTg4LDIyMC4xODE3IEw0MTcuOTAzMiwyMjAuMzI5IEw0MTQuODQzOCwyMTkuODg5MyBMNDE0LjgxNjIsMjE5Ljc1MzUgTDQxMS44NTQ3LDIxOS41Mzk0IEw0MDguNzA1NiwyMTguNDAxNiBMNDA1Ljc2OTgsMjE4LjMxNCBMNDAyLjcxMzksMjE3LjYzNTEgTDM5OS42MjU3LDIxNi43OTY5IEwzOTkuNzAwMSwyMTYuODgyNCBMMzk4LjI1NjUsMjE1LjYwODkgTDM5Ny4wNzk2LDIxNC42NDE3IEwzOTUuNjYxOCwyMTMuMzk3OCBMMzk0LjE0MzIsMjEyLjAzODMgTDM5Mi43MDgzLDIxMC43NzQ3IEwzOTIuOTU2NywyMTAuNzc0NyBMMzkyLjU4NzcsMjA0LjE0MDYgTDM5My4zNzE3LDE5Ny41MDY1IEwzOTIuODUxNywxOTAuODcyNCBMMzkyLjg2ODEsMTg0LjIzODMgTDM5Mi43MDgzLDE3Ny42MDQyICIgZmlsbD0iIzQ3NDc0NyIgc3R5bGU9InN0cm9rZTojMzMzMzMzO3N0cm9rZS13aWR0aDoxLjA0MTY2NjY2NjY2NjY2Njc7Ii8+PHBhdGggZD0iTTM5Mi43MDgzLDE3Ny42MDQyIEwzOTIuNzA4MywxNzcuNjA0MiBMMzkyLjc3MjIsMTc3LjY3NzYgTDM5My45NjU4LDE3OC42NjM5IEwzOTUuNTM0LDE4MC4wODA1IEwzOTYuOTgwMiwxODEuMzU3IEwzOTguMDI1MywxODIuMTcyOCBMMzk5LjYyNTcsMTgzLjYyNjMgTDM5OS42MTg1LDE4My41OTEgTDQwMi42MywxODQuMDUxMyBMNDA1LjY3NzUsMTg0LjY4OTMgTDQwOC43NTAyLDE4NS40NTA4IEw0MTEuNzM2NCwxODUuNzg2NiBMNDE0Ljg0MzgsMTg2LjcxODggTDQxNC44NjI5LDE4Ni45NzQ0IEw0MTcuODY1NiwxODYuNjU1NiBMNDIwLjkyNDIsMTg3LjA4MzIgTDQyMy45ODk1LDE4Ny42MDE4IEw0MjcuMDE1MywxODcuNTkwNiBMNDMwLjA2MTgsMTg3Ljg1ODEgTDQzMC4wNjI2LDE4Ny44ODk3IEw0MzEuNDQ1LDE4Ny44NzU4IEw0MzIuODMwNywxODguMDA1OCBMNDM0LjIxNDgsMTg4LjA2NjQgTDQzNS42MDIxLDE4OC4yNTk0IEw0MzYuOTc5MiwxODguMDIwOCBMNDM2Ljk3OTIsMTg4LjAyMDggTDQzNi45ODY1LDE4OC4zMzE0IEw0MzguMzcsMTg4LjMwMjcgTDQzOS43NDg5LDE4OC4wNzM2IEw0NDEuMTM0NiwxODguMTM3NyBMNDQyLjUyMDcsMTg4LjIxNTYgTDQ0My44OTY1LDE4Ny44NTgxIEw0NDMuODcxNiwxODcuNTI1MSBMNDQ2Ljk2MzYsMTg3Ljk0MzUgTDQ0OS45NzM1LDE4Ny4yNjU1IEw0NTMuMDQ1OCwxODcuNDIwOSBMNDU2LjA1MzksMTg2LjcxODEgTDQ1OS4xMTQ2LDE4Ni43MTg4IEw0NTkuMTA4MywxODYuNjg3NyBMNDYyLjIyNjYsMTg2LjQzNjcgTDQ2NS4xOTczLDE4NS40NTk3IEw0NjguMjU1MiwxODQuOTExMSBMNDcxLjMyMDMsMTg0LjM5ODQgTDQ3NC4zMzI3LDE4My42MjYzIEw0NzQuNDU5MiwxODMuNzcxNiBMNDc1LjcxNSwxODIuNDIwNSBMNDc3LjE4NjksMTgxLjMxNzcgTDQ3OC4zMDkxLDE3OS44MTMxIEw0NzkuOTUzLDE3OC45MDc5IEw0ODEuMjUsMTc3LjYwNDIgIiBmaWxsPSJub25lIiBzdHlsZT0ic3Ryb2tlOiMzMzMzMzM7c3Ryb2tlLXdpZHRoOjEuMDQxNjY2NjY2NjY2NjY2NzsiLz48dGV4dCBmaWxsPSIjRkZGRkZGIiBmb250LWZhbWlseT0iJnF1b3Q7U2Vnb2UgUHJpbnQmcXVvdDsiIGZvbnQtc2l6ZT0iMTIuNSIgbGVuZ3RoQWRqdXN0PSJzcGFjaW5nIiB0ZXh0TGVuZ3RoPSI1Ny4yOTE3IiB4PSI0MDguMzMzMyIgeT0iMjA5LjIxMjIiPmRhdGFiYXNlPC90ZXh0PjwvZz48IS0tTUQ1PVtmYmNkMWExNjY0MjUyZjdmN2RkZjg4M2ZlZDNjMWUwYV0KZW50aXR5IGVudGl0eS0tPjxnIGlkPSJlbGVtX2VudGl0eSI+PHBvbHlnb24gZmlsbD0iIzQ3NDc0NyIgcG9pbnRzPSI1NTUuNzk4MiwxODUuMzMyMiw1NTMuOTY1OSwxODcuODM1Nyw1NTEuNzk4NywxOTEuNTAyNyw1NDguNjk5MiwxOTMuOTczOSw1NDUuNDQyMSwxOTUuMzI1Myw1NDIuODQ1MSwxOTUuNDQyNiw1MzkuNTA3MiwxOTMuNzUyNSw1MzYuMzU3OCwxOTIuNjQ4NCw1MzMuOTY3MywxOTAuNDA2Niw1MzIuNzEzMywxODcuODQwMyw1MzEuOTY5NywxODUuNzk2OCw1MzEuMjQxMiwxODMuMTI3Nyw1MzAuMDU4NywxODAuODMwOCw1MzAuOTY3NCwxNzguNTg4Myw1MzEuNzYzNSwxNzYuMTMxNyw1MzQuNzUxMSwxNzQuMTg4OCw1MzYuODUzLDE3MS42Njc5LDUzOS40NTQ2LDE3MC44MzA4LDU0Mi41NDc1LDE3MC4xMDk5LDU0Ni41MTM3LDE3MC41MzgyLDU0OC42ODYxLDE3MS41NjI3LDU1MS4yMTE4LDE3Mi4wMjcxLDU1NC4yODI4LDE3NS4xNzM1LDU1NS4zNTMzLDE3OC40OTUsNTU1LjgxODUsMTgwLjc2MTQsNTU1LjI5MTYsMTg0LjQ5NjEiIHN0eWxlPSJzdHJva2U6IzMzMzMzMztzdHJva2Utd2lkdGg6MS4wNDE2NjY2NjY2NjY2NjY3OyIvPjxwYXRoIGQ9Ik01MzAuNzI5MiwxOTYuODc1IEw1MzAuNzI5MiwxOTYuOTcyMyBMNTM1LjcyOTIsMTk2LjY4MzIgTDU0MC43MjkyLDE5Ni45NjQ1IEw1NDUuNzI5MiwxOTcuMDYgTDU1MC43MjkyLDE5Ni41NDQ3IEw1NTUuNzI5MiwxOTYuODc1ICIgZmlsbD0iIzQ3NDc0NyIgc3R5bGU9InN0cm9rZTojMzMzMzMzO3N0cm9rZS13aWR0aDoxLjA0MTY2NjY2NjY2NjY2Njc7Ii8+PHRleHQgZmlsbD0iI0ZGRkZGRiIgZm9udC1mYW1pbHk9IiZxdW90O1NlZ29lIFByaW50JnF1b3Q7IiBmb250LXNpemU9IjEyLjUiIGxlbmd0aEFkanVzdD0ic3BhY2luZyIgdGV4dExlbmd0aD0iNDAuNjI1IiB4PSI1MjIuOTE2NyIgeT0iMjE1Ljk4MzEiPmVudGl0eTwvdGV4dD48L2c+PCEtLU1ENT1bN2VkY2VmYWE0MDZjNjUxNTUyNjVmMDQyNDlhOTViNzBdCmVudGl0eSBmaWxlLS0+PGcgaWQ9ImVsZW1fZmlsZSI+PHBhdGggZD0iTTQyLjcwODMsMzAzLjY0NTggTDQyLjkwMjksMzAzLjY0NTggTDQyLjMyNDcsMzEwLjkwNDkgTDQyLjg4NzMsMzE4LjE2NDEgTDQzLjA3ODQsMzI1LjQyMzIgTDQyLjA0NzgsMzMyLjY4MjMgTDQyLjcwODMsMzM5Ljk0MTQgTDQ2Ljg3NSwzNDQuMTA4MSBMNDYuODc1LDM0My44OTIyIEw1Ni42NjY3LDM0Mi45MjM0IEw2Ni40NTgzLDM0My4wNDI4IEw3Ni4yNSwzNDMuOTE4NyBMODYuMDQxNywzNDIuMTg3NiBMOTUuODMzMywzNDQuMTA4MSBMMTAwLDMzOS45NDE0IEwxMDAuNTEyNiwzMzkuOTQxNCBMOTkuNDE2NCwzMzMuOTMyMyBMOTkuODE2OSwzMjcuOTIzMiBMMTAwLjQsMzIxLjkxNDEgTDk5LjkyMDYsMzE1LjkwNDkgTDEwMCwzMDkuODk1OCBMMTAwLjA0NDcsMzA5Ljk0MDUgTDk3Ljg5NTcsMzA3Ljc5MTYgTDk1Ljk1MDIsMzA1Ljg0NjEgTDkzLjkwNjYsMzAzLjgwMjQgTDkyLjA1MDEsMzAxLjk0NiBMODkuNTgzMywyOTkuNDc5MiBMODkuNTgzMywzMDAuMTAwNSBMODEuMDQxNywzMDAuMTA4MSBMNzIuNSwyOTkuNzE0OSBMNjMuOTU4MywyOTkuOTA4NCBMNTUuNDE2NywzMDAuMTI5NCBMNDYuODc1LDI5OS40NzkyIEw0Mi43MDgzLDMwMy42NDU4ICIgZmlsbD0iIzRENEQ0RCIgc3R5bGU9InN0cm9rZTojRkZGRkZGO3N0cm9rZS13aWR0aDoxLjA0MTY2NjY2NjY2NjY2Njc7Ii8+PHBhdGggZD0iTTg5LjU4MzMsMjk5LjQ3OTIgTDg5Ljc3NzksMjk5LjQ3OTIgTDg5LjE5OTcsMzAwLjcyOTIgTDg5Ljc2MjMsMzAxLjk3OTIgTDg5Ljk1MzQsMzAzLjIyOTIgTDg4LjkyMjgsMzA0LjQ3OTIgTDg5LjU4MzMsMzA1LjcyOTIgTDkzLjc1LDMwOS44OTU4IEw5My43NSwzMDkuODIzOSBMOTUsMzA5LjUwMDkgTDk2LjI1LDMwOS41NDA3IEw5Ny41LDMwOS44MzI3IEw5OC43NSwzMDkuMjU1NyBMMTAwLDMwOS44OTU4ICIgZmlsbD0iIzRENEQ0RCIgc3R5bGU9InN0cm9rZTojRkZGRkZGO3N0cm9rZS13aWR0aDoxLjA0MTY2NjY2NjY2NjY2Njc7Ii8+PHRleHQgZmlsbD0iI0ZGRkZGRiIgZm9udC1mYW1pbHk9IiZxdW90O1NlZ29lIFByaW50JnF1b3Q7IiBmb250LXNpemU9IjEyLjUiIGxlbmd0aEFkanVzdD0ic3BhY2luZyIgdGV4dExlbmd0aD0iMjYuMDQxNyIgeD0iNTguMzMzMyIgeT0iMzI2LjkyMDYiPmZpbGU8L3RleHQ+PC9nPjwhLS1NRDU9WzE4YjcyYmY1ZDE4MzgzMTZiM2Q4NTI2MWQyYjQyY2NlXQplbnRpdHkgZm9sZGVyLS0+PGcgaWQ9ImVsZW1fZm9sZGVyIj48cGF0aCBkPSJNMTQxLjE0NTgsMjkwLjEwNDIgTDE0MS4xNDU4LDI5MC4yOTg4IEwxNDkuMDYyNSwyODkuNzIwNSBMMTU2Ljk3OTIsMjkwLjI4MzEgTDE2NC44OTU4LDI5MC40NzQyIEwxNzIuODEyNSwyODkuNDQzNiBMMTgwLjcyOTIsMjkwLjEwNDIgTDE4NC44OTU4LDI5NC4yNzA4IEwxODQuODI5MywyOTQuMjQzNCBMMTg1Ljk4OSwyOTcuNjYyMSBMMTg3LjQ4NDIsMzAxLjIxOSBMMTg5LjIxMjUsMzA0Ljg3MTggTDE5MC4xMzcyLDMwOC4xOTM4IEwxOTIuMTg3NSwzMTEuOTc5MiBMMTkyLjE4NzUsMzEyLjQ5MTggTDE5Ni45NzkyLDMxMS4zOTU2IEwyMDEuNzcwOCwzMTEuNzk2IEwyMDYuNTYyNSwzMTIuMzc5MSBMMjExLjM1NDIsMzExLjg5OTcgTDIxNi4xNDU4LDMxMS45NzkyIEwyMjAuMzEyNSwzMTYuMTQ1OCBMMjIwLjM3NTcsMzE2LjE0NTggTDIyMC4yODI5LDMyMi43Nzk5IEwyMjAuNDc3OCwzMjkuNDE0MSBMMjIwLjUzMzksMzM2LjA0ODIgTDIyMC44NTQ4LDM0Mi42ODIzIEwyMjAuMzEyNSwzNDkuMzE2NCBMMjE2LjE0NTgsMzUzLjQ4MzEgTDIxNi4xNDU4LDM1NS4zNDcxIEwyMDUuNDMxNSwzNTUuMzY5OSBMMTk0LjcxNzMsMzU0LjE5MDQgTDE4NC4wMDMsMzU0Ljc3MDggTDE3My4yODg3LDM1NS40MzM3IEwxNjIuNTc0NCwzNTEuNDc5OCBMMTUxLjg2MDEsMzU1LjM2NzggTDE0MS4xNDU4LDM1My40ODMxIEwxMzYuOTc5MiwzNDkuMzE2NCBMMTM2LjE1NTUsMzQ5LjMxNjQgTDEzOC40NjIsMzM4LjMwNzMgTDEzNS42MDQxLDMyNy4yOTgyIEwxMzYuNzg4OSwzMTYuMjg5MSBMMTM5LjAzOTIsMzA1LjI3OTkgTDEzNi45NzkyLDI5NC4yNzA4IEwxNDEuMTQ1OCwyOTAuMTA0MiAiIGZpbGw9IiM2NjY2NjYiIHN0eWxlPSJzdHJva2U6I0ZGQzEwNztzdHJva2Utd2lkdGg6Mi4wODMzMzMzMzMzMzMzMzM1OyIvPjxwYXRoIGQ9Ik0xMzYuOTc5MiwzMTEuOTc5MiBMMTM2Ljk3OTIsMzEyLjI3MTEgTDE0OC4wMjA4LDMxMS40MDM3IEwxNTkuMDYyNSwzMTIuMjQ3NiBMMTcwLjEwNDIsMzEyLjUzNDMgTDE4MS4xNDU4LDMxMC45ODgzIEwxOTIuMTg3NSwzMTEuOTc5MiAiIGZpbGw9IiM2NjY2NjYiIHN0eWxlPSJzdHJva2U6I0ZGQzEwNztzdHJva2Utd2lkdGg6Mi4wODMzMzMzMzMzMzMzMzM1OyIvPjx0ZXh0IGZpbGw9IiNGRkMxMDciIGZvbnQtZmFtaWx5PSImcXVvdDtTZWdvZSBQcmludCZxdW90OyIgZm9udC1zaXplPSIxMi41IiBsZW5ndGhBZGp1c3Q9InNwYWNpbmciIHRleHRMZW5ndGg9IjQxLjY2NjciIHg9IjE1Mi42MDQyIiB5PSIzMzYuMjk1NiI+Zm9sZGVyPC90ZXh0PjwvZz48IS0tTUQ1PVs3YTY0MTc3M2NmY2EyNjgyZTUxZGFhMDFlYjk2OWZmYV0KZW50aXR5IGZyYW1lLS0+PGcgaWQ9ImVsZW1fZnJhbWUiPjxwb2x5Z29uIGZpbGw9IiM2NjY2NjYiIHBvaW50cz0iMjYxLjQ1ODMsMjk0LjI3MDgsMjYxLjQ1ODMsMjk0LjQ4OTgsMjcxLjIyNCwyOTMuODM5MiwyODAuOTg5NiwyOTQuNDcyMiwyOTAuNzU1MiwyOTQuNjg3MiwzMDAuNTIwOCwyOTMuNTI3NywzMTAuMjg2NSwyOTQuMTg5OSwzMjAuMDUyMSwyOTMuODI2NiwzMjkuODE3NywyOTMuODcxNCwzMzkuNTgzMywyOTQuMjcwOCwzMzkuNTc0MywyOTQuMjQ5LDM0MC4wODA3LDI5NC4yOTMxLDM0MC44MzU0LDI5NC45MzY2LDM0MS4yNjc0LDI5NC44MDA5LDM0MS45MTQxLDI5NS4xODM3LDM0Mi41Mjk2LDI5NS40OTEyLDM0Mi42NjgyLDI5NS41NDg2LDM0Mi43NDYyLDI5Ni4wNjkxLDM0My4wMzk3LDI5Ni42Nzg4LDM0My4yNTE2LDI5Ny4yNTQ3LDM0My41NjMyLDI5Ny44NzIsMzQzLjc1LDI5OC40Mzc1LDM0My44MzMsMjk4LjQzNzUsMzQzLjk1MzQsMzA3Ljc3OTksMzQzLjk4MywzMTcuMTIyNCwzNDMuOTg1OSwzMjYuNDY0OCwzNDMuODM4NCwzMzUuODA3MywzNDMuNzUsMzQ1LjE0OTcsMzQzLjg5ODcsMzQ1LjIxMTMsMzQzLjczMTIsMzQ1LjgzMjMsMzQzLjAzMDUsMzQ2LjIzMjQsMzQzLjIzNTQsMzQ3LjAwNzcsMzQyLjY3ODYsMzQ3LjQ2NzQsMzQyLjUyOTYsMzQ4LjA5NiwzNDIuNjAwNSwzNDguMjY3MywzNDEuODc0NiwzNDguMTgxMywzNDEuMzQyLDM0OC41NjIyLDM0MC44NjA0LDM0OS4wNjYyLDM0MC4xNjYxLDM0OS4wNTY3LDMzOS41ODMzLDM0OS4zMTY0LDMzOS41ODMzLDM0OS40MjYxLDMyOS44MTc3LDM0OS42NjkxLDMyMC4wNTIxLDM0OS43NSwzMTAuMjg2NSwzNDkuMzEyMywzMDAuNTIwOCwzNDkuNjE1NiwyOTAuNzU1MiwzNDguNzIwMSwyODAuOTg5NiwzNDkuNjEyNiwyNzEuMjI0LDM0OS44ODc0LDI2MS40NTgzLDM0OS4zMTY0LDI2MS41MTc0LDM0OS40NTksMjYwLjk1MDUsMzQ5LjI2OSwyNjAuMjE1NiwzNDguNjczMywyNTkuNjAzOSwzNDguMzc1LDI1OS4wMTg3LDM0OC4xNDA4LDI1OC41MTIxLDM0OC4wOTYsMjU4LjQ5MzIsMzQ4LjA4ODIsMjU4LjIwNDksMzQ3LjQ4MDYsMjU4LjI0MjUsMzQ3LjAwOCwyNTcuNzIzOCwzNDYuMzA1LDI1Ny40MjU3LDM0NS42OTM0LDI1Ny4yOTE3LDM0NS4xNDk3LDI1Ny4zNzA5LDM0NS4xNDk3LDI1Ny4wNjAxLDMzNS44MDczLDI1Ny4xMTE0LDMyNi40NjQ4LDI1Ny41MTcsMzE3LjEyMjQsMjU3LjQ0MjksMzA3Ljc3OTksMjU3LjI5MTcsMjk4LjQzNzUsMjU3LjUyNzMsMjk4LjUzNTEsMjU3LjQzMjUsMjk3LjgwNTUsMjU3Ljg4MjIsMjk3LjMwMTQsMjU4LjIxMzMsMjk2Ljc0ODIsMjU4LjExNjQsMjk2LjAxNzcsMjU4LjUxMjEsMjk1LjQ5MTIsMjU4LjQ5OTMsMjk1LjQ2MDUsMjU5LjExODEsMjk1LjI4NzYsMjU5Ljc3NzIsMjk1LjIxMjEsMjYwLjI3OTMsMjk0Ljc1NzYsMjYwLjkzMDUsMjk0LjY2MzMsMjYxLjQ1ODMsMjk0LjI3MDgiIHN0eWxlPSJzdHJva2U6IzE3QTJCODtzdHJva2Utd2lkdGg6Mi4wODMzMzMzMzMzMzMzMzM1OyIvPjxwYXRoIGQ9Ik0yODYuMTExMSwyOTQuMjcwOCBMMjg2LjMwNTcsMjk0LjI3MDggTDI4NS43Mjc1LDI5NS4zMTI1IEwyODYuMjkwMSwyOTYuMzU0MiBMMjg2LjQ4MTIsMjk3LjM5NTggTDI4NS40NTA2LDI5OC40Mzc1IEwyODYuMTExMSwyOTkuNDc5MiBMMjg2LjA2MDIsMjk5LjQyODMgTDI4NC4zNzM1LDMwMC42NTgzIEwyODIuOTQzNCwzMDIuMTQ0NyBMMjgxLjY5MTUsMzAzLjgwOTUgTDI3OS44MjUxLDMwNC44NTk4IEwyNzguODE5NCwzMDYuNzcwOCBMMjc4LjgxOTQsMzA3LjI4MzUgTDI3NC41MTM5LDMwNi4xODcyIEwyNzAuMjA4MywzMDYuNTg3NyBMMjY1LjkwMjgsMzA3LjE3MDggTDI2MS41OTcyLDMwNi42OTE0IEwyNTcuMjkxNywzMDYuNzcwOCAiIGZpbGw9Im5vbmUiIHN0eWxlPSJzdHJva2U6IzE3QTJCODtzdHJva2Utd2lkdGg6Mi4wODMzMzMzMzMzMzMzMzM1OyIvPjx0ZXh0IGZpbGw9IiMxN0EyQjgiIGZvbnQtZmFtaWx5PSImcXVvdDtTZWdvZSBQcmludCZxdW90OyIgZm9udC1zaXplPSIxMi41IiBsZW5ndGhBZGp1c3Q9InNwYWNpbmciIHRleHRMZW5ndGg9IjM0LjM3NSIgeD0iMjc4LjEyNSIgeT0iMzMyLjEyODkiPmZyYW1lPC90ZXh0PjwvZz48IS0tTUQ1PVtlYTQxMjhlMWI1ZGI2MjAwYTEwMTkzYjgwMTVjZGU2M10KZW50aXR5IGludGVyZmFjZS0tPjxnIGlkPSJlbGVtX2ludGVyZmFjZSI+PHBvbHlnb24gZmlsbD0iI0M2MzAzRSIgcG9pbnRzPSI0MzIuODU4NSwzMjMuOTAyLDQzMS42MzcsMzI1LjU3MTEsNDMwLjE5MjIsMzI4LjAxNTcsNDI4LjEyNTgsMzI5LjY2MzIsNDI1Ljk1NDUsMzMwLjU2NDEsNDI0LjIyMzEsMzMwLjY0MjMsNDIxLjk5NzksMzI5LjUxNTYsNDE5Ljg5ODIsMzI4Ljc3OTUsNDE4LjMwNDYsMzI3LjI4NSw0MTcuNDY4NiwzMjUuNTc0MSw0MTYuOTcyOSwzMjQuMjExOCw0MTYuNDg3MiwzMjIuNDMyMyw0MTUuNjk4OSwzMjAuOTAxMSw0MTYuMzA0NiwzMTkuNDA2MSw0MTYuODM1NCwzMTcuNzY4NCw0MTguODI3MSwzMTYuNDczMSw0MjAuMjI4NCwzMTQuNzkyNSw0MjEuOTYyOCwzMTQuMjM0NCw0MjQuMDI0NywzMTMuNzUzOCw0MjYuNjY4OSwzMTQuMDM5NCw0MjguMTE3MSwzMTQuNzIyNCw0MjkuODAwOSwzMTUuMDMyLDQzMS44NDgyLDMxNy4xMjk1LDQzMi41NjE5LDMxOS4zNDM5LDQzMi44NzIsMzIwLjg1NDgsNDMyLjUyMDgsMzIzLjM0NDYiIHN0eWxlPSJzdHJva2U6I0RDMzU0NTtzdHJva2Utd2lkdGg6MS4wNDE2NjY2NjY2NjY2NjY3OyIvPjx0ZXh0IGZpbGw9IiM1NTU1NTUiIGZvbnQtZmFtaWx5PSImcXVvdDtTZWdvZSBQcmludCZxdW90OyIgZm9udC1zaXplPSIxMi41IiBsZW5ndGhBZGp1c3Q9InNwYWNpbmciIHRleHRMZW5ndGg9IjYxLjQ1ODMiIHg9IjM5My43NSIgeT0iMzU2LjYwODEiPmludGVyZmFjZTwvdGV4dD48L2c+PCEtLU1ENT1bMGI3MGQ1MWJkZDAyODAyMmY1MTAxYzA4OWNmZGQ5OGVdCmVudGl0eSBub2RlLS0+PGcgaWQ9ImVsZW1fbm9kZSI+PHBvbHlnb24gZmlsbD0iIzU1NTU1NSIgcG9pbnRzPSI1MDQuNjg3NSwzMDQuNjg3NSw1MDQuNzM5MSwzMDQuNzM5MSw1MDYuNjY5MSwzMDIuNTAyNCw1MDguOTAxNiwzMDAuNTY4Myw1MTEuMDM1NiwyOTguNTM1Niw1MTIuODQ1NywyOTYuMTc5LDUxNS4xMDQyLDI5NC4yNzA4LDUxNS4xMDQyLDI5NC4xODk5LDUyNS4yMjMyLDI5My44MjY2LDUzNS4zNDIzLDI5My44NzE0LDU0NS40NjEzLDI5NC4xOTk4LDU1NS41ODA0LDI5My41NTA3LDU2NS42OTk0LDI5NC44NDc1LDU3NS44MTg1LDI5My42MTQzLDU4NS45Mzc1LDI5NC4yNzA4LDU4NS44Njg4LDI5NC4yNzA4LDU4Ni4wODc1LDMwMy4xOTY2LDU4NS45MDc3LDMxMi4xMjI0LDU4NS45NjEyLDMyMS4wNDgyLDU4NS45MjY0LDMyOS45NzQsNTg1LjkzNzUsMzM4Ljg5OTcsNTg1Ljk4MTMsMzM4Ljk0MzYsNTgzLjkxMjksMzQxLjA0MTgsNTgxLjkxNDYsMzQzLjIxMDIsNTc5Ljg1MjMsMzQ1LjMxNDUsNTc3Ljc3MDksMzQ3LjM5OTgsNTc1LjUyMDgsMzQ5LjMxNjQsNTc1LjUyMDgsMzQ5LjU4MTYsNTY1LjQwMTgsMzQ5Ljc5OTMsNTU1LjI4MjcsMzUwLjA0NzksNTQ1LjE2MzcsMzQ4LjU2NTIsNTM1LjA0NDYsMzUwLjAyMzIsNTI0LjkyNTYsMzQ5LjAwNzUsNTE0LjgwNjUsMzQ5Ljg3MjUsNTA0LjY4NzUsMzQ5LjMxNjQsNTA0LjUxNTYsMzQ5LjMxNjQsNTA0LjY2MzcsMzQwLjM5MDYsNTA0Ljk0NSwzMzEuNDY0OCw1MDQuNjcwNiwzMjIuNTM5MSw1MDQuNzI0MSwzMTMuNjEzMyw1MDQuNjg3NSwzMDQuNjg3NSIgc3R5bGU9InN0cm9rZTojRkZGRkZGO3N0cm9rZS13aWR0aDoxLjA0MTY2NjY2NjY2NjY2Njc7Ii8+PHBhdGggZD0iTTU3NS41MjA4LDMwNC42ODc1IEw1NzUuNTg5NiwzMDQuNzU2MyBMNTc3LjQ2ODUsMzAyLjQ2ODUgTDU3OS43NTA4LDMwMC41ODQxIEw1ODEuOTAxNywyOTguNTY4MyBMNTgzLjYyMDYsMjk2LjEyMDYgTDU4NS45Mzc1LDI5NC4yNzA4ICIgZmlsbD0iIzU1NTU1NSIgc3R5bGU9InN0cm9rZTojRkZGRkZGO3N0cm9rZS13aWR0aDoxLjA0MTY2NjY2NjY2NjY2Njc7Ii8+PHBhdGggZD0iTTUwNC42ODc1LDMwNC42ODc1IEw1MDQuNjg3NSwzMDQuOTc5NCBMNTE0LjgwNjUsMzA0LjExMjEgTDUyNC45MjU2LDMwNC45NTYgTDUzNS4wNDQ2LDMwNS4yNDI2IEw1NDUuMTYzNywzMDMuNjk2NyBMNTU1LjI4MjcsMzA0LjU3OTYgTDU2NS40MDE4LDMwNC4wOTUxIEw1NzUuNTIwOCwzMDQuNjg3NSAiIGZpbGw9IiM1NTU1NTUiIHN0eWxlPSJzdHJva2U6I0ZGRkZGRjtzdHJva2Utd2lkdGg6MS4wNDE2NjY2NjY2NjY2NjY3OyIvPjxwYXRoIGQ9Ik01NzUuNTIwOCwzMDQuNjg3NSBMNTc1LjYxODEsMzA0LjY4NzUgTDU3NS4zMjksMzEzLjYxMzMgTDU3NS42MTAzLDMyMi41MzkxIEw1NzUuNzA1OSwzMzEuNDY0OCBMNTc1LjE5MDYsMzQwLjM5MDYgTDU3NS41MjA4LDM0OS4zMTY0ICIgZmlsbD0iIzU1NTU1NSIgc3R5bGU9InN0cm9rZTojRkZGRkZGO3N0cm9rZS13aWR0aDoxLjA0MTY2NjY2NjY2NjY2Njc7Ii8+PHRleHQgZmlsbD0iI0ZGRkZGRiIgZm9udC1mYW1pbHk9IiZxdW90O1NlZ29lIFByaW50JnF1b3Q7IiBmb250LXNpemU9IjEyLjUiIGxlbmd0aEFkanVzdD0ic3BhY2luZyIgdGV4dExlbmd0aD0iMjkuMTY2NyIgeD0iNTI1LjUyMDgiIHk9IjMzMi4xMjg5Ij5ub2RlPC90ZXh0PjwvZz48IS0tTUQ1PVsxOGI0YzIyMGYxN2FmYTJmYTFiNzkwOWYxMjU5ZjI3ZV0KZW50aXR5IHBhY2thZ2UtLT48ZyBpZD0iZWxlbV9wYWNrYWdlIj48cGF0aCBkPSJNMjMuOTU4Myw0MjAuODMzMyBMMjMuOTU4Myw0MjEuNDE3MiBMMzMuOTI4Niw0MTkuNjgyNCBMNDMuODk4OCw0MjEuMzcwMiBMNTMuODY5LDQyMS45NDM2IEw2My44MzkzLDQxOC44NTE3IEw3My44MDk1LDQyMC42MTc1IEw4My43Nzk4LDQxOS42NDg2IEw5My43NSw0MjAuODMzMyBMOTcuOTE2Nyw0MjUgTDk3LjU3NDksNDI0LjkwMzcgTDk5LjMxNDMsNDMwLjE1ODcgTDEwMC4yMTcyLDQzNS4xNzggTDEwMi43ODUxLDQ0MC42NjY0IEwxMDMuMTg4Myw0NDUuNTQ0OSBMMTA1LjIwODMsNDUwLjg3ODkgTDEwNS4yMDgzLDQ1MC42OTU4IEwxMDcuOTE2Nyw0NTEuMjc4OSBMMTEwLjYyNSw0NTAuNzk5NSBMMTEzLjMzMzMsNDUwLjk0MjEgTDExNi4wNDE3LDQ1MC44NDkzIEwxMTguNzUsNDUwLjg3ODkgTDEyMi45MTY3LDQ1NS4wNDU2IEwxMjMuMDgyLDQ1NS4wNDU2IEwxMjMuMTM4MSw0NTYuOTIwNiBMMTIzLjQ1OSw0NTguNzk1NiBMMTIzLjUzOCw0NjAuNjcwNiBMMTIzLjU0NTYsNDYyLjU0NTYgTDEyMi45MTY3LDQ2NC40MjA2IEwxMTguNzUsNDY4LjU4NzIgTDExOC43NSw0NjkuMjk0NSBMMTA4LjIxNzYsNDY5Ljg3NSBMOTcuNjg1Miw0NzAuNTM3OSBMODcuMTUyOCw0NjYuNTgzOSBMNzYuNjIwNCw0NzAuNDcyIEw2Ni4wODgsNDY3Ljc2MzYgTDU1LjU1NTYsNDcwLjA3MDEgTDQ1LjAyMzEsNDY3LjIxMjIgTDM0LjQ5MDcsNDY4LjM5NyBMMjMuOTU4Myw0NjguNTg3MiBMMTkuNzkxNyw0NjQuNDIwNiBMMjAuNDc4Myw0NjQuNDIwNiBMMTkuNzQ2NSw0NTYuNTM2NSBMMTkuODg5Miw0NDguNjUyMyBMMjAuMTA1Miw0NDAuNzY4MiBMMjAuMTc3MSw0MzIuODg0MSBMMTkuNzkxNyw0MjUgTDIzLjk1ODMsNDIwLjgzMzMgIiBmaWxsPSIjNTU1NTU1IiBzdHlsZT0ic3Ryb2tlOiMzMzMzMzM7c3Ryb2tlLXdpZHRoOjIuMDgzMzMzMzMzMzMzMzMzNTsiLz48cGF0aCBkPSJNMTkuNzkxNyw0NTAuODc4OSBMMTkuNzkxNyw0NTEuMTcwOCBMMzAuNDY4OCw0NTAuMzAzNSBMNDEuMTQ1OCw0NTEuMTQ3NCBMNTEuODIyOSw0NTEuNDM0IEw2Mi41LDQ0OS44ODgxIEw3My4xNzcxLDQ1MC43NzEgTDgzLjg1NDIsNDUwLjI4NjYgTDk0LjUzMTMsNDUwLjM0NjMgTDEwNS4yMDgzLDQ1MC44Nzg5ICIgZmlsbD0iIzU1NTU1NSIgc3R5bGU9InN0cm9rZTojMzMzMzMzO3N0cm9rZS13aWR0aDoyLjA4MzMzMzMzMzMzMzMzMzU7Ii8+PHRleHQgZmlsbD0iIzMzMzMzMyIgZm9udC1mYW1pbHk9IiZxdW90O1NlZ29lIFByaW50JnF1b3Q7IiBmb250LXNpemU9IjEyLjUiIGxlbmd0aEFkanVzdD0ic3BhY2luZyIgdGV4dExlbmd0aD0iNDguOTU4MyIgeD0iMzUuNDE2NyIgeT0iNDQwLjk4MzEiPnBhY2thZ2U8L3RleHQ+PC9nPjwhLS1NRDU9Wzc5OWU5NTQzOTc1MDc2MzkwZDJhNmNlYWZlYzhkZjZjXQplbnRpdHkgcXVldWUtLT48ZyBpZD0iZWxlbV9xdWV1ZSI+PHBhdGggZD0iTTE2NC41ODMzLDQyNy42MDQyIEwxNjQuNTgzMyw0MjguMTg4IEwxNzQuMTMxOSw0MjYuNDUzMyBMMTgzLjY4MDYsNDI4LjE0MTEgTDE5My4yMjkyLDQyOC43MTQ0IEwyMDIuNzc3OCw0MjUuNjIyNSBMMjEyLjMyNjQsNDI3LjM4ODMgTDIyMS44NzUsNDI3LjYwNDIgTDIyMS44NzUsNDI3LjYwNDIgTDIyMS42ODYxLDQyNy41NDY3IEwyMjIuNzQ2OCw0MzAuOTczNyBMMjIzLjkyODEsNDM0LjQzNzQgTDIyNC42OTM4LDQzNy43NzQ2IEwyMjYuMjg2OSw0NDEuMzYzNyBMMjI3LjA4MzMsNDQ0LjcxMDMgTDIyNy4wODMzLDQ0NC43MTAzIEwyMjYuODA0Miw0NDQuNjI1MyBMMjI1Ljk1NDEsNDQ4LjEwNDggTDIyNS4xOTEzLDQ1MS42MTEgTDIyMy45MjAzLDQ1NC45NjI0IEwyMjIuOTQ2OSw0NTguNDA0NCBMMjIxLjg3NSw0NjEuODE2NCBMMjIxLjg3NSw0NjEuNzI3NyBMMjEyLjMyNjQsNDYyLjMxMjMgTDIwMi43Nzc4LDQ2Mi40ODA3IEwxOTMuMjI5Miw0NjMuNDQzMyBMMTgzLjY4MDYsNDYzLjY4MDQgTDE3NC4xMzE5LDQ2My43MDMyIEwxNjQuNTgzMyw0NjEuODE2NCBMMTY0LjU4MzMsNDYxLjgxNjQgTDE2NC42OTYxLDQ2MS44NTA3IEwxNjMuNzQ3LDQ1OC40NTc3IEwxNjIuODExLDQ1NS4wNjg3IEwxNjEuMTM4OSw0NTEuNDU1NSBMMTYwLjcxNzIsNDQ4LjIyMyBMMTU5LjM3NSw0NDQuNzEwMyBMMTU5LjM3NSw0NDQuNzEwMyBMMTU5LjI0MzcsNDQ0LjY3MDMgTDE2MC42NTMxLDQ0MS4zNjEgTDE2MS4yMzkxLDQzNy44MDExIEwxNjIuNDY5Nyw0MzQuNDM3NCBMMTYzLjg3MDEsNDMxLjEyNTQgTDE2NC41ODMzLDQyNy42MDQyICIgZmlsbD0iIzQ3NDc0NyIgc3R5bGU9InN0cm9rZTojMzMzMzMzO3N0cm9rZS13aWR0aDoxLjA0MTY2NjY2NjY2NjY2Njc7Ii8+PHBhdGggZD0iTTIyMS44NzUsNDI3LjYwNDIgTDIyMS44NzUsNDI3LjYwNDIgTDIyMS45NjgxLDQyNy42MzI1IEwyMjAuNjQ5OCw0MzAuOTY5NSBMMjE5Ljg3NzMsNDM0LjQ3MjcgTDIxOC45MjcsNDM3LjkyMTcgTDIxNy4zOTI0LDQ0MS4xOTI5IEwyMTYuNjY2Nyw0NDQuNzEwMyBMMjE2LjY2NjcsNDQ0LjcxMDMgTDIxNi42MzIyLDQ0NC42OTk4IEwyMTcuNTE5NCw0NDguMDc0IEwyMTguNTgwMiw0NTEuNTAxIEwyMTkuNzYxNSw0NTQuOTY0OCBMMjIwLjUyNzEsNDU4LjMwMiBMMjIxLjg3NSw0NjEuODE2NCAiIGZpbGw9Im5vbmUiIHN0eWxlPSJzdHJva2U6IzMzMzMzMztzdHJva2Utd2lkdGg6MS4wNDE2NjY2NjY2NjY2NjY3OyIvPjx0ZXh0IGZpbGw9IiNGRkZGRkYiIGZvbnQtZmFtaWx5PSImcXVvdDtTZWdvZSBQcmludCZxdW90OyIgZm9udC1zaXplPSIxMi41IiBsZW5ndGhBZGp1c3Q9InNwYWNpbmciIHRleHRMZW5ndGg9IjM2LjQ1ODMiIHg9IjE2OS43OTE3IiB5PSI0NDkuODM3MiI+cXVldWU8L3RleHQ+PC9nPjwhLS1NRDU9W2Y3MWUxOTI5ZWNlYjQ4NmJlMTMyYTUzMzNkYzRjNjhkXQplbnRpdHkgc3RhY2stLT48ZyBpZD0iZWxlbV9zdGFjayI+PHBvbHlnb24gZmlsbD0iIzQ3NDc0NyIgcG9pbnRzPSIyODMuODU0Miw0MjIuMzk1OCwyODMuODU0Miw0MjIuNjE0OCwyOTUuMTA0Miw0MjEuOTY0MiwzMDYuMzU0Miw0MjIuNTk3MiwzMTcuNjA0Miw0MjIuODEyMiwzMjguODU0Miw0MjEuNjUyNywzNDAuMTA0Miw0MjIuMzk1OCwzNDAuMDkzOCw0MjIuMzcwOSwzNDAuNjM2OCw0MjIuNTAzMSwzNDEuMjMxNyw0MjIuNzYxLDM0MS44NjI5LDQyMy4xMDYyLDM0Mi4zNjkzLDQyMy4xNTA0LDM0My4wNTA0LDQyMy42MTYyLDM0My4yMjgsNDIzLjY4OTgsMzQzLjA5MjMsNDI0LjEyMTcsMzQzLjQ3NTIsNDI0Ljc2ODUsMzQzLjkyMTIsNDI1LjQ0MTQsMzQzLjk5OTIsNDI1Ljk2MTgsMzQ0LjI3MDgsNDI2LjU2MjUsMzQ0LjI5NDUsNDI2LjU2MjUsMzQ0LjI1OTcsNDMzLjgyMTYsMzQ0LjMzMjgsNDQxLjA4MDcsMzQ0LjM1MzksNDQ4LjMzOTgsMzQ0LjQ3NDIsNDU1LjU5OSwzNDQuMjcwOCw0NjIuODU4MSwzNDQuNDg2MSw0NjIuOTQ3MiwzNDQuMjQ0Nyw0NjMuNTM3NiwzNDMuODY0NCw0NjQuMDcwNCwzNDMuNjg3Myw0NjQuNjg3NCwzNDMuNTE5OCw0NjUuMzA4NCwzNDMuMDUwNCw0NjUuODA0NCwzNDIuOTU0Niw0NjUuNTczLDM0Mi41NTEzLDQ2Ni4yNjYxLDM0MS44MzI1LDQ2Ni4xOTc0LDM0MS4zNTM2LDQ2Ni43MDc4LDM0MC42Mjc2LDQ2Ni42MjE5LDM0MC4xMDQyLDQ2Ny4wMjQ3LDM0MC4xMDQyLDQ2Ni45NTM0LDMyOC44NTQyLDQ2Ny43OTcyLDMxNy42MDQyLDQ2Ni45NzQsMzA2LjM1NDIsNDY3LjEzNDQsMjk1LjEwNDIsNDY3LjM3NzUsMjgzLjg1NDIsNDY3LjAyNDcsMjgzLjkwOTUsNDY3LjE1ODMsMjgzLjI2NDQsNDY2Ljc3OTQsMjgyLjcxMzgsNDY2LjYyODcsMjgyLjAxMDMsNDY2LjEwODksMjgxLjUzNDksNDY2LjEzOTcsMjgwLjkwNzksNDY1LjgwNDQsMjgxLjA4MzcsNDY1Ljg3NzIsMjgwLjgwNjQsNDY1LjI3NDIsMjgwLjYxNjQsNDY0LjcwNzMsMjgwLjAyMDcsNDYzLjk3MjQsMjc5LjcyMjQsNDYzLjM2MDcsMjc5LjY4NzUsNDYyLjg1ODEsMjc5LjQ3MTcsNDYyLjg1ODEsMjc5LjY2NzEsNDU1LjU5OSwyNzkuNjE5Myw0NDguMzM5OCwyNzkuOTI0MSw0NDEuMDgwNywyNzkuNjI2OCw0MzMuODIxNiwyNzkuNjg3NSw0MjYuNTYyNSwyNzkuNTc3NSw0MjYuNTE2OSwyODAuMDA0OCw0MjYuMDAzNiwyNzkuOTYxNyw0MjUuMjk1NCwyODAuMjUzMiw0MjQuNzI1OCwyODAuODcyLDQyNC4yOTE3LDI4MC45MDc5LDQyMy42MTYyLDI4MC45NjU4LDQyMy43NTYsMjgxLjU5NDcsNDIzLjYwNzgsMjgyLjA0MzYsNDIzLjAyNDgsMjgyLjcxODEsNDIyLjk4NjQsMjgzLjM0MzQsNDIyLjgyOTMsMjgzLjg1NDIsNDIyLjM5NTgiIHN0eWxlPSJzdHJva2U6bm9uZTtzdHJva2Utd2lkdGg6MS4wNDE2NjY2NjY2NjY2NjY3OyIvPjxwYXRoIGQ9Ik0yNjQuMDYyNSw0MjIuMzk1OCBMMjY0LjA2MjUsNDIyLjU5MDQgTDI2Ni4zNTQyLDQyMi4wMTIyIEwyNjguNjQ1OCw0MjIuNTc0OCBMMjcwLjkzNzUsNDIyLjc2NTkgTDI3My4yMjkyLDQyMS43MzUzIEwyNzUuNTIwOCw0MjIuMzk1OCBMMjc5LjY4NzUsNDI2LjU2MjUgTDI3OS42MTU1LDQyNi41NjI1IEwyNzkuMjkyNiw0MzMuODIxNiBMMjc5LjMzMjQsNDQxLjA4MDcgTDI3OS42MjQ0LDQ0OC4zMzk4IEwyNzkuMDQ3Myw0NTUuNTk5IEwyNzkuNjg3NSw0NjIuODU4MSBMMjgzLjg1NDIsNDY3LjAyNDcgTDI4My44NTQyLDQ2OC41NjI2IEwyOTUuMTA0Miw0NjUuMjc0IEwzMDYuMzU0Miw0NjYuNDc1NCBMMzE3LjYwNDIsNDY4LjIyNDYgTDMyOC44NTQyLDQ2Ni43ODY1IEwzNDAuMTA0Miw0NjcuMDI0NyBMMzQ0LjI3MDgsNDYyLjg1ODEgTDM0NC4zMzQsNDYyLjg1ODEgTDM0NC4yNDEzLDQ1NS41OTkgTDM0NC40MzYxLDQ0OC4zMzk4IEwzNDQuNDkyMyw0NDEuMDgwNyBMMzQ0LjgxMzEsNDMzLjgyMTYgTDM0NC4yNzA4LDQyNi41NjI1IEwzNDguNDM3NSw0MjIuMzk1OCBMMzQ4LjQzNzUsNDIzLjAxNzIgTDM1MC43MjkyLDQyMy4wMjQ4IEwzNTMuMDIwOCw0MjIuNjMxNiBMMzU1LjMxMjUsNDIyLjgyNTEgTDM1Ny42MDQyLDQyMy4wNDYgTDM1OS44OTU4LDQyMi4zOTU4ICIgZmlsbD0ibm9uZSIgc3R5bGU9InN0cm9rZTojMzMzMzMzO3N0cm9rZS13aWR0aDoxLjA0MTY2NjY2NjY2NjY2Njc7Ii8+PHRleHQgZmlsbD0iI0ZGRkZGRiIgZm9udC1mYW1pbHk9IiZxdW90O1NlZ29lIFByaW50JnF1b3Q7IiBmb250LXNpemU9IjEyLjUiIGxlbmd0aEFkanVzdD0ic3BhY2luZyIgdGV4dExlbmd0aD0iMzMuMzMzMyIgeD0iMjk1LjMxMjUiIHk9IjQ0OS44MzcyIj5zdGFjazwvdGV4dD48L2c+PCEtLU1ENT1bNzI2N2FhOTU5Mjg2N2IwYzAzZDNjYmRhNmU5MmU3MTldCmVudGl0eSByZWN0YW5nbGUtLT48ZyBpZD0iZWxlbV9yZWN0YW5nbGUiPjxwb2x5Z29uIGZpbGw9IiM2NjY2NjYiIHBvaW50cz0iNDAwLjUyMDgsNDIyLjM5NTgsNDAwLjUyMDgsNDIyLjYxNDgsNDExLjE5NzksNDIxLjk2NDIsNDIxLjg3NSw0MjIuNTk3Miw0MzIuNTUyMSw0MjIuODEyMiw0NDMuMjI5Miw0MjEuNjUyNyw0NTMuOTA2Myw0MjIuMzE0OSw0NjQuNTgzMyw0MjEuOTUxNiw0NzUuMjYwNCw0MjEuOTk2NCw0ODUuOTM3NSw0MjIuMzk1OCw0ODUuOTI4NCw0MjIuMzc0LDQ4Ni40MzQ5LDQyMi40MTgxLDQ4Ny4xODk2LDQyMy4wNjE2LDQ4Ny42MjE1LDQyMi45MjU5LDQ4OC4yNjgyLDQyMy4zMDg3LDQ4OC44ODM4LDQyMy42MTYyLDQ4OS4wMjIzLDQyMy42NzM2LDQ4OS4xMDAzLDQyNC4xOTQxLDQ4OS4zOTM4LDQyNC44MDM4LDQ4OS42MDU4LDQyNS4zNzk3LDQ4OS45MTc0LDQyNS45OTcsNDkwLjEwNDIsNDI2LjU2MjUsNDkwLjE4NzIsNDI2LjU2MjUsNDkwLjMwNzUsNDMzLjgyMTYsNDkwLjMzNzIsNDQxLjA4MDcsNDkwLjM0LDQ0OC4zMzk4LDQ5MC4xOTI2LDQ1NS41OTksNDkwLjEwNDIsNDYyLjg1ODEsNDkwLjI1MjksNDYyLjkxOTcsNDkwLjA4NTQsNDYzLjU0MDYsNDg5LjM4NDcsNDYzLjk0MDgsNDg5LjU4OTYsNDY0LjcxNiw0ODkuMDMyNyw0NjUuMTc1Nyw0ODguODgzOCw0NjUuODA0NCw0ODguOTU0Nyw0NjUuOTc1Niw0ODguMjI4Nyw0NjUuODg5Niw0ODcuNjk2Miw0NjYuMjcwNSw0ODcuMjE0Niw0NjYuNzc0NSw0ODYuNTIwMyw0NjYuNzY1LDQ4NS45Mzc1LDQ2Ny4wMjQ3LDQ4NS45Mzc1LDQ2Ny4xMzQ0LDQ3NS4yNjA0LDQ2Ny4zNzc1LDQ2NC41ODMzLDQ2Ny40NTgzLDQ1My45MDYzLDQ2Ny4wMjA3LDQ0My4yMjkyLDQ2Ny4zMjM5LDQzMi41NTIxLDQ2Ni40Mjg1LDQyMS44NzUsNDY3LjMyMSw0MTEuMTk3OSw0NjcuNTk1OCw0MDAuNTIwOCw0NjcuMDI0Nyw0MDAuNTc5OSw0NjcuMTY3Myw0MDAuMDEzLDQ2Ni45NzczLDM5OS4yNzgxLDQ2Ni4zODE2LDM5OC42NjY0LDQ2Ni4wODMzLDM5OC4wODEyLDQ2NS44NDkxLDM5Ny41NzQ2LDQ2NS44MDQ0LDM5Ny41NTU3LDQ2NS43OTY1LDM5Ny4yNjc0LDQ2NS4xODksMzk3LjMwNSw0NjQuNzE2NCwzOTYuNzg2Myw0NjQuMDEzNCwzOTYuNDg4Miw0NjMuNDAxNywzOTYuMzU0Miw0NjIuODU4MSwzOTYuNDMzNCw0NjIuODU4MSwzOTYuMTIyNiw0NTUuNTk5LDM5Ni4xNzM5LDQ0OC4zMzk4LDM5Ni41Nzk1LDQ0MS4wODA3LDM5Ni41MDU0LDQzMy44MjE2LDM5Ni4zNTQyLDQyNi41NjI1LDM5Ni41ODk4LDQyNi42NjAxLDM5Ni40OTUsNDI1LjkzMDUsMzk2Ljk0NDcsNDI1LjQyNjQsMzk3LjI3NTgsNDI0Ljg3MzIsMzk3LjE3ODksNDI0LjE0MjcsMzk3LjU3NDYsNDIzLjYxNjIsMzk3LjU2MTgsNDIzLjU4NTUsMzk4LjE4MDYsNDIzLjQxMjYsMzk4LjgzOTcsNDIzLjMzNzEsMzk5LjM0MTgsNDIyLjg4MjYsMzk5Ljk5Myw0MjIuNzg4Myw0MDAuNTIwOCw0MjIuMzk1OCIgc3R5bGU9InN0cm9rZTojMzMzMzMzO3N0cm9rZS13aWR0aDoyLjA4MzMzMzMzMzMzMzMzMzU7Ii8+PHRleHQgZmlsbD0iI0ZGRkZGRiIgZm9udC1mYW1pbHk9IiZxdW90O1NlZ29lIFByaW50JnF1b3Q7IiBmb250LXNpemU9IjEyLjUiIGxlbmd0aEFkanVzdD0ic3BhY2luZyIgdGV4dExlbmd0aD0iNjIuNSIgeD0iNDExLjk3OTIiIHk9IjQ0OS44MzcyIj5yZWN0YW5nbGU8L3RleHQ+PC9nPjwhLS1NRDU9W2E1YTZhZTBiYTAxYzhhNDU4OWFiMjZiZDMzZTg3YWFkXQplbnRpdHkgc3RvcmFnZS0tPjxnIGlkPSJlbGVtX3N0b3JhZ2UiPjxwb2x5Z29uIGZpbGw9IiNGRkMxMDciIHBvaW50cz0iNTYzLjAyMDgsNDIyLjM5NTgsNTYzLjAyMDgsNDIyLjQ2ODgsNTY0LjY4NzUsNDIyLjI1Miw1NjYuMzU0Miw0MjIuNDYyOSw1NjguMDIwOCw0MjIuNTM0Niw1NjkuNjg3NSw0MjIuMTQ4MSw1NzEuMzU0Miw0MjIuMzk1OCw1NzEuMzQ3NSw0MjIuMzY5Nyw1NzYuNDczOCw0MjMuNTU5NCw1ODEuNjMzNCw0MjQuODgxMSw1ODYuODE2Myw0MjYuMjk0Myw1OTEuOTE5MSw0MjcuMzkxNyw1OTcuMTM0MSw0MjguOTMxNiw1OTcuMjkzMyw0MjkuMDM5Myw1OTkuMDg4NSw0MzEuOTY0Nyw2MDEuMzQ4Niw0MzUuMjA0Niw2MDMuNjY1NCw0MzguNDgyOSw2MDUuNjUyMiw0NDEuNTM3OSw2MDcuODEyNSw0NDQuNzEwMyw2MDcuODMyMSw0NDQuNzIzNiw2MDUuNjY3Niw0NDcuODU5OCw2MDMuNTkyNSw0NTEuMDU2NSw2MDEuNDc0Miw0NTQuMjI0LDU5OS40MzgyLDQ1Ny40NDcyLDU5Ny4xMzQxLDQ2MC40ODksNTk3LjE5MTQsNDYwLjcxNDgsNTkyLjAzNjEsNDYyLjAyNDgsNTg2Ljg0MzksNDYzLjE4OSw1ODEuNzA1Nyw0NjQuNTY2NSw1NzYuNTcwMSw0NjUuOTUzOSw1NzEuMzU0Miw0NjcuMDI0Nyw1NzEuMzU0Miw0NjYuNzc0Myw1NjkuNjg3NSw0NjcuMjYwMyw1NjguMDIwOCw0NjYuOTIxOCw1NjYuMzU0Miw0NjcuMjEwMSw1NjQuNjg3NSw0NjYuODUyOSw1NjMuMDIwOCw0NjcuMDI0Nyw1NjMuMDE1LDQ2Ny4wMDE3LDU1Ny45MjgxLDQ2NS45NjcyLDU1Mi43MDQ3LDQ2NC4zOTQsNTQ3LjU2MTksNDYzLjEzODcsNTQyLjQyNTgsNDYxLjkxMDEsNTM3LjI0MDksNDYwLjQ4OSw1MzcuMzYwNiw0NjAuNTcsNTM1LjEwNDEsNDU3LjMzMjUsNTMzLjA1MjEsNDU0LjIzMzQsNTMwLjY2OTMsNDUwLjkxMDQsNTI4Ljc4LDQ0Ny45MjE0LDUyNi41NjI1LDQ0NC43MTAzLDUyNi43MjAxLDQ0NC44MTcsNTI4LjgyNiw0NDEuNjQxMSw1MzEuMDEwMSw0MzguNTE4MSw1MzIuODMwNiw0MzUuMTQ5MSw1MzQuOTE3Nyw0MzEuOTYwNCw1MzcuMjQwOSw0MjguOTMxNiw1MzcuMTg3OSw0MjguNzIyNCw1NDIuMzkxOSw0MjcuNjA0Niw1NDcuNTM2MSw0MjYuMjUxMSw1NTIuNzY3LDQyNS4yMzk1LDU1Ny44NDk5LDQyMy42NDQyLDU2My4wMjA4LDQyMi4zOTU4IiBzdHlsZT0ic3Ryb2tlOiNFNkFFMDY7c3Ryb2tlLXdpZHRoOjEuMDQxNjY2NjY2NjY2NjY2NzsiLz48dGV4dCBmaWxsPSIjRkZGRkZGIiBmb250LWZhbWlseT0iJnF1b3Q7U2Vnb2UgUHJpbnQmcXVvdDsiIGZvbnQtc2l6ZT0iMTIuNSIgbGVuZ3RoQWRqdXN0PSJzcGFjaW5nIiB0ZXh0TGVuZ3RoPSI1MCIgeD0iNTQyLjE4NzUiIHk9IjQ0OS44MzcyIj5zdG9yYWdlPC90ZXh0PjwvZz48ZyBpZD0iZWxlbV91c2VjYXNlIj48cG9seWdvbiBmaWxsPSIjNDc0NzQ3IiBwb2ludHM9IjEyNS4wNTY2LDU1NC4yMTAyLDEyMy45NjQxLDU1Ny41ODY2LDExOS43OTQyLDU2MC4xNTU3LDExNS4wMDk3LDU2Mi43MTUzLDExMS4wNTk5LDU2NS42ODgxLDEwMy42MDc4LDU2Ny4zODMxLDk2Ljc5OTksNTY5LjIwNDQsODguODA5Myw1NzAuMzc5Niw4MC4wMDU1LDU3MC45NDI3LDcyLjM1OTcsNTcxLjUxOTgsNjEuOTg5Niw1NzAuNjExOCw1NS4zNzIxLDU3MC41MTA5LDQ2LjgxMzUsNTY5LjA4MjcsMzguNTc4Nyw1NjcuMTExOSwzMi44MDg2LDU2NS4zNTQxLDI3LjAxMSw1NjIuODkxNiwyMi42NzM1LDU2MC4yNzU2LDE5LjA4MjgsNTU3LjI3MTIsMTYuOTkxMiw1NTQuMTk0OCwxNS44MTI2LDU1MC44ODk0LDE2LjM2MTQsNTQ3LjcyMywxOC4zNTI2LDU0NC42NzQ0LDIyLjI1NTYsNTQyLjAwOCwyNi40MzQ1LDUzOS4yMjc1LDMxLjY1OTUsNTM2LjcxOTksNDAuMjYwMyw1MzUuNDQ0LDQ1LjUzNTcsNTMzLjA2MzUsNTQuODg1NCw1MzIuMzg0Miw2Mi4wMTg1LDUzMS4yMTE2LDcyLjA3MzQsNTMxLjUxMzQsODAuMDA2LDUzMS41MzIxLDg3LjE2ODYsNTMxLjgzMTksOTYuMjQ5LDUzMy40NTA1LDEwMy4zNDA5LDUzNS4wMDQzLDEwOS41MjU4LDUzNi45MTM0LDExNC45ODU2LDUzOS4yNTI3LDEyMC4wODE4LDU0Mi4xNDU1LDEyMi45NDExLDU0NC44ODMsMTI2LjE5NzksNTQ4LjM4NDUsMTI1LjYyMTcsNTUxLjA0OTciIHN0eWxlPSJzdHJva2U6IzMzMzMzMztzdHJva2Utd2lkdGg6Mi4wODMzMzMzMzMzMzMzMzM1OyIvPjx0ZXh0IGZpbGw9IiNGRkZGRkYiIGZvbnQtZmFtaWx5PSImcXVvdDtTZWdvZSBQcmludCZxdW90OyIgZm9udC1zaXplPSIxMi41IiBsZW5ndGhBZGp1c3Q9InNwYWNpbmciIHRleHRMZW5ndGg9IjUwIiB4PSI0Ni4zNTE1IiB5PSI1NTQuMjQ0NiI+dXNlY2FzZTwvdGV4dD48L2c+PCEtLU1ENT1bYjZkYjEzNWRlNGMxNjU5MDZmNGU4NjFmNDNiNzgxMmFdCkBzdGFydHVtbA0KIXRoZW1lIHNrZXRjaHkNCmFjdG9yIGFjdG9yDQphZ2VudCBhZ2VudA0KYXJ0aWZhY3QgYXJ0aWZhY3QNCmJvdW5kYXJ5IGJvdW5kYXJ5DQpjYXJkIGNhcmQNCmNsb3VkIGNsb3VkDQpjb21wb25lbnQgY29tcG9uZW50DQpjb250cm9sIGNvbnRyb2wNCmRhdGFiYXNlIGRhdGFiYXNlDQplbnRpdHkgZW50aXR5DQpmaWxlIGZpbGUNCmZvbGRlciBmb2xkZXINCmZyYW1lIGZyYW1lDQppbnRlcmZhY2UgIGludGVyZmFjZQ0Kbm9kZSBub2RlDQpwYWNrYWdlIHBhY2thZ2UNCnF1ZXVlIHF1ZXVlDQpzdGFjayBzdGFjaw0KcmVjdGFuZ2xlIHJlY3RhbmdsZQ0Kc3RvcmFnZSBzdG9yYWdlDQp1c2VjYXNlIHVzZWNhc2UNCkBlbmR1bWwNCgpAc3RhcnR1bWwNCg0KDQoNCnNraW5wYXJhbSBiYWNrZ3JvdW5kQ29sb3IgdHJhbnNwYXJlbnQNCnNraW5wYXJhbSB1c2VCZXRhU3R5bGUgZmFsc2UNCnNraW5wYXJhbSBoYW5kd3JpdHRlbiB0cnVlDQpza2lucGFyYW0gc2hhZG93aW5nIGZhbHNlDQoNCg0KDQoNCg0KDQo8c3R5bGU+DQogIHJvb3Qgew0KICAgIEJhY2tncm91bmRDb2xvciB0cmFuc3BhcmVudA0KICAgIEZvbnRDb2xvciAjZmZmZmZmDQogICAgSHlwZXJMaW5rQ29sb3IgI2ZkN2UxNA0KICAgIExpbmVDb2xvciAjMmUyZTJlDQogICAgTGluZVRoaWNrbmVzcyAxDQogICAgTWFyZ2luIDEwDQogICAgUGFkZGluZyA2DQogICAgU2hhZG93aW5nIDAuMA0KICB9DQogIG5vZGUgew0KICAgUGFkZGluZyAxNQ0KICAgcm91bmRjb3JuZXIgMjANCiAgIEJhY2tncm91bmRDb2xvciAjMzMzMzMzLSMyZTJlMmUNCiAgfQ0KICBjYXB0aW9uIHsNCiAgICBMaW5lVGhpY2tuZXNzIDANCiAgfQ0KICBmb290ZXIgew0KICAgIExpbmVUaGlja25lc3MgMA0KICB9DQogIGdyb3VwSGVhZGVyIHsNCiAgICBCYWNrZ3JvdW5kQ29sb3IgIzU1NTU1NQ0KICAgIEZvbnRDb2xvciAjMTdhMmI4DQogICAgRm9udFN0eWxlIGJvbGQNCiAgfQ0KICBoZWFkZXIgew0KICAgIExpbmVUaGlja25lc3MgMA0KICB9DQogIHJlZmVyZW5jZUhlYWRlciB7DQogICAgQmFja2dyb3VuZENvbG9yIHRyYW5zcGFyZW50DQogICAgRm9udENvbG9yICM1NTU1NTUNCiAgICBGb250U3R5bGUgYm9sZA0KICB9DQogIHNlcGFyYXRvciB7DQogICAgQmFja2dyb3VuZENvbG9yICNmZmZmZmYNCiAgICBGb250Q29sb3IgdHJhbnNwYXJlbnQNCiAgICBGb250U3R5bGUgYm9sZA0KICB9DQogIHRpdGxlIHsNCglGb250U2l6ZSAyMA0KCUJvcmRlclJvdW5kQ29ybmVyICAgICAgICAgICAgOA0KCUJvcmRlclRoaWNrbmVzcyAJICAgICAgICAgMQ0KCUJhY2tncm91bmRDb2xvciAgIzY2NjY2Ni0jNTU1NTU1DQoJRm9udENvbG9yICMzMzMzMzMNCglCb3JkZXJDb2xvciAjNTU1NTU1DQogIH0NCiAgbndkaWFnRGlhZ3JhbSB7DQoJbmV0d29yayB7DQoJCQlGb250Q29sb3IgI2ZmZmZmZg0KCUJvcmRlckNvbG9yICMzMzMzMzMNCglCYWNrZ3JvdW5kQ29sb3IgIzQ3NDc0NyAgICANCgkJTGluZUNvbG9yICMzMzMzMzMNCgkJTGluZVRoaWNrbmVzcyAxLjANCgkJRm9udENvbG9yICMyZTJlMmUNCgl9DQoJc2VydmVyIHsNCgkJCUZvbnRDb2xvciAjZmZmZmZmDQoJQm9yZGVyQ29sb3IgIzMzMzMzMw0KCUJhY2tncm91bmRDb2xvciAjNDc0NzQ3DQoJfQ0KCWFycm93IHsNCgkJRm9udENvbG9yICMyZTJlMmUNCgkJTGluZUNvbG9yICMyZTJlMmUNCgl9DQoJZ3JvdXAgew0KCQlCYWNrR3JvdW5kQ29sb3IgI2ZmZmZmZg0KCQlMaW5lQ29sb3IgI2U2ZTZlNg0KCQlMaW5lVGhpY2tuZXNzIDIuMA0KCQlNYXJnaW4gNQ0KCQlQYWRkaW5nIDUNCgl9DQogIH0NCiAgZ2FudHREaWFncmFtIHsNCgl0YXNrIHsNCgkJCUZvbnRDb2xvciAjZmZmZmZmDQoJQm9yZGVyQ29sb3IgIzMzMzMzMw0KCUJhY2tncm91bmRDb2xvciAjNDc0NzQ3DQoJCUxpbmVDb2xvciAjMzMzMzMzDQoJCU1hcmdpbiAxMA0KCQlQYWRkaW5nIDYNCgl9DQoJbm90ZSB7DQoJCUZvbnRDb2xvciAjZmZmZmZmDQoJCUxpbmVDb2xvciAjMTU5MmE2DQoJCUJhY2tHcm91bmRDb2xvciAjMTdhMmI4DQoJfQ0KCXNlcGFyYXRvciB7DQoJCUxpbmVDb2xvciAjNTU1NTU1DQoJCUJhY2tHcm91bmRDb2xvciAjNTU1NTU1LSM0ZDRkNGQNCgkJRm9udENvbG9yICNmZmZmZmYNCgl9DQoJbWlsZXN0b25lIHsNCgkJRm9udENvbG9yICMxN2EyYjgNCgkJRm9udFNpemUgMTYNCgkJRm9udFN0eWxlIGl0YWxpYw0KCQlCYWNrR3JvdW5kQ29sb3IgIzU1NTU1NQ0KCQlMaW5lQ29sb3IgIzRkNGQ0ZA0KCX0NCgl0aW1lbGluZSB7DQoJCUJhY2tncm91bmRDb2xvciAjNTU1NTU1DQoJCUZvbnRDb2xvciAjZmZmZmZmDQoJfQ0KCWNsb3NlZCB7DQoJCUJhY2tncm91bmRDb2xvciAjZTZhZTA2DQoJCUZvbnRDb2xvciAjZmZmZmZmDQoJfQ0KICB9DQo8L3N0eWxlPg0Kc2tpbnBhcmFtIGRlZmF1bHRGb250TmFtZSAgICAgICAiU2Vnb2UgUHJpbnQiDQpza2lucGFyYW0gZGVmYXVsdEZvbnRTaXplICAgICAgIDEyDQpza2lucGFyYW0gZHBpICAgICAgICAgICAgICAgICAgIDEwMA0Kc2tpbnBhcmFtIHNoYWRvd2luZyAgICAgICAgICAgICBmYWxzZQ0Kc2tpbnBhcmFtIHJvdW5kY29ybmVyICAgICAgICAgICA4DQpza2lucGFyYW0gUGFydGljaXBhbnRQYWRkaW5nICAgIDQwDQpza2lucGFyYW0gQm94UGFkZGluZyAgICAgICAgICAgIDQwDQpza2lucGFyYW0gUGFkZGluZyAgICAgICAgICAgICAgIDUNCnNraW5wYXJhbSBBcnJvd0NvbG9yICAgICAgICAgICAgIzU1NTU1NQ0Kc2tpbnBhcmFtIHN0ZXJlb3R5cGUgew0KICAgIENCYWNrZ3JvdW5kQ29sb3IgIzY2NjY2Ng0KICAgIENCb3JkZXJDb2xvciAjNGQ0ZDRkDQogICAgQUJhY2tncm91bmRDb2xvciAjM2ViMDU4DQogICAgQUJvcmRlckNvbG9yICMyNDk2M2UNCiAgICBJQmFja2dyb3VuZENvbG9yICNlMDQ5NTgNCiAgICBJQm9yZGVyQ29sb3IgI2M2MzAzZQ0KICAgIEVCYWNrZ3JvdW5kQ29sb3IgI2ZmYzcyMA0KICAgIEVCb3JkZXJDb2xvciAjZTZhZTA2DQogICAgTkJhY2tncm91bmRDb2xvciAjMmVhYmJmDQogICAgTkJvcmRlckNvbG9yICMxNTkyYTYNCn0NCnNraW5wYXJhbSB0aXRsZSB7DQoJRm9udENvbG9yCSAgICAgICAgICAgICAgICAgI2ZmZmZmZg0KCUJvcmRlckNvbG9yCSAgICAgICAgICAgICAgICAgIzRkNGQ0ZA0KCUZvbnRTaXplCSAgICAJICAgICAgICAgMjANCglCb3JkZXJSb3VuZENvcm5lciAgICAgICAgICAgIDgNCglCb3JkZXJUaGlja25lc3MgCSAgICAgICAgIDENCglCYWNrZ3JvdW5kQ29sb3IgICAgICAgICAgICAgICM2NjY2NjYtIzU1NTU1NQ0KfQ0KDQpza2lucGFyYW0gbGVnZW5kIHsNCglCYWNrZ3JvdW5kQ29sb3IgIzU1NTU1NQ0KCUJvcmRlckNvbG9yICM0ZDRkNGQNCglGb250Q29sb3IgI2ZmZmZmZg0KfQ0KDQpza2lucGFyYW0gc3dpbWxhbmUgew0KCUJvcmRlckNvbG9yICMxN2EyYjgNCglCb3JkZXJUaGlja25lc3MgMg0KCVRpdGxlQmFja2dyb3VuZENvbG9yICAjNjY2NjY2LSM1NTU1NTUNCglUaXRsZUZvbnRDb2xvciAjZmZmZmZmDQp9DQoNCg0Kc2tpbnBhcmFtIGFjdGl2aXR5IHsNCgkJRm9udENvbG9yICNmZmZmZmYNCglCb3JkZXJDb2xvciAjMzMzMzMzDQoJQmFja2dyb3VuZENvbG9yICM0NzQ3NDcNCglCYXJDb2xvciAjMjhhNzQ1DQoJU3RhcnRDb2xvciAjMTdhMmI4DQoJRW5kQ29sb3IgIzE3YTJiOA0KCURpYW1vbmRCYWNrZ3JvdW5kQ29sb3IgIzY2NjY2Ng0KICAJRGlhbW9uZEJvcmRlckNvbG9yICM0ZDRkNGQNCiAgCURpYW1vbmRGb250Q29sb3IgI2ZmZmZmZg0KfQ0KDQoNCnNraW5wYXJhbSBwYXJ0aWNpcGFudCB7DQoJCUZvbnRDb2xvciAjZmZmZmZmDQoJQm9yZGVyQ29sb3IgIzMzMzMzMw0KCUJhY2tncm91bmRDb2xvciAjNDc0NzQ3DQoJUGFydGljaXBhbnRCb3JkZXJUaGlja25lc3MgMg0KfQ0KDQoNCnNraW5wYXJhbSBhY3RvciB7DQoJCUZvbnRDb2xvciAjZmZmZmZmDQoJQm9yZGVyQ29sb3IgIzMzMzMzMw0KCUJhY2tncm91bmRDb2xvciAjNDc0NzQ3DQp9DQoNCg0Kc2tpbnBhcmFtIGFycm93IHsNCglUaGlja25lc3MgMw0KCUNvbG9yICMzMzMzMzMNCglGb250Q29sb3IgI2ZmZmZmZg0KfQ0KDQoNCnNraW5wYXJhbSBzZXF1ZW5jZSB7DQoJQm9yZGVyQ29sb3IgIzMzMzMzMw0KCVRpdGxlRm9udENvbG9yICMzMzMzMzMNCglCYWNrZ3JvdW5kQ29sb3IgdHJhbnNwYXJlbnQNCglTdGFydENvbG9yICMzMzMzMzMNCglFbmRDb2xvciAjMzMzMzMzDQoJQm94QmFja2dyb3VuZENvbG9yIHRyYW5zcGFyZW50DQoJQm94Qm9yZGVyQ29sb3IgIzU1NTU1NQ0KCUJveEZvbnRDb2xvciAjNTU1NTU1DQoJRGVsYXlGb250Q29sb3IgIzU1NTU1NQ0KCUxpZmVMaW5lQm9yZGVyQ29sb3IgIzU1NTU1NQ0KCUxpZmVMaW5lQm9yZGVyVGhpY2tuZXNzIDINCglMaWZlTGluZUJhY2tncm91bmRDb2xvciAjNGQ0ZDRkDQoJR3JvdXBCb3JkZXJDb2xvciAjNTU1NTU1DQoJR3JvdXBGb250Q29sb3IgIzU1NTU1NQ0KCUdyb3VwSGVhZGVyRm9udENvbG9yICMxN2EyYjgNCglHcm91cEJhY2tncm91bmRDb2xvciAjNTU1NTU1DQoJR3JvdXBIZWFkZXJCYWNrZ3JvdW5kQ29sb3IgdHJhbnNwYXJlbnQNCglEaXZpZGVyQmFja2dyb3VuZENvbG9yICM1NTU1NTUNCiAgICBEaXZpZGVyQm9yZGVyQ29sb3IgIzU1NTU1NQ0KICAgIERpdmlkZXJCb3JkZXJUaGlja25lc3MgMg0KICAgIERpdmlkZXJGb250Q29sb3IgI2ZmZmZmZg0KCVJlZmVyZW5jZUJhY2tncm91bmRDb2xvciB0cmFuc3BhcmVudA0KCVJlZmVyZW5jZUJvcmRlckNvbG9yICM1NTU1NTUNCglSZWZlcmVuY2VGb250Q29sb3IgIzU1NTU1NQ0KCVJlZmVyZW5jZUhlYWRlckZvbnRDb2xvciAjMTdhMmI4DQoJUmVmZXJlbmNlSGVhZGVyQmFja2dyb3VuZENvbG9yICM1NTU1NTUNCglTdGVyZW90eXBlRm9udENvbG9yICNmZmZmZmYNCn0NCg0KDQpza2lucGFyYW0gcGFydGl0aW9uIHsNCglCb3JkZXJDb2xvciAjMzMzMzMzDQoJRm9udENvbG9yICMzMzMzMzMNCglCYWNrZ3JvdW5kQ29sb3IgdHJhbnNwYXJlbnQNCn0NCg0KDQpza2lucGFyYW0gY29sbGVjdGlvbnMgew0KCQlGb250Q29sb3IgI2ZmZmZmZg0KCUJvcmRlckNvbG9yICMzMzMzMzMNCglCYWNrZ3JvdW5kQ29sb3IgIzQ3NDc0Nw0KfQ0KDQoNCnNraW5wYXJhbSBjb250cm9sIHsNCgkJRm9udENvbG9yICNmZmZmZmYNCglCb3JkZXJDb2xvciAjMzMzMzMzDQoJQmFja2dyb3VuZENvbG9yICM0NzQ3NDcNCn0NCg0KDQpza2lucGFyYW0gZW50aXR5IHsNCgkJRm9udENvbG9yICNmZmZmZmYNCglCb3JkZXJDb2xvciAjMzMzMzMzDQoJQmFja2dyb3VuZENvbG9yICM0NzQ3NDcNCn0NCg0KDQpza2lucGFyYW0gYm91bmRhcnkgew0KCQlGb250Q29sb3IgI2ZmZmZmZg0KCUJvcmRlckNvbG9yICMzMzMzMzMNCglCYWNrZ3JvdW5kQ29sb3IgIzQ3NDc0Nw0KfQ0KDQoNCnNraW5wYXJhbSBhZ2VudCB7DQoJQmFja2dyb3VuZENvbG9yICNmZmMxMDcNCglCb3JkZXJDb2xvciAjZmZjNzIwDQoJRm9udENvbG9yICM1NTU1NTUNCn0NCg0KDQpza2lucGFyYW0gbm90ZSB7DQoJQm9yZGVyVGhpY2tuZXNzIDENCglCYWNrZ3JvdW5kQ29sb3IgIzE3YTJiOA0KCUJvcmRlckNvbG9yICMxNTkyYTYNCglGb250Q29sb3IgI2ZmZmZmZg0KfQ0KDQoNCnNraW5wYXJhbSBhcnRpZmFjdCB7DQoJQmFja2dyb3VuZENvbG9yICM1NTU1NTUNCglCb3JkZXJDb2xvciAjNGQ0ZDRkDQoJRm9udENvbG9yICNmZmZmZmYNCn0NCg0KDQpza2lucGFyYW0gY29tcG9uZW50IHsNCgkJRm9udENvbG9yICNmZmZmZmYNCglCb3JkZXJDb2xvciAjMzMzMzMzDQoJQmFja2dyb3VuZENvbG9yICM0NzQ3NDcNCn0NCg0KDQpza2lucGFyYW0gaW50ZXJmYWNlIHsNCglCYWNrZ3JvdW5kQ29sb3IgICNjNjMwM2UNCglCb3JkZXJDb2xvciAgI2RjMzU0NQ0KCUZvbnRDb2xvciAjNTU1NTU1DQp9DQoNCg0Kc2tpbnBhcmFtIHN0b3JhZ2Ugew0KCUJhY2tncm91bmRDb2xvciAjZmZjMTA3DQogIAlCb3JkZXJDb2xvciAjZTZhZTA2DQoJRm9udENvbG9yICNmZmZmZmYNCn0NCg0KDQpza2lucGFyYW0gbm9kZSB7DQoJQmFja2dyb3VuZENvbG9yICAjNTU1NTU1DQoJQm9yZGVyQ29sb3IgI2ZmZmZmZg0KCUZvbnRDb2xvciAjZmZmZmZmDQp9DQoNCg0Kc2tpbnBhcmFtIGNsb3VkIHsNCglCYWNrZ3JvdW5kQ29sb3IgI0YyRkNGRS0jZWVlZWVlDQoJQm9yZGVyQ29sb3IgI0YyRkNGRQ0KCUZvbnRDb2xvciAjNTU1NTU1DQp9DQoNCg0Kc2tpbnBhcmFtIGRhdGFiYXNlIHsNCgkJRm9udENvbG9yICNmZmZmZmYNCglCb3JkZXJDb2xvciAjMzMzMzMzDQoJQmFja2dyb3VuZENvbG9yICM0NzQ3NDcNCn0NCg0KDQpza2lucGFyYW0gY2xhc3Mgew0KCQlGb250Q29sb3IgI2ZmZmZmZg0KCUJvcmRlckNvbG9yICMzMzMzMzMNCglCYWNrZ3JvdW5kQ29sb3IgIzQ3NDc0Nw0KCUZvbnRDb2xvciAjZmZmZmZmDQoJSGVhZGVyQmFja2dyb3VuZENvbG9yICM0NzQ3NDcNCglTdGVyZW90eXBlRm9udENvbG9yICM1NTU1NTUNCglCb3JkZXJUaGlja25lc3MgMQ0KCUF0dHJpYnV0ZUZvbnRDb2xvciAjZmZmZmZmDQoJQXR0cmlidXRlRm9udFNpemUgMTENCn0NCg0KDQpza2lucGFyYW0gb2JqZWN0IHsNCgkJRm9udENvbG9yICNmZmZmZmYNCglCb3JkZXJDb2xvciAjMzMzMzMzDQoJQmFja2dyb3VuZENvbG9yICM0NzQ3NDcNCglTdGVyZW90eXBlRm9udENvbG9yICM1NTU1NTUNCglCb3JkZXJUaGlja25lc3MgMQ0KCUF0dHJpYnV0ZUZvbnRDb2xvciAjZmZmZmZmDQoJQXR0cmlidXRlRm9udFNpemUgMTENCn0NCg0KDQpza2lucGFyYW0gdXNlY2FzZSB7DQoJCUZvbnRDb2xvciAjZmZmZmZmDQoJQm9yZGVyQ29sb3IgIzMzMzMzMw0KCUJhY2tncm91bmRDb2xvciAjNDc0NzQ3DQoJQm9yZGVyVGhpY2tuZXNzIDINCglTdGVyZW90eXBlRm9udENvbG9yICMzMzMzMzMNCn0NCg0KDQpza2lucGFyYW0gcmVjdGFuZ2xlIHsNCgkJRm9udENvbG9yICNmZmZmZmYNCglCb3JkZXJDb2xvciAjMzMzMzMzDQoJQmFja2dyb3VuZENvbG9yICM0NzQ3NDcNCglCYWNrZ3JvdW5kQ29sb3IgIzY2NjY2Ng0KCUJvcmRlclRoaWNrbmVzcyAyDQoJU3RlcmVvdHlwZUZvbnRDb2xvciAjMzMzMzMzDQp9DQoNCg0Kc2tpbnBhcmFtIHBhY2thZ2Ugew0KCUJhY2tncm91bmRDb2xvciAjNTU1NTU1DQogIAlCb3JkZXJDb2xvciAjMzMzMzMzDQoJRm9udENvbG9yICMzMzMzMzMNCglCb3JkZXJUaGlja25lc3MgMg0KfQ0KDQoNCnNraW5wYXJhbSBmb2xkZXIgew0KCUJhY2tncm91bmRDb2xvciAjNjY2NjY2DQogIAlCb3JkZXJDb2xvciAjZmZjMTA3DQoJRm9udENvbG9yICNmZmMxMDcNCglCb3JkZXJUaGlja25lc3MgMg0KfQ0KDQoNCnNraW5wYXJhbSBmcmFtZSB7DQoJQmFja2dyb3VuZENvbG9yICM2NjY2NjYNCiAgCUJvcmRlckNvbG9yICMxN2EyYjgNCglGb250Q29sb3IgIzE3YTJiOA0KCUJvcmRlclRoaWNrbmVzcyAyDQp9DQoNCg0Kc2tpbnBhcmFtIHN0YXRlIHsNCgkJRm9udENvbG9yICNmZmZmZmYNCglCb3JkZXJDb2xvciAjMzMzMzMzDQoJQmFja2dyb3VuZENvbG9yICM0NzQ3NDcNCglTdGFydENvbG9yICMxN2EyYjgNCglFbmRDb2xvciAjMTdhMmI4DQoJQXR0cmlidXRlRm9udENvbG9yICNmZmZmZmYNCglBdHRyaWJ1dGVGb250U2l6ZSAxMQ0KfQ0KDQoNCnNraW5wYXJhbSBxdWV1ZSB7DQoJCUZvbnRDb2xvciAjZmZmZmZmDQoJQm9yZGVyQ29sb3IgIzMzMzMzMw0KCUJhY2tncm91bmRDb2xvciAjNDc0NzQ3DQp9DQoNCg0Kc2tpbnBhcmFtIGNhcmQgew0KCUJhY2tncm91bmRDb2xvciAjMTdhMmI4DQoJQm9yZGVyQ29sb3IgIzE1OTJhNg0KCUZvbnRDb2xvciAjZmZmZmZmDQp9DQoNCg0Kc2tpbnBhcmFtIGZpbGUgew0KCUJhY2tncm91bmRDb2xvciAjNGQ0ZDRkDQoJQm9yZGVyQ29sb3IgI2ZmZmZmZg0KCUZvbnRDb2xvciAjZmZmZmZmDQp9DQoNCg0Kc2tpbnBhcmFtIHN0YWNrIHsNCgkJRm9udENvbG9yICNmZmZmZmYNCglCb3JkZXJDb2xvciAjMzMzMzMzDQoJQmFja2dyb3VuZENvbG9yICM0NzQ3NDcNCn0NCmFjdG9yIGFjdG9yDQphZ2VudCBhZ2VudA0KYXJ0aWZhY3QgYXJ0aWZhY3QNCmJvdW5kYXJ5IGJvdW5kYXJ5DQpjYXJkIGNhcmQNCmNsb3VkIGNsb3VkDQpjb21wb25lbnQgY29tcG9uZW50DQpjb250cm9sIGNvbnRyb2wNCmRhdGFiYXNlIGRhdGFiYXNlDQplbnRpdHkgZW50aXR5DQpmaWxlIGZpbGUNCmZvbGRlciBmb2xkZXINCmZyYW1lIGZyYW1lDQppbnRlcmZhY2UgIGludGVyZmFjZQ0Kbm9kZSBub2RlDQpwYWNrYWdlIHBhY2thZ2UNCnF1ZXVlIHF1ZXVlDQpzdGFjayBzdGFjaw0KcmVjdGFuZ2xlIHJlY3RhbmdsZQ0Kc3RvcmFnZSBzdG9yYWdlDQp1c2VjYXNlIHVzZWNhc2UNCkBlbmR1bWwNCgpQbGFudFVNTCB2ZXJzaW9uIDEuMjAyMi42KFR1ZSBKdW4gMjEgMTc6MzQ6NDkgR01UIDIwMjIpCkphdmEgUnVudGltZTogT3BlbkpESyBSdW50aW1lIEVudmlyb25tZW50CkpWTTogT3BlbkpESyA2NC1CaXQgU2VydmVyIFZNCkRlZmF1bHQgRW5jb2Rpbmc6IFVURi04Ckxhbmd1YWdlOiBlbgpDb3VudHJ5OiBVUwotLT48L2c+PC9zdmc+;" parent="1" vertex="1">
            <mxGeometry x="-800" y="50" width="619" height="582" as="geometry" />
          </mxCell>
        </UserObject>
        <UserObject label="" plantUmlData="{&quot;data&quot;:&quot;@startuml\n\ntitle 财人汇系物理图\n\nactor users[\n    互联网用户\n]\nnote right: 从互联网来的用户\nactor op[\n    柜员\n]\n\nactor it[\n    运维\n]\n\nnode nginx1[\n    Nginx\n    ----\n    10.169.17.1\n    ----\n    80\n    443\n]\n\nnode nginx2[\n    Nginx\n    ----\n    10.169.17.2\n    ----\n    80\n    443\n]\n\nrectangle 服务{\n\n    node tomcat1[\n        tomcat\n        ----\n        10.169.15.3\n    ]\n\n    node tomcat2[\n        tomcat\n        ----\n        10.169.15.4\n    ]\n\n    node tomcat3[\n        tomcat\n        ----\n        10.169.15.5\n    ]\n\n\n    node tomcat4[\n        tomcat\n        ----\n        10.169.15.6\n    ]\n\n    node tomcat5[\n        AnyChat-tomcat\n        ----\n        10.169.42.71\n        10.169.42.70\n    ]\n    \n}\nnote bottom of 服务 #green\ntomcat的服务需要的端口\n# 8030\n# 8031\n# 8032\n# 8033\n# 8034\n# 8035\n# 8036\n# 8038\n# 8039\n# 8045\n# 8060\n# 8061\n# 8880\n# 8881\nend note \n\nnote top of 服务 #green\nzookeeper\\dubbo\\redis需要的端口\n2181\n6379\n26379\n61616\nend note\n\nrectangle db{\n    database oracle1[\n        oracle主\n        ----\n        10.169.15.100\n    ]\n    database oracle2[\n        oracle从\n        ----\n        10.169.15.101\n    ]\n\n    database mysql1[\n        mysql主\n        ----\n        10.169.15.102\n    ]\n}\nnote top of db #green\n\n1521/3306\n\nend note\n\nnode F5Device[\n    F5负载均衡\n]\n\n&#39; 进入F5\nusers ==&gt; F5Device\nop ==&gt; nginx1\nop ==&gt; nginx2 : 目前访问\nop ==&gt; tomcat5\n\n&#39; F5Device\nF5Device --&gt; nginx1\n\nF5Device ==&gt; nginx2\n\n\n&#39; Nginx\nnginx1 ==&gt; tomcat1\n\nnginx1 ==&gt; tomcat2\n\nnginx1 ==&gt; tomcat3\n\nnginx1 ==&gt; tomcat4\n\nnginx2 ==&gt; tomcat1\n\nnginx2 ==&gt; tomcat2\n\nnginx2 ==&gt; tomcat3\n\nnginx2 ==&gt; tomcat4\n\nnginx1 ==&gt; tomcat5\n\nnginx2 ==&gt; tomcat5\n\n&#39; Tomcat\n\ntomcat1 =[#red]=&gt; oracle1\n\ntomcat2 ==&gt; oracle1\n\ntomcat3 ==&gt; oracle1\n\ntomcat4 ==&gt; oracle1\n\ntomcat3 ==&gt; mysql1\n\ntomcat4 ==&gt; mysql1\n\ntomcat5 ==&gt; oracle1\n\n&#39; Oracle\noracle1 ==&gt; oracle2 : 实时同步\n\n\nit =[#yellow]=&gt; 服务\n\nit =[#yellow]=&gt; nginx1\nit =[#yellow]=&gt; nginx2\n\nit =[#yellow]=&gt; db\n\n\n@enduml&quot;,&quot;format&quot;:&quot;svg&quot;}" id="eATnwCpRuOH77-6JVb-D-45">
          <mxCell style="shape=image;verticalAlign=top;aspect=fixed;imageAspect=0;image=data:image/svg+xml,PD94bWwgdmVyc2lvbj0iMS4wIiBlbmNvZGluZz0iVVRGLTgiIHN0YW5kYWxvbmU9Im5vIj8+PHN2ZyB4bWxucz0iaHR0cDovL3d3dy53My5vcmcvMjAwMC9zdmciIHhtbG5zOnhsaW5rPSJodHRwOi8vd3d3LnczLm9yZy8xOTk5L3hsaW5rIiBjb250ZW50U3R5bGVUeXBlPSJ0ZXh0L2NzcyIgaGVpZ2h0PSIxMDgycHgiIHByZXNlcnZlQXNwZWN0UmF0aW89Im5vbmUiIHN0eWxlPSJ3aWR0aDoxMDI5cHg7aGVpZ2h0OjEwODJweDtiYWNrZ3JvdW5kOiNGRkZGRkY7IiB2ZXJzaW9uPSIxLjEiIHZpZXdCb3g9IjAgMCAxMDI5IDEwODIiIHdpZHRoPSIxMDI5cHgiIHpvb21BbmRQYW49Im1hZ25pZnkiPjxkZWZzLz48Zz48cmVjdCBoZWlnaHQ9IjI0Ljk4NDQiIHN0eWxlPSJzdHJva2U6IzAwMDAwMDAwO3N0cm9rZS13aWR0aDoxLjA7ZmlsbDpub25lOyIgd2lkdGg9IjEwOCIgeD0iNDUzLjUiIHk9IjUiLz48dGV4dCBmaWxsPSIjMDAwMDAwIiBmb250LWZhbWlseT0ic2Fucy1zZXJpZiIgZm9udC1zaXplPSIxNCIgZm9udC13ZWlnaHQ9ImJvbGQiIGxlbmd0aEFkanVzdD0ic3BhY2luZyIgdGV4dExlbmd0aD0iOTgiIHg9IjQ1OC41IiB5PSIyMy4yMzQ0Ij7otKLkurrmsYfns7vniannkIblm748L3RleHQ+PCEtLU1ENT1bZjJjMDkxZWRkZTI3N2MzZjM3NTI1N2E5ZTk1YmNhZDFdCmNsdXN0ZXIg5pyN5YqhLS0+PGcgaWQ9ImNsdXN0ZXJf5pyN5YqhIj48cmVjdCBoZWlnaHQ9IjE0OCIgcng9IjIuNSIgcnk9IjIuNSIgc3R5bGU9InN0cm9rZTojMTgxODE4O3N0cm9rZS13aWR0aDoxLjA7ZmlsbDpub25lOyIgd2lkdGg9IjgxNSIgeD0iNyIgeT0iNDg4LjQ4NDQiLz48dGV4dCBmaWxsPSIjMDAwMDAwIiBmb250LWZhbWlseT0ic2Fucy1zZXJpZiIgZm9udC1zaXplPSIxNCIgZm9udC13ZWlnaHQ9ImJvbGQiIGxlbmd0aEFkanVzdD0ic3BhY2luZyIgdGV4dExlbmd0aD0iMjgiIHg9IjQwMC41IiB5PSI1MDMuNzE4OCI+5pyN5YqhPC90ZXh0PjwvZz48IS0tTUQ1PVtlOGYzNzg4YWQ3Yjk3ZThkZTY4YjQxOTQ1NThiYzJhMV0KY2x1c3RlciBkYi0tPjxnIGlkPSJjbHVzdGVyX2RiIj48cmVjdCBoZWlnaHQ9IjM1MCIgcng9IjIuNSIgcnk9IjIuNSIgc3R5bGU9InN0cm9rZTojMTgxODE4O3N0cm9rZS13aWR0aDoxLjA7ZmlsbDpub25lOyIgd2lkdGg9IjMyNCIgeD0iMzM3IiB5PSI3MjYuNDg0NCIvPjx0ZXh0IGZpbGw9IiMwMDAwMDAiIGZvbnQtZmFtaWx5PSJzYW5zLXNlcmlmIiBmb250LXNpemU9IjE0IiBmb250LXdlaWdodD0iYm9sZCIgbGVuZ3RoQWRqdXN0PSJzcGFjaW5nIiB0ZXh0TGVuZ3RoPSIxNCIgeD0iNDkyIiB5PSI3NDEuNzE4OCI+ZGI8L3RleHQ+PC9nPjwhLS1NRDU9W2VkYjJkOGE1NzVmMDM2ZTVhM2NiODgzNjljZGY0OThiXQplbnRpdHkgdG9tY2F0MS0tPjxnIGlkPSJlbGVtX3RvbWNhdDEiPjxwb2x5Z29uIGZpbGw9IiNGMUYxRjEiIHBvaW50cz0iNTA5LjUsNTQ2Ljk4NDQsNTE5LjUsNTM2Ljk4NDQsNjI2LjUsNTM2Ljk4NDQsNjI2LjUsNTk0Ljk1MzEsNjE2LjUsNjA0Ljk1MzEsNTA5LjUsNjA0Ljk1MzEsNTA5LjUsNTQ2Ljk4NDQiIHN0eWxlPSJzdHJva2U6IzE4MTgxODtzdHJva2Utd2lkdGg6MC41OyIvPjxsaW5lIHN0eWxlPSJzdHJva2U6IzE4MTgxODtzdHJva2Utd2lkdGg6MC41OyIgeDE9IjYxNi41IiB4Mj0iNjI2LjUiIHkxPSI1NDYuOTg0NCIgeTI9IjUzNi45ODQ0Ii8+PGxpbmUgc3R5bGU9InN0cm9rZTojMTgxODE4O3N0cm9rZS13aWR0aDowLjU7IiB4MT0iNTA5LjUiIHgyPSI2MTYuNSIgeTE9IjU0Ni45ODQ0IiB5Mj0iNTQ2Ljk4NDQiLz48bGluZSBzdHlsZT0ic3Ryb2tlOiMxODE4MTg7c3Ryb2tlLXdpZHRoOjAuNTsiIHgxPSI2MTYuNSIgeDI9IjYxNi41IiB5MT0iNTQ2Ljk4NDQiIHkyPSI2MDQuOTUzMSIvPjx0ZXh0IGZpbGw9IiMwMDAwMDAiIGZvbnQtZmFtaWx5PSJzYW5zLXNlcmlmIiBmb250LXNpemU9IjE0IiBsZW5ndGhBZGp1c3Q9InNwYWNpbmciIHRleHRMZW5ndGg9IjQzIiB4PSI1MjQuNSIgeT0iNTcwLjIxODgiPnRvbWNhdDwvdGV4dD48bGluZSBzdHlsZT0ic3Ryb2tlOiMxODE4MTg7c3Ryb2tlLXdpZHRoOjEuMDsiIHgxPSI1MDkuNSIgeDI9IjYxNi41IiB5MT0iNTcxLjk2ODgiIHkyPSI1NzEuOTY4OCIvPjxsaW5lIHN0eWxlPSJzdHJva2U6IzE4MTgxODtzdHJva2Utd2lkdGg6MS4wOyIgeDE9IjYxNi41IiB4Mj0iNjI2LjUiIHkxPSI1NzEuOTY4OCIgeTI9IjU2MS45Njg4Ii8+PHRleHQgZmlsbD0iIzAwMDAwMCIgZm9udC1mYW1pbHk9InNhbnMtc2VyaWYiIGZvbnQtc2l6ZT0iMTQiIGxlbmd0aEFkanVzdD0ic3BhY2luZyIgdGV4dExlbmd0aD0iNzciIHg9IjUyNC41IiB5PSI1ODkuMjAzMSI+MTAuMTY5LjE1LjM8L3RleHQ+PC9nPjwhLS1NRDU9WzQ4M2JjZjU0NzMzZjkzZTZmZWZkZTE3YTAzNzJkNzBiXQplbnRpdHkgdG9tY2F0Mi0tPjxnIGlkPSJlbGVtX3RvbWNhdDIiPjxwb2x5Z29uIGZpbGw9IiNGMUYxRjEiIHBvaW50cz0iNjYxLjUsNTQ2Ljk4NDQsNjcxLjUsNTM2Ljk4NDQsNzc4LjUsNTM2Ljk4NDQsNzc4LjUsNTk0Ljk1MzEsNzY4LjUsNjA0Ljk1MzEsNjYxLjUsNjA0Ljk1MzEsNjYxLjUsNTQ2Ljk4NDQiIHN0eWxlPSJzdHJva2U6IzE4MTgxODtzdHJva2Utd2lkdGg6MC41OyIvPjxsaW5lIHN0eWxlPSJzdHJva2U6IzE4MTgxODtzdHJva2Utd2lkdGg6MC41OyIgeDE9Ijc2OC41IiB4Mj0iNzc4LjUiIHkxPSI1NDYuOTg0NCIgeTI9IjUzNi45ODQ0Ii8+PGxpbmUgc3R5bGU9InN0cm9rZTojMTgxODE4O3N0cm9rZS13aWR0aDowLjU7IiB4MT0iNjYxLjUiIHgyPSI3NjguNSIgeTE9IjU0Ni45ODQ0IiB5Mj0iNTQ2Ljk4NDQiLz48bGluZSBzdHlsZT0ic3Ryb2tlOiMxODE4MTg7c3Ryb2tlLXdpZHRoOjAuNTsiIHgxPSI3NjguNSIgeDI9Ijc2OC41IiB5MT0iNTQ2Ljk4NDQiIHkyPSI2MDQuOTUzMSIvPjx0ZXh0IGZpbGw9IiMwMDAwMDAiIGZvbnQtZmFtaWx5PSJzYW5zLXNlcmlmIiBmb250LXNpemU9IjE0IiBsZW5ndGhBZGp1c3Q9InNwYWNpbmciIHRleHRMZW5ndGg9IjQzIiB4PSI2NzYuNSIgeT0iNTcwLjIxODgiPnRvbWNhdDwvdGV4dD48bGluZSBzdHlsZT0ic3Ryb2tlOiMxODE4MTg7c3Ryb2tlLXdpZHRoOjEuMDsiIHgxPSI2NjEuNSIgeDI9Ijc2OC41IiB5MT0iNTcxLjk2ODgiIHkyPSI1NzEuOTY4OCIvPjxsaW5lIHN0eWxlPSJzdHJva2U6IzE4MTgxODtzdHJva2Utd2lkdGg6MS4wOyIgeDE9Ijc2OC41IiB4Mj0iNzc4LjUiIHkxPSI1NzEuOTY4OCIgeTI9IjU2MS45Njg4Ii8+PHRleHQgZmlsbD0iIzAwMDAwMCIgZm9udC1mYW1pbHk9InNhbnMtc2VyaWYiIGZvbnQtc2l6ZT0iMTQiIGxlbmd0aEFkanVzdD0ic3BhY2luZyIgdGV4dExlbmd0aD0iNzciIHg9IjY3Ni41IiB5PSI1ODkuMjAzMSI+MTAuMTY5LjE1LjQ8L3RleHQ+PC9nPjwhLS1NRDU9WzI0NzViMWM2NmIxNWE5OGJiYmI3ZjA5ODE3ZTQ0MTdhXQplbnRpdHkgdG9tY2F0My0tPjxnIGlkPSJlbGVtX3RvbWNhdDMiPjxwb2x5Z29uIGZpbGw9IiNGMUYxRjEiIHBvaW50cz0iMjA1LjUsNTQ2Ljk4NDQsMjE1LjUsNTM2Ljk4NDQsMzIyLjUsNTM2Ljk4NDQsMzIyLjUsNTk0Ljk1MzEsMzEyLjUsNjA0Ljk1MzEsMjA1LjUsNjA0Ljk1MzEsMjA1LjUsNTQ2Ljk4NDQiIHN0eWxlPSJzdHJva2U6IzE4MTgxODtzdHJva2Utd2lkdGg6MC41OyIvPjxsaW5lIHN0eWxlPSJzdHJva2U6IzE4MTgxODtzdHJva2Utd2lkdGg6MC41OyIgeDE9IjMxMi41IiB4Mj0iMzIyLjUiIHkxPSI1NDYuOTg0NCIgeTI9IjUzNi45ODQ0Ii8+PGxpbmUgc3R5bGU9InN0cm9rZTojMTgxODE4O3N0cm9rZS13aWR0aDowLjU7IiB4MT0iMjA1LjUiIHgyPSIzMTIuNSIgeTE9IjU0Ni45ODQ0IiB5Mj0iNTQ2Ljk4NDQiLz48bGluZSBzdHlsZT0ic3Ryb2tlOiMxODE4MTg7c3Ryb2tlLXdpZHRoOjAuNTsiIHgxPSIzMTIuNSIgeDI9IjMxMi41IiB5MT0iNTQ2Ljk4NDQiIHkyPSI2MDQuOTUzMSIvPjx0ZXh0IGZpbGw9IiMwMDAwMDAiIGZvbnQtZmFtaWx5PSJzYW5zLXNlcmlmIiBmb250LXNpemU9IjE0IiBsZW5ndGhBZGp1c3Q9InNwYWNpbmciIHRleHRMZW5ndGg9IjQzIiB4PSIyMjAuNSIgeT0iNTcwLjIxODgiPnRvbWNhdDwvdGV4dD48bGluZSBzdHlsZT0ic3Ryb2tlOiMxODE4MTg7c3Ryb2tlLXdpZHRoOjEuMDsiIHgxPSIyMDUuNSIgeDI9IjMxMi41IiB5MT0iNTcxLjk2ODgiIHkyPSI1NzEuOTY4OCIvPjxsaW5lIHN0eWxlPSJzdHJva2U6IzE4MTgxODtzdHJva2Utd2lkdGg6MS4wOyIgeDE9IjMxMi41IiB4Mj0iMzIyLjUiIHkxPSI1NzEuOTY4OCIgeTI9IjU2MS45Njg4Ii8+PHRleHQgZmlsbD0iIzAwMDAwMCIgZm9udC1mYW1pbHk9InNhbnMtc2VyaWYiIGZvbnQtc2l6ZT0iMTQiIGxlbmd0aEFkanVzdD0ic3BhY2luZyIgdGV4dExlbmd0aD0iNzciIHg9IjIyMC41IiB5PSI1ODkuMjAzMSI+MTAuMTY5LjE1LjU8L3RleHQ+PC9nPjwhLS1NRDU9W2FlYmQ3ZDRmNjczNTQyYjJkZWUxZWFmY2VjZTA5ODU0XQplbnRpdHkgdG9tY2F0NC0tPjxnIGlkPSJlbGVtX3RvbWNhdDQiPjxwb2x5Z29uIGZpbGw9IiNGMUYxRjEiIHBvaW50cz0iMzU3LjUsNTQ2Ljk4NDQsMzY3LjUsNTM2Ljk4NDQsNDc0LjUsNTM2Ljk4NDQsNDc0LjUsNTk0Ljk1MzEsNDY0LjUsNjA0Ljk1MzEsMzU3LjUsNjA0Ljk1MzEsMzU3LjUsNTQ2Ljk4NDQiIHN0eWxlPSJzdHJva2U6IzE4MTgxODtzdHJva2Utd2lkdGg6MC41OyIvPjxsaW5lIHN0eWxlPSJzdHJva2U6IzE4MTgxODtzdHJva2Utd2lkdGg6MC41OyIgeDE9IjQ2NC41IiB4Mj0iNDc0LjUiIHkxPSI1NDYuOTg0NCIgeTI9IjUzNi45ODQ0Ii8+PGxpbmUgc3R5bGU9InN0cm9rZTojMTgxODE4O3N0cm9rZS13aWR0aDowLjU7IiB4MT0iMzU3LjUiIHgyPSI0NjQuNSIgeTE9IjU0Ni45ODQ0IiB5Mj0iNTQ2Ljk4NDQiLz48bGluZSBzdHlsZT0ic3Ryb2tlOiMxODE4MTg7c3Ryb2tlLXdpZHRoOjAuNTsiIHgxPSI0NjQuNSIgeDI9IjQ2NC41IiB5MT0iNTQ2Ljk4NDQiIHkyPSI2MDQuOTUzMSIvPjx0ZXh0IGZpbGw9IiMwMDAwMDAiIGZvbnQtZmFtaWx5PSJzYW5zLXNlcmlmIiBmb250LXNpemU9IjE0IiBsZW5ndGhBZGp1c3Q9InNwYWNpbmciIHRleHRMZW5ndGg9IjQzIiB4PSIzNzIuNSIgeT0iNTcwLjIxODgiPnRvbWNhdDwvdGV4dD48bGluZSBzdHlsZT0ic3Ryb2tlOiMxODE4MTg7c3Ryb2tlLXdpZHRoOjEuMDsiIHgxPSIzNTcuNSIgeDI9IjQ2NC41IiB5MT0iNTcxLjk2ODgiIHkyPSI1NzEuOTY4OCIvPjxsaW5lIHN0eWxlPSJzdHJva2U6IzE4MTgxODtzdHJva2Utd2lkdGg6MS4wOyIgeDE9IjQ2NC41IiB4Mj0iNDc0LjUiIHkxPSI1NzEuOTY4OCIgeTI9IjU2MS45Njg4Ii8+PHRleHQgZmlsbD0iIzAwMDAwMCIgZm9udC1mYW1pbHk9InNhbnMtc2VyaWYiIGZvbnQtc2l6ZT0iMTQiIGxlbmd0aEFkanVzdD0ic3BhY2luZyIgdGV4dExlbmd0aD0iNzciIHg9IjM3Mi41IiB5PSI1ODkuMjAzMSI+MTAuMTY5LjE1LjY8L3RleHQ+PC9nPjwhLS1NRDU9WzY2MjY5OWY5OGM2OGRkMjFkNTdlMTE2M2RjY2E4OWUzXQplbnRpdHkgdG9tY2F0NS0tPjxnIGlkPSJlbGVtX3RvbWNhdDUiPjxwb2x5Z29uIGZpbGw9IiNGMUYxRjEiIHBvaW50cz0iMzEuNSw1MzkuNDg0NCw0MS41LDUyOS40ODQ0LDE3MC41LDUyOS40ODQ0LDE3MC41LDYwMi40Mzc1LDE2MC41LDYxMi40Mzc1LDMxLjUsNjEyLjQzNzUsMzEuNSw1MzkuNDg0NCIgc3R5bGU9InN0cm9rZTojMTgxODE4O3N0cm9rZS13aWR0aDowLjU7Ii8+PGxpbmUgc3R5bGU9InN0cm9rZTojMTgxODE4O3N0cm9rZS13aWR0aDowLjU7IiB4MT0iMTYwLjUiIHgyPSIxNzAuNSIgeTE9IjUzOS40ODQ0IiB5Mj0iNTI5LjQ4NDQiLz48bGluZSBzdHlsZT0ic3Ryb2tlOiMxODE4MTg7c3Ryb2tlLXdpZHRoOjAuNTsiIHgxPSIzMS41IiB4Mj0iMTYwLjUiIHkxPSI1MzkuNDg0NCIgeTI9IjUzOS40ODQ0Ii8+PGxpbmUgc3R5bGU9InN0cm9rZTojMTgxODE4O3N0cm9rZS13aWR0aDowLjU7IiB4MT0iMTYwLjUiIHgyPSIxNjAuNSIgeTE9IjUzOS40ODQ0IiB5Mj0iNjEyLjQzNzUiLz48dGV4dCBmaWxsPSIjMDAwMDAwIiBmb250LWZhbWlseT0ic2Fucy1zZXJpZiIgZm9udC1zaXplPSIxNCIgbGVuZ3RoQWRqdXN0PSJzcGFjaW5nIiB0ZXh0TGVuZ3RoPSI5OSIgeD0iNDYuNSIgeT0iNTYyLjcxODgiPkFueUNoYXQtdG9tY2F0PC90ZXh0PjxsaW5lIHN0eWxlPSJzdHJva2U6IzE4MTgxODtzdHJva2Utd2lkdGg6MS4wOyIgeDE9IjMxLjUiIHgyPSIxNjAuNSIgeTE9IjU2NC40Njg4IiB5Mj0iNTY0LjQ2ODgiLz48bGluZSBzdHlsZT0ic3Ryb2tlOiMxODE4MTg7c3Ryb2tlLXdpZHRoOjEuMDsiIHgxPSIxNjAuNSIgeDI9IjE3MC41IiB5MT0iNTY0LjQ2ODgiIHkyPSI1NTQuNDY4OCIvPjx0ZXh0IGZpbGw9IiMwMDAwMDAiIGZvbnQtZmFtaWx5PSJzYW5zLXNlcmlmIiBmb250LXNpemU9IjE0IiBsZW5ndGhBZGp1c3Q9InNwYWNpbmciIHRleHRMZW5ndGg9Ijg0IiB4PSI0Ni41IiB5PSI1ODEuNzAzMSI+MTAuMTY5LjQyLjcxPC90ZXh0Pjx0ZXh0IGZpbGw9IiMwMDAwMDAiIGZvbnQtZmFtaWx5PSJzYW5zLXNlcmlmIiBmb250LXNpemU9IjE0IiBsZW5ndGhBZGp1c3Q9InNwYWNpbmciIHRleHRMZW5ndGg9Ijg0IiB4PSI0Ni41IiB5PSI1OTYuNjg3NSI+MTAuMTY5LjQyLjcwPC90ZXh0PjwvZz48IS0tTUQ1PVthZDA5ODU2N2VhOTVmYjRiNjUyMzA2Y2I1NDg4ZmQ0NV0KZW50aXR5IG9yYWNsZTEtLT48ZyBpZD0iZWxlbV9vcmFjbGUxIj48cGF0aCBkPSJNNTA2LjUsNzc3LjQ4NDQgQzUwNi41LDc2Ny40ODQ0IDU2Miw3NjcuNDg0NCA1NjIsNzY3LjQ4NDQgQzU2Miw3NjcuNDg0NCA2MTcuNSw3NjcuNDg0NCA2MTcuNSw3NzcuNDg0NCBMNjE3LjUsODI0LjQ1MzEgQzYxNy41LDgzNC40NTMxIDU2Miw4MzQuNDUzMSA1NjIsODM0LjQ1MzEgQzU2Miw4MzQuNDUzMSA1MDYuNSw4MzQuNDUzMSA1MDYuNSw4MjQuNDUzMSBMNTA2LjUsNzc3LjQ4NDQgIiBmaWxsPSIjRjFGMUYxIiBzdHlsZT0ic3Ryb2tlOiMxODE4MTg7c3Ryb2tlLXdpZHRoOjAuNTsiLz48cGF0aCBkPSJNNTA2LjUsNzc3LjQ4NDQgQzUwNi41LDc4Ny40ODQ0IDU2Miw3ODcuNDg0NCA1NjIsNzg3LjQ4NDQgQzU2Miw3ODcuNDg0NCA2MTcuNSw3ODcuNDg0NCA2MTcuNSw3NzcuNDg0NCAiIGZpbGw9Im5vbmUiIHN0eWxlPSJzdHJva2U6IzE4MTgxODtzdHJva2Utd2lkdGg6MC41OyIvPjx0ZXh0IGZpbGw9IiMwMDAwMDAiIGZvbnQtZmFtaWx5PSJzYW5zLXNlcmlmIiBmb250LXNpemU9IjE0IiBsZW5ndGhBZGp1c3Q9InNwYWNpbmciIHRleHRMZW5ndGg9IjU2IiB4PSI1MTYuNSIgeT0iODA0LjcxODgiPm9yYWNsZeS4uzwvdGV4dD48cGF0aCBkPSJNNTA2LjUsODAxLjQ2ODggQzUwNi41LDgxMS40Njg4IDU2Miw4MTEuNDY4OCA1NjIsODExLjQ2ODggQzU2Miw4MTEuNDY4OCA2MTcuNSw4MTEuNDY4OCA2MTcuNSw4MDEuNDY4OCAiIGZpbGw9Im5vbmUiIHN0eWxlPSJzdHJva2U6IzE4MTgxODtzdHJva2Utd2lkdGg6MS4wOyIvPjx0ZXh0IGZpbGw9IiMwMDAwMDAiIGZvbnQtZmFtaWx5PSJzYW5zLXNlcmlmIiBmb250LXNpemU9IjE0IiBsZW5ndGhBZGp1c3Q9InNwYWNpbmciIHRleHRMZW5ndGg9IjkxIiB4PSI1MTYuNSIgeT0iODIzLjcwMzEiPjEwLjE2OS4xNS4xMDA8L3RleHQ+PC9nPjwhLS1NRDU9WzA5YzY3YTEzYTA1MDYwN2Y5OTU5ZWVhYzkwZmVjNDZjXQplbnRpdHkgb3JhY2xlMi0tPjxnIGlkPSJlbGVtX29yYWNsZTIiPjxwYXRoIGQ9Ik01MDYuNSw5OTUuNDg0NCBDNTA2LjUsOTg1LjQ4NDQgNTYyLDk4NS40ODQ0IDU2Miw5ODUuNDg0NCBDNTYyLDk4NS40ODQ0IDYxNy41LDk4NS40ODQ0IDYxNy41LDk5NS40ODQ0IEw2MTcuNSwxMDQyLjQ1MzEgQzYxNy41LDEwNTIuNDUzMSA1NjIsMTA1Mi40NTMxIDU2MiwxMDUyLjQ1MzEgQzU2MiwxMDUyLjQ1MzEgNTA2LjUsMTA1Mi40NTMxIDUwNi41LDEwNDIuNDUzMSBMNTA2LjUsOTk1LjQ4NDQgIiBmaWxsPSIjRjFGMUYxIiBzdHlsZT0ic3Ryb2tlOiMxODE4MTg7c3Ryb2tlLXdpZHRoOjAuNTsiLz48cGF0aCBkPSJNNTA2LjUsOTk1LjQ4NDQgQzUwNi41LDEwMDUuNDg0NCA1NjIsMTAwNS40ODQ0IDU2MiwxMDA1LjQ4NDQgQzU2MiwxMDA1LjQ4NDQgNjE3LjUsMTAwNS40ODQ0IDYxNy41LDk5NS40ODQ0ICIgZmlsbD0ibm9uZSIgc3R5bGU9InN0cm9rZTojMTgxODE4O3N0cm9rZS13aWR0aDowLjU7Ii8+PHRleHQgZmlsbD0iIzAwMDAwMCIgZm9udC1mYW1pbHk9InNhbnMtc2VyaWYiIGZvbnQtc2l6ZT0iMTQiIGxlbmd0aEFkanVzdD0ic3BhY2luZyIgdGV4dExlbmd0aD0iNTYiIHg9IjUxNi41IiB5PSIxMDIyLjcxODgiPm9yYWNsZeS7jjwvdGV4dD48cGF0aCBkPSJNNTA2LjUsMTAxOS40Njg4IEM1MDYuNSwxMDI5LjQ2ODggNTYyLDEwMjkuNDY4OCA1NjIsMTAyOS40Njg4IEM1NjIsMTAyOS40Njg4IDYxNy41LDEwMjkuNDY4OCA2MTcuNSwxMDE5LjQ2ODggIiBmaWxsPSJub25lIiBzdHlsZT0ic3Ryb2tlOiMxODE4MTg7c3Ryb2tlLXdpZHRoOjEuMDsiLz48dGV4dCBmaWxsPSIjMDAwMDAwIiBmb250LWZhbWlseT0ic2Fucy1zZXJpZiIgZm9udC1zaXplPSIxNCIgbGVuZ3RoQWRqdXN0PSJzcGFjaW5nIiB0ZXh0TGVuZ3RoPSI5MSIgeD0iNTE2LjUiIHk9IjEwNDEuNzAzMSI+MTAuMTY5LjE1LjEwMTwvdGV4dD48L2c+PCEtLU1ENT1bZmM0MDJkNGU5OGYyMjc2ZjZmN2U4YmYzM2Y1ZWEzNmJdCmVudGl0eSBteXNxbDEtLT48ZyBpZD0iZWxlbV9teXNxbDEiPjxwYXRoIGQ9Ik0zNjAuNSw3NzcuNDg0NCBDMzYwLjUsNzY3LjQ4NDQgNDE2LDc2Ny40ODQ0IDQxNiw3NjcuNDg0NCBDNDE2LDc2Ny40ODQ0IDQ3MS41LDc2Ny40ODQ0IDQ3MS41LDc3Ny40ODQ0IEw0NzEuNSw4MjQuNDUzMSBDNDcxLjUsODM0LjQ1MzEgNDE2LDgzNC40NTMxIDQxNiw4MzQuNDUzMSBDNDE2LDgzNC40NTMxIDM2MC41LDgzNC40NTMxIDM2MC41LDgyNC40NTMxIEwzNjAuNSw3NzcuNDg0NCAiIGZpbGw9IiNGMUYxRjEiIHN0eWxlPSJzdHJva2U6IzE4MTgxODtzdHJva2Utd2lkdGg6MC41OyIvPjxwYXRoIGQ9Ik0zNjAuNSw3NzcuNDg0NCBDMzYwLjUsNzg3LjQ4NDQgNDE2LDc4Ny40ODQ0IDQxNiw3ODcuNDg0NCBDNDE2LDc4Ny40ODQ0IDQ3MS41LDc4Ny40ODQ0IDQ3MS41LDc3Ny40ODQ0ICIgZmlsbD0ibm9uZSIgc3R5bGU9InN0cm9rZTojMTgxODE4O3N0cm9rZS13aWR0aDowLjU7Ii8+PHRleHQgZmlsbD0iIzAwMDAwMCIgZm9udC1mYW1pbHk9InNhbnMtc2VyaWYiIGZvbnQtc2l6ZT0iMTQiIGxlbmd0aEFkanVzdD0ic3BhY2luZyIgdGV4dExlbmd0aD0iNTAiIHg9IjM3MC41IiB5PSI4MDQuNzE4OCI+bXlzcWzkuLs8L3RleHQ+PHBhdGggZD0iTTM2MC41LDgwMS40Njg4IEMzNjAuNSw4MTEuNDY4OCA0MTYsODExLjQ2ODggNDE2LDgxMS40Njg4IEM0MTYsODExLjQ2ODggNDcxLjUsODExLjQ2ODggNDcxLjUsODAxLjQ2ODggIiBmaWxsPSJub25lIiBzdHlsZT0ic3Ryb2tlOiMxODE4MTg7c3Ryb2tlLXdpZHRoOjEuMDsiLz48dGV4dCBmaWxsPSIjMDAwMDAwIiBmb250LWZhbWlseT0ic2Fucy1zZXJpZiIgZm9udC1zaXplPSIxNCIgbGVuZ3RoQWRqdXN0PSJzcGFjaW5nIiB0ZXh0TGVuZ3RoPSI5MSIgeD0iMzcwLjUiIHk9IjgyMy43MDMxIj4xMC4xNjkuMTUuMTAyPC90ZXh0PjwvZz48IS0tTUQ1PVs1ZjJmOWRiYmVlNjkyMDU4ZDYwNDg5MTgwNjkzZjc3NF0KZW50aXR5IHVzZXJzLS0+PGcgaWQ9ImVsZW1fdXNlcnMiPjxlbGxpcHNlIGN4PSI0MTQiIGN5PSI0OS45ODQ0IiBmaWxsPSIjRjFGMUYxIiByeD0iOCIgcnk9IjgiIHN0eWxlPSJzdHJva2U6IzE4MTgxODtzdHJva2Utd2lkdGg6MC41OyIvPjxwYXRoIGQ9Ik00MTQsNTcuOTg0NCBMNDE0LDg0Ljk4NDQgTTQwMSw2NS45ODQ0IEw0MjcsNjUuOTg0NCBNNDE0LDg0Ljk4NDQgTDQwMSw5OS45ODQ0IE00MTQsODQuOTg0NCBMNDI3LDk5Ljk4NDQgIiBmaWxsPSJub25lIiBzdHlsZT0ic3Ryb2tlOiMxODE4MTg7c3Ryb2tlLXdpZHRoOjAuNTsiLz48dGV4dCBmaWxsPSIjMDAwMDAwIiBmb250LWZhbWlseT0ic2Fucy1zZXJpZiIgZm9udC1zaXplPSIxNCIgbGVuZ3RoQWRqdXN0PSJzcGFjaW5nIiB0ZXh0TGVuZ3RoPSI3MCIgeD0iMzc5IiB5PSIxMTQuNzE4OCI+5LqS6IGU572R55So5oi3PC90ZXh0PjwvZz48ZyBpZD0iZWxlbV9HTU4zIj48cGF0aCBkPSJNNDg0LjUsNjYuOTg0NCBMNDg0LjUsNzQuOTg0NCBMNDQ5LjA3LDc4Ljk4NDQgTDQ4NC41LDgyLjk4NDQgTDQ4NC41LDkwLjg5ODQgQTAsMCAwIDAgMCA0ODQuNSw5MC44OTg0IEw2MDkuNSw5MC44OTg0IEEwLDAgMCAwIDAgNjA5LjUsOTAuODk4NCBMNjA5LjUsNzYuOTg0NCBMNTk5LjUsNjYuOTg0NCBMNDg0LjUsNjYuOTg0NCBBMCwwIDAgMCAwIDQ4NC41LDY2Ljk4NDQgIiBmaWxsPSIjRkVGRkREIiBzdHlsZT0ic3Ryb2tlOiMxODE4MTg7c3Ryb2tlLXdpZHRoOjAuNTsiLz48cGF0aCBkPSJNNTk5LjUsNjYuOTg0NCBMNTk5LjUsNzYuOTg0NCBMNjA5LjUsNzYuOTg0NCBMNTk5LjUsNjYuOTg0NCAiIGZpbGw9IiNGRUZGREQiIHN0eWxlPSJzdHJva2U6IzE4MTgxODtzdHJva2Utd2lkdGg6MC41OyIvPjx0ZXh0IGZpbGw9IiMwMDAwMDAiIGZvbnQtZmFtaWx5PSJzYW5zLXNlcmlmIiBmb250LXNpemU9IjEzIiBsZW5ndGhBZGp1c3Q9InNwYWNpbmciIHRleHRMZW5ndGg9IjEwNCIgeD0iNDkwLjUiIHk9Ijg0LjI3MzQiPuS7juS6kuiBlOe9keadpeeahOeUqOaItzwvdGV4dD48L2c+PCEtLU1ENT1bYzg1YzNmN2E4YTJiYWRlNTc5ZTRmZDNiZDEzZTA5NGVdCmVudGl0eSBvcC0tPjxnIGlkPSJlbGVtX29wIj48ZWxsaXBzZSBjeD0iMjc2IiBjeT0iMTg1Ljk4NDQiIGZpbGw9IiNGMUYxRjEiIHJ4PSI4IiByeT0iOCIgc3R5bGU9InN0cm9rZTojMTgxODE4O3N0cm9rZS13aWR0aDowLjU7Ii8+PHBhdGggZD0iTTI3NiwxOTMuOTg0NCBMMjc2LDIyMC45ODQ0IE0yNjMsMjAxLjk4NDQgTDI4OSwyMDEuOTg0NCBNMjc2LDIyMC45ODQ0IEwyNjMsMjM1Ljk4NDQgTTI3NiwyMjAuOTg0NCBMMjg5LDIzNS45ODQ0ICIgZmlsbD0ibm9uZSIgc3R5bGU9InN0cm9rZTojMTgxODE4O3N0cm9rZS13aWR0aDowLjU7Ii8+PHRleHQgZmlsbD0iIzAwMDAwMCIgZm9udC1mYW1pbHk9InNhbnMtc2VyaWYiIGZvbnQtc2l6ZT0iMTQiIGxlbmd0aEFkanVzdD0ic3BhY2luZyIgdGV4dExlbmd0aD0iMjgiIHg9IjI2MiIgeT0iMjUwLjcxODgiPuafnOWRmDwvdGV4dD48L2c+PCEtLU1ENT1bMTczOGIxMDI5MDc0NDE5NjQ1OWRkY2YxZDNkZGI0OGVdCmVudGl0eSBpdC0tPjxnIGlkPSJlbGVtX2l0Ij48ZWxsaXBzZSBjeD0iNzYxIiBjeT0iMTg1Ljk4NDQiIGZpbGw9IiNGMUYxRjEiIHJ4PSI4IiByeT0iOCIgc3R5bGU9InN0cm9rZTojMTgxODE4O3N0cm9rZS13aWR0aDowLjU7Ii8+PHBhdGggZD0iTTc2MSwxOTMuOTg0NCBMNzYxLDIyMC45ODQ0IE03NDgsMjAxLjk4NDQgTDc3NCwyMDEuOTg0NCBNNzYxLDIyMC45ODQ0IEw3NDgsMjM1Ljk4NDQgTTc2MSwyMjAuOTg0NCBMNzc0LDIzNS45ODQ0ICIgZmlsbD0ibm9uZSIgc3R5bGU9InN0cm9rZTojMTgxODE4O3N0cm9rZS13aWR0aDowLjU7Ii8+PHRleHQgZmlsbD0iIzAwMDAwMCIgZm9udC1mYW1pbHk9InNhbnMtc2VyaWYiIGZvbnQtc2l6ZT0iMTQiIGxlbmd0aEFkanVzdD0ic3BhY2luZyIgdGV4dExlbmd0aD0iMjgiIHg9Ijc0NyIgeT0iMjUwLjcxODgiPui/kOe7tDwvdGV4dD48L2c+PCEtLU1ENT1bYWJiZTNlYzExMTZkMjE2M2Q5NzNhMTNmM2ZjMzAzZjJdCmVudGl0eSBuZ2lueDEtLT48ZyBpZD0iZWxlbV9uZ2lueDEiPjxwb2x5Z29uIGZpbGw9IiNGMUYxRjEiIHBvaW50cz0iMzc2LjUsMzM3LjQ4NDQsMzg2LjUsMzI3LjQ4NDQsNDkzLjUsMzI3LjQ4NDQsNDkzLjUsNDIzLjQyMTksNDgzLjUsNDMzLjQyMTksMzc2LjUsNDMzLjQyMTksMzc2LjUsMzM3LjQ4NDQiIHN0eWxlPSJzdHJva2U6IzE4MTgxODtzdHJva2Utd2lkdGg6MC41OyIvPjxsaW5lIHN0eWxlPSJzdHJva2U6IzE4MTgxODtzdHJva2Utd2lkdGg6MC41OyIgeDE9IjQ4My41IiB4Mj0iNDkzLjUiIHkxPSIzMzcuNDg0NCIgeTI9IjMyNy40ODQ0Ii8+PGxpbmUgc3R5bGU9InN0cm9rZTojMTgxODE4O3N0cm9rZS13aWR0aDowLjU7IiB4MT0iMzc2LjUiIHgyPSI0ODMuNSIgeTE9IjMzNy40ODQ0IiB5Mj0iMzM3LjQ4NDQiLz48bGluZSBzdHlsZT0ic3Ryb2tlOiMxODE4MTg7c3Ryb2tlLXdpZHRoOjAuNTsiIHgxPSI0ODMuNSIgeDI9IjQ4My41IiB5MT0iMzM3LjQ4NDQiIHkyPSI0MzMuNDIxOSIvPjx0ZXh0IGZpbGw9IiMwMDAwMDAiIGZvbnQtZmFtaWx5PSJzYW5zLXNlcmlmIiBmb250LXNpemU9IjE0IiBsZW5ndGhBZGp1c3Q9InNwYWNpbmciIHRleHRMZW5ndGg9IjM1IiB4PSIzOTEuNSIgeT0iMzYwLjcxODgiPk5naW54PC90ZXh0PjxsaW5lIHN0eWxlPSJzdHJva2U6IzE4MTgxODtzdHJva2Utd2lkdGg6MS4wOyIgeDE9IjM3Ni41IiB4Mj0iNDgzLjUiIHkxPSIzNjIuNDY4OCIgeTI9IjM2Mi40Njg4Ii8+PGxpbmUgc3R5bGU9InN0cm9rZTojMTgxODE4O3N0cm9rZS13aWR0aDoxLjA7IiB4MT0iNDgzLjUiIHgyPSI0OTMuNSIgeTE9IjM2Mi40Njg4IiB5Mj0iMzUyLjQ2ODgiLz48dGV4dCBmaWxsPSIjMDAwMDAwIiBmb250LWZhbWlseT0ic2Fucy1zZXJpZiIgZm9udC1zaXplPSIxNCIgbGVuZ3RoQWRqdXN0PSJzcGFjaW5nIiB0ZXh0TGVuZ3RoPSI3NyIgeD0iMzkxLjUiIHk9IjM3OS43MDMxIj4xMC4xNjkuMTcuMTwvdGV4dD48bGluZSBzdHlsZT0ic3Ryb2tlOiMxODE4MTg7c3Ryb2tlLXdpZHRoOjEuMDsiIHgxPSIzNzYuNSIgeDI9IjQ4My41IiB5MT0iMzg1LjQ1MzEiIHkyPSIzODUuNDUzMSIvPjxsaW5lIHN0eWxlPSJzdHJva2U6IzE4MTgxODtzdHJva2Utd2lkdGg6MS4wOyIgeDE9IjQ4My41IiB4Mj0iNDkzLjUiIHkxPSIzODUuNDUzMSIgeTI9IjM3NS40NTMxIi8+PHRleHQgZmlsbD0iIzAwMDAwMCIgZm9udC1mYW1pbHk9InNhbnMtc2VyaWYiIGZvbnQtc2l6ZT0iMTQiIGxlbmd0aEFkanVzdD0ic3BhY2luZyIgdGV4dExlbmd0aD0iMTQiIHg9IjM5MS41IiB5PSI0MDIuNjg3NSI+ODA8L3RleHQ+PHRleHQgZmlsbD0iIzAwMDAwMCIgZm9udC1mYW1pbHk9InNhbnMtc2VyaWYiIGZvbnQtc2l6ZT0iMTQiIGxlbmd0aEFkanVzdD0ic3BhY2luZyIgdGV4dExlbmd0aD0iMjEiIHg9IjM5MS41IiB5PSI0MTcuNjcxOSI+NDQzPC90ZXh0PjwvZz48IS0tTUQ1PVs0YzQ4MjM2NWQyNGQxYzIxYjMwNzQ0OThiYzhiNTFjNV0KZW50aXR5IG5naW54Mi0tPjxnIGlkPSJlbGVtX25naW54MiI+PHBvbHlnb24gZmlsbD0iI0YxRjFGMSIgcG9pbnRzPSIyMjEuNSwzMzcuNDg0NCwyMzEuNSwzMjcuNDg0NCwzMzguNSwzMjcuNDg0NCwzMzguNSw0MjMuNDIxOSwzMjguNSw0MzMuNDIxOSwyMjEuNSw0MzMuNDIxOSwyMjEuNSwzMzcuNDg0NCIgc3R5bGU9InN0cm9rZTojMTgxODE4O3N0cm9rZS13aWR0aDowLjU7Ii8+PGxpbmUgc3R5bGU9InN0cm9rZTojMTgxODE4O3N0cm9rZS13aWR0aDowLjU7IiB4MT0iMzI4LjUiIHgyPSIzMzguNSIgeTE9IjMzNy40ODQ0IiB5Mj0iMzI3LjQ4NDQiLz48bGluZSBzdHlsZT0ic3Ryb2tlOiMxODE4MTg7c3Ryb2tlLXdpZHRoOjAuNTsiIHgxPSIyMjEuNSIgeDI9IjMyOC41IiB5MT0iMzM3LjQ4NDQiIHkyPSIzMzcuNDg0NCIvPjxsaW5lIHN0eWxlPSJzdHJva2U6IzE4MTgxODtzdHJva2Utd2lkdGg6MC41OyIgeDE9IjMyOC41IiB4Mj0iMzI4LjUiIHkxPSIzMzcuNDg0NCIgeTI9IjQzMy40MjE5Ii8+PHRleHQgZmlsbD0iIzAwMDAwMCIgZm9udC1mYW1pbHk9InNhbnMtc2VyaWYiIGZvbnQtc2l6ZT0iMTQiIGxlbmd0aEFkanVzdD0ic3BhY2luZyIgdGV4dExlbmd0aD0iMzUiIHg9IjIzNi41IiB5PSIzNjAuNzE4OCI+Tmdpbng8L3RleHQ+PGxpbmUgc3R5bGU9InN0cm9rZTojMTgxODE4O3N0cm9rZS13aWR0aDoxLjA7IiB4MT0iMjIxLjUiIHgyPSIzMjguNSIgeTE9IjM2Mi40Njg4IiB5Mj0iMzYyLjQ2ODgiLz48bGluZSBzdHlsZT0ic3Ryb2tlOiMxODE4MTg7c3Ryb2tlLXdpZHRoOjEuMDsiIHgxPSIzMjguNSIgeDI9IjMzOC41IiB5MT0iMzYyLjQ2ODgiIHkyPSIzNTIuNDY4OCIvPjx0ZXh0IGZpbGw9IiMwMDAwMDAiIGZvbnQtZmFtaWx5PSJzYW5zLXNlcmlmIiBmb250LXNpemU9IjE0IiBsZW5ndGhBZGp1c3Q9InNwYWNpbmciIHRleHRMZW5ndGg9Ijc3IiB4PSIyMzYuNSIgeT0iMzc5LjcwMzEiPjEwLjE2OS4xNy4yPC90ZXh0PjxsaW5lIHN0eWxlPSJzdHJva2U6IzE4MTgxODtzdHJva2Utd2lkdGg6MS4wOyIgeDE9IjIyMS41IiB4Mj0iMzI4LjUiIHkxPSIzODUuNDUzMSIgeTI9IjM4NS40NTMxIi8+PGxpbmUgc3R5bGU9InN0cm9rZTojMTgxODE4O3N0cm9rZS13aWR0aDoxLjA7IiB4MT0iMzI4LjUiIHgyPSIzMzguNSIgeTE9IjM4NS40NTMxIiB5Mj0iMzc1LjQ1MzEiLz48dGV4dCBmaWxsPSIjMDAwMDAwIiBmb250LWZhbWlseT0ic2Fucy1zZXJpZiIgZm9udC1zaXplPSIxNCIgbGVuZ3RoQWRqdXN0PSJzcGFjaW5nIiB0ZXh0TGVuZ3RoPSIxNCIgeD0iMjM2LjUiIHk9IjQwMi42ODc1Ij44MDwvdGV4dD48dGV4dCBmaWxsPSIjMDAwMDAwIiBmb250LWZhbWlseT0ic2Fucy1zZXJpZiIgZm9udC1zaXplPSIxNCIgbGVuZ3RoQWRqdXN0PSJzcGFjaW5nIiB0ZXh0TGVuZ3RoPSIyMSIgeD0iMjM2LjUiIHk9IjQxNy42NzE5Ij40NDM8L3RleHQ+PC9nPjxnIGlkPSJlbGVtX0dNTjE2Ij48cGF0aCBkPSJNNzMyLDY5MS40ODQ0IEw3MzIsOTEwLjE5NTMgTDg5Niw5MTAuMTk1MyBMODk2LDcwMS40ODQ0IEw4ODYsNjkxLjQ4NDQgTDczMiw2OTEuNDg0NCAiIGZpbGw9IiMwMDgwMDAiIHN0eWxlPSJzdHJva2U6IzE4MTgxODtzdHJva2Utd2lkdGg6MC41OyIvPjxwYXRoIGQ9Ik04ODYsNjkxLjQ4NDQgTDg4Niw3MDEuNDg0NCBMODk2LDcwMS40ODQ0IEw4ODYsNjkxLjQ4NDQgIiBmaWxsPSIjMDA4MDAwIiBzdHlsZT0ic3Ryb2tlOiMxODE4MTg7c3Ryb2tlLXdpZHRoOjEuMDsiLz48dGV4dCBmaWxsPSIjMDAwMDAwIiBmb250LWZhbWlseT0ic2Fucy1zZXJpZiIgZm9udC1zaXplPSIxMyIgbGVuZ3RoQWRqdXN0PSJzcGFjaW5nIiB0ZXh0TGVuZ3RoPSIxNDMiIHg9IjczOCIgeT0iNzA4Ljc3MzQiPnRvbWNhdOeahOacjeWKoemcgOimgeeahOerr+WPozwvdGV4dD48dGV4dCBmaWxsPSIjMDAwMDAwIiBmb250LWZhbWlseT0ic2Fucy1zZXJpZiIgZm9udC1zaXplPSIxMyIgbGVuZ3RoQWRqdXN0PSJzcGFjaW5nIiB0ZXh0TGVuZ3RoPSIxMyIgeD0iNzM4IiB5PSI3MjIuNjg3NSI+MS48L3RleHQ+PHRleHQgZmlsbD0iIzAwMDAwMCIgZm9udC1mYW1pbHk9InNhbnMtc2VyaWYiIGZvbnQtc2l6ZT0iMTMiIGxlbmd0aEFkanVzdD0ic3BhY2luZyIgdGV4dExlbmd0aD0iMjgiIHg9Ijc1NyIgeT0iNzIyLjY4NzUiPjgwMzA8L3RleHQ+PHRleHQgZmlsbD0iIzAwMDAwMCIgZm9udC1mYW1pbHk9InNhbnMtc2VyaWYiIGZvbnQtc2l6ZT0iMTMiIGxlbmd0aEFkanVzdD0ic3BhY2luZyIgdGV4dExlbmd0aD0iMTMiIHg9IjczOCIgeT0iNzM2LjYwMTYiPjIuPC90ZXh0Pjx0ZXh0IGZpbGw9IiMwMDAwMDAiIGZvbnQtZmFtaWx5PSJzYW5zLXNlcmlmIiBmb250LXNpemU9IjEzIiBsZW5ndGhBZGp1c3Q9InNwYWNpbmciIHRleHRMZW5ndGg9IjI4IiB4PSI3NTciIHk9IjczNi42MDE2Ij44MDMxPC90ZXh0Pjx0ZXh0IGZpbGw9IiMwMDAwMDAiIGZvbnQtZmFtaWx5PSJzYW5zLXNlcmlmIiBmb250LXNpemU9IjEzIiBsZW5ndGhBZGp1c3Q9InNwYWNpbmciIHRleHRMZW5ndGg9IjEzIiB4PSI3MzgiIHk9Ijc1MC41MTU2Ij4zLjwvdGV4dD48dGV4dCBmaWxsPSIjMDAwMDAwIiBmb250LWZhbWlseT0ic2Fucy1zZXJpZiIgZm9udC1zaXplPSIxMyIgbGVuZ3RoQWRqdXN0PSJzcGFjaW5nIiB0ZXh0TGVuZ3RoPSIyOCIgeD0iNzU3IiB5PSI3NTAuNTE1NiI+ODAzMjwvdGV4dD48dGV4dCBmaWxsPSIjMDAwMDAwIiBmb250LWZhbWlseT0ic2Fucy1zZXJpZiIgZm9udC1zaXplPSIxMyIgbGVuZ3RoQWRqdXN0PSJzcGFjaW5nIiB0ZXh0TGVuZ3RoPSIxMyIgeD0iNzM4IiB5PSI3NjQuNDI5NyI+NC48L3RleHQ+PHRleHQgZmlsbD0iIzAwMDAwMCIgZm9udC1mYW1pbHk9InNhbnMtc2VyaWYiIGZvbnQtc2l6ZT0iMTMiIGxlbmd0aEFkanVzdD0ic3BhY2luZyIgdGV4dExlbmd0aD0iMjgiIHg9Ijc1NyIgeT0iNzY0LjQyOTciPjgwMzM8L3RleHQ+PHRleHQgZmlsbD0iIzAwMDAwMCIgZm9udC1mYW1pbHk9InNhbnMtc2VyaWYiIGZvbnQtc2l6ZT0iMTMiIGxlbmd0aEFkanVzdD0ic3BhY2luZyIgdGV4dExlbmd0aD0iMTMiIHg9IjczOCIgeT0iNzc4LjM0MzgiPjUuPC90ZXh0Pjx0ZXh0IGZpbGw9IiMwMDAwMDAiIGZvbnQtZmFtaWx5PSJzYW5zLXNlcmlmIiBmb250LXNpemU9IjEzIiBsZW5ndGhBZGp1c3Q9InNwYWNpbmciIHRleHRMZW5ndGg9IjI4IiB4PSI3NTciIHk9Ijc3OC4zNDM4Ij44MDM0PC90ZXh0Pjx0ZXh0IGZpbGw9IiMwMDAwMDAiIGZvbnQtZmFtaWx5PSJzYW5zLXNlcmlmIiBmb250LXNpemU9IjEzIiBsZW5ndGhBZGp1c3Q9InNwYWNpbmciIHRleHRMZW5ndGg9IjEzIiB4PSI3MzgiIHk9Ijc5Mi4yNTc4Ij42LjwvdGV4dD48dGV4dCBmaWxsPSIjMDAwMDAwIiBmb250LWZhbWlseT0ic2Fucy1zZXJpZiIgZm9udC1zaXplPSIxMyIgbGVuZ3RoQWRqdXN0PSJzcGFjaW5nIiB0ZXh0TGVuZ3RoPSIyOCIgeD0iNzU3IiB5PSI3OTIuMjU3OCI+ODAzNTwvdGV4dD48dGV4dCBmaWxsPSIjMDAwMDAwIiBmb250LWZhbWlseT0ic2Fucy1zZXJpZiIgZm9udC1zaXplPSIxMyIgbGVuZ3RoQWRqdXN0PSJzcGFjaW5nIiB0ZXh0TGVuZ3RoPSIxMyIgeD0iNzM4IiB5PSI4MDYuMTcxOSI+Ny48L3RleHQ+PHRleHQgZmlsbD0iIzAwMDAwMCIgZm9udC1mYW1pbHk9InNhbnMtc2VyaWYiIGZvbnQtc2l6ZT0iMTMiIGxlbmd0aEFkanVzdD0ic3BhY2luZyIgdGV4dExlbmd0aD0iMjgiIHg9Ijc1NyIgeT0iODA2LjE3MTkiPjgwMzY8L3RleHQ+PHRleHQgZmlsbD0iIzAwMDAwMCIgZm9udC1mYW1pbHk9InNhbnMtc2VyaWYiIGZvbnQtc2l6ZT0iMTMiIGxlbmd0aEFkanVzdD0ic3BhY2luZyIgdGV4dExlbmd0aD0iMTMiIHg9IjczOCIgeT0iODIwLjA4NTkiPjguPC90ZXh0Pjx0ZXh0IGZpbGw9IiMwMDAwMDAiIGZvbnQtZmFtaWx5PSJzYW5zLXNlcmlmIiBmb250LXNpemU9IjEzIiBsZW5ndGhBZGp1c3Q9InNwYWNpbmciIHRleHRMZW5ndGg9IjI4IiB4PSI3NTciIHk9IjgyMC4wODU5Ij44MDM4PC90ZXh0Pjx0ZXh0IGZpbGw9IiMwMDAwMDAiIGZvbnQtZmFtaWx5PSJzYW5zLXNlcmlmIiBmb250LXNpemU9IjEzIiBsZW5ndGhBZGp1c3Q9InNwYWNpbmciIHRleHRMZW5ndGg9IjEzIiB4PSI3MzgiIHk9IjgzNCI+OS48L3RleHQ+PHRleHQgZmlsbD0iIzAwMDAwMCIgZm9udC1mYW1pbHk9InNhbnMtc2VyaWYiIGZvbnQtc2l6ZT0iMTMiIGxlbmd0aEFkanVzdD0ic3BhY2luZyIgdGV4dExlbmd0aD0iMjgiIHg9Ijc1NyIgeT0iODM0Ij44MDM5PC90ZXh0Pjx0ZXh0IGZpbGw9IiMwMDAwMDAiIGZvbnQtZmFtaWx5PSJzYW5zLXNlcmlmIiBmb250LXNpemU9IjEzIiBsZW5ndGhBZGp1c3Q9InNwYWNpbmciIHRleHRMZW5ndGg9IjIwIiB4PSI3MzgiIHk9Ijg0Ny45MTQxIj4xMC48L3RleHQ+PHRleHQgZmlsbD0iIzAwMDAwMCIgZm9udC1mYW1pbHk9InNhbnMtc2VyaWYiIGZvbnQtc2l6ZT0iMTMiIGxlbmd0aEFkanVzdD0ic3BhY2luZyIgdGV4dExlbmd0aD0iMjgiIHg9Ijc2NCIgeT0iODQ3LjkxNDEiPjgwNDU8L3RleHQ+PHRleHQgZmlsbD0iIzAwMDAwMCIgZm9udC1mYW1pbHk9InNhbnMtc2VyaWYiIGZvbnQtc2l6ZT0iMTMiIGxlbmd0aEFkanVzdD0ic3BhY2luZyIgdGV4dExlbmd0aD0iMjAiIHg9IjczOCIgeT0iODYxLjgyODEiPjExLjwvdGV4dD48dGV4dCBmaWxsPSIjMDAwMDAwIiBmb250LWZhbWlseT0ic2Fucy1zZXJpZiIgZm9udC1zaXplPSIxMyIgbGVuZ3RoQWRqdXN0PSJzcGFjaW5nIiB0ZXh0TGVuZ3RoPSIyOCIgeD0iNzY0IiB5PSI4NjEuODI4MSI+ODA2MDwvdGV4dD48dGV4dCBmaWxsPSIjMDAwMDAwIiBmb250LWZhbWlseT0ic2Fucy1zZXJpZiIgZm9udC1zaXplPSIxMyIgbGVuZ3RoQWRqdXN0PSJzcGFjaW5nIiB0ZXh0TGVuZ3RoPSIyMCIgeD0iNzM4IiB5PSI4NzUuNzQyMiI+MTIuPC90ZXh0Pjx0ZXh0IGZpbGw9IiMwMDAwMDAiIGZvbnQtZmFtaWx5PSJzYW5zLXNlcmlmIiBmb250LXNpemU9IjEzIiBsZW5ndGhBZGp1c3Q9InNwYWNpbmciIHRleHRMZW5ndGg9IjI4IiB4PSI3NjQiIHk9Ijg3NS43NDIyIj44MDYxPC90ZXh0Pjx0ZXh0IGZpbGw9IiMwMDAwMDAiIGZvbnQtZmFtaWx5PSJzYW5zLXNlcmlmIiBmb250LXNpemU9IjEzIiBsZW5ndGhBZGp1c3Q9InNwYWNpbmciIHRleHRMZW5ndGg9IjIwIiB4PSI3MzgiIHk9Ijg4OS42NTYzIj4xMy48L3RleHQ+PHRleHQgZmlsbD0iIzAwMDAwMCIgZm9udC1mYW1pbHk9InNhbnMtc2VyaWYiIGZvbnQtc2l6ZT0iMTMiIGxlbmd0aEFkanVzdD0ic3BhY2luZyIgdGV4dExlbmd0aD0iMjgiIHg9Ijc2NCIgeT0iODg5LjY1NjMiPjg4ODA8L3RleHQ+PHRleHQgZmlsbD0iIzAwMDAwMCIgZm9udC1mYW1pbHk9InNhbnMtc2VyaWYiIGZvbnQtc2l6ZT0iMTMiIGxlbmd0aEFkanVzdD0ic3BhY2luZyIgdGV4dExlbmd0aD0iMjAiIHg9IjczOCIgeT0iOTAzLjU3MDMiPjE0LjwvdGV4dD48dGV4dCBmaWxsPSIjMDAwMDAwIiBmb250LWZhbWlseT0ic2Fucy1zZXJpZiIgZm9udC1zaXplPSIxMyIgbGVuZ3RoQWRqdXN0PSJzcGFjaW5nIiB0ZXh0TGVuZ3RoPSIyOCIgeD0iNzY0IiB5PSI5MDMuNTcwMyI+ODg4MTwvdGV4dD48L2c+PGcgaWQ9ImVsZW1fR01OMTkiPjxwYXRoIGQ9Ik01MjksMzQwLjQ4NDQgTDUyOSw0MjAuMDU0NyBMNzYxLDQyMC4wNTQ3IEw3NjEsMzUwLjQ4NDQgTDc1MSwzNDAuNDg0NCBMNTI5LDM0MC40ODQ0ICIgZmlsbD0iIzAwODAwMCIgc3R5bGU9InN0cm9rZTojMTgxODE4O3N0cm9rZS13aWR0aDowLjU7Ii8+PHBhdGggZD0iTTc1MSwzNDAuNDg0NCBMNzUxLDM1MC40ODQ0IEw3NjEsMzUwLjQ4NDQgTDc1MSwzNDAuNDg0NCAiIGZpbGw9IiMwMDgwMDAiIHN0eWxlPSJzdHJva2U6IzE4MTgxODtzdHJva2Utd2lkdGg6MS4wOyIvPjx0ZXh0IGZpbGw9IiMwMDAwMDAiIGZvbnQtZmFtaWx5PSJzYW5zLXNlcmlmIiBmb250LXNpemU9IjEzIiBsZW5ndGhBZGp1c3Q9InNwYWNpbmciIHRleHRMZW5ndGg9IjIxMSIgeD0iNTM1IiB5PSIzNTcuNzczNCI+em9va2VlcGVyXGR1YmJvXHJlZGlz6ZyA6KaB55qE56uv5Y+jPC90ZXh0Pjx0ZXh0IGZpbGw9IiMwMDAwMDAiIGZvbnQtZmFtaWx5PSJzYW5zLXNlcmlmIiBmb250LXNpemU9IjEzIiBsZW5ndGhBZGp1c3Q9InNwYWNpbmciIHRleHRMZW5ndGg9IjI4IiB4PSI1MzUiIHk9IjM3MS42ODc1Ij4yMTgxPC90ZXh0Pjx0ZXh0IGZpbGw9IiMwMDAwMDAiIGZvbnQtZmFtaWx5PSJzYW5zLXNlcmlmIiBmb250LXNpemU9IjEzIiBsZW5ndGhBZGp1c3Q9InNwYWNpbmciIHRleHRMZW5ndGg9IjI4IiB4PSI1MzUiIHk9IjM4NS42MDE2Ij42Mzc5PC90ZXh0Pjx0ZXh0IGZpbGw9IiMwMDAwMDAiIGZvbnQtZmFtaWx5PSJzYW5zLXNlcmlmIiBmb250LXNpemU9IjEzIiBsZW5ndGhBZGp1c3Q9InNwYWNpbmciIHRleHRMZW5ndGg9IjM1IiB4PSI1MzUiIHk9IjM5OS41MTU2Ij4yNjM3OTwvdGV4dD48dGV4dCBmaWxsPSIjMDAwMDAwIiBmb250LWZhbWlseT0ic2Fucy1zZXJpZiIgZm9udC1zaXplPSIxMyIgbGVuZ3RoQWRqdXN0PSJzcGFjaW5nIiB0ZXh0TGVuZ3RoPSIzNSIgeD0iNTM1IiB5PSI0MTMuNDI5NyI+NjE2MTY8L3RleHQ+PC9nPjxnIGlkPSJlbGVtX0dNTjI2Ij48cGF0aCBkPSJNOTM4LDU0NC45ODQ0IEw5MzgsNTk2LjcyNjYgTDEwMjIsNTk2LjcyNjYgTDEwMjIsNTU0Ljk4NDQgTDEwMTIsNTQ0Ljk4NDQgTDkzOCw1NDQuOTg0NCAiIGZpbGw9IiMwMDgwMDAiIHN0eWxlPSJzdHJva2U6IzE4MTgxODtzdHJva2Utd2lkdGg6MC41OyIvPjxwYXRoIGQ9Ik0xMDEyLDU0NC45ODQ0IEwxMDEyLDU1NC45ODQ0IEwxMDIyLDU1NC45ODQ0IEwxMDEyLDU0NC45ODQ0ICIgZmlsbD0iIzAwODAwMCIgc3R5bGU9InN0cm9rZTojMTgxODE4O3N0cm9rZS13aWR0aDoxLjA7Ii8+PHRleHQgZmlsbD0iIzAwMDAwMCIgZm9udC1mYW1pbHk9InNhbnMtc2VyaWYiIGZvbnQtc2l6ZT0iMTMiIGxlbmd0aEFkanVzdD0ic3BhY2luZyIgdGV4dExlbmd0aD0iNyIgeD0iOTQ0IiB5PSI1NjIuMjczNCI+wqA8L3RleHQ+PHRleHQgZmlsbD0iIzAwMDAwMCIgZm9udC1mYW1pbHk9InNhbnMtc2VyaWYiIGZvbnQtc2l6ZT0iMTMiIGxlbmd0aEFkanVzdD0ic3BhY2luZyIgdGV4dExlbmd0aD0iNjMiIHg9Ijk0NCIgeT0iNTc2LjE4NzUiPjE1MjEvMzMwNjwvdGV4dD48dGV4dCBmaWxsPSIjMDAwMDAwIiBmb250LWZhbWlseT0ic2Fucy1zZXJpZiIgZm9udC1zaXplPSIxMyIgbGVuZ3RoQWRqdXN0PSJzcGFjaW5nIiB0ZXh0TGVuZ3RoPSI3IiB4PSI5NDQiIHk9IjU5MC4xMDE2Ij7CoDwvdGV4dD48L2c+PCEtLU1ENT1bNTJiNGVlNzQ4MTkyN2M4MDFhNTc4ZDBlZGVjY2RmNTRdCmVudGl0eSBGNURldmljZS0tPjxnIGlkPSJlbGVtX0Y1RGV2aWNlIj48cG9seWdvbiBmaWxsPSIjRjFGMUYxIiBwb2ludHM9IjM1OSwyMDIuNDg0NCwzNjksMTkyLjQ4NDQsNDY5LDE5Mi40ODQ0LDQ2OSwyMjcuNDY4OCw0NTksMjM3LjQ2ODgsMzU5LDIzNy40Njg4LDM1OSwyMDIuNDg0NCIgc3R5bGU9InN0cm9rZTojMTgxODE4O3N0cm9rZS13aWR0aDowLjU7Ii8+PGxpbmUgc3R5bGU9InN0cm9rZTojMTgxODE4O3N0cm9rZS13aWR0aDowLjU7IiB4MT0iNDU5IiB4Mj0iNDY5IiB5MT0iMjAyLjQ4NDQiIHkyPSIxOTIuNDg0NCIvPjxsaW5lIHN0eWxlPSJzdHJva2U6IzE4MTgxODtzdHJva2Utd2lkdGg6MC41OyIgeDE9IjM1OSIgeDI9IjQ1OSIgeTE9IjIwMi40ODQ0IiB5Mj0iMjAyLjQ4NDQiLz48bGluZSBzdHlsZT0ic3Ryb2tlOiMxODE4MTg7c3Ryb2tlLXdpZHRoOjAuNTsiIHgxPSI0NTkiIHgyPSI0NTkiIHkxPSIyMDIuNDg0NCIgeTI9IjIzNy40Njg4Ii8+PHRleHQgZmlsbD0iIzAwMDAwMCIgZm9udC1mYW1pbHk9InNhbnMtc2VyaWYiIGZvbnQtc2l6ZT0iMTQiIGxlbmd0aEFkanVzdD0ic3BhY2luZyIgdGV4dExlbmd0aD0iNzAiIHg9IjM3NCIgeT0iMjI1LjcxODgiPkY16LSf6L295Z2H6KGhPC90ZXh0PjwvZz48IS0tTUQ1PVsxNTFiMzAxODhiMmQwOWNlYmMxMzdlMWRkNTRiMDEzOV0KbGluayDmnI3liqEgdG8gR01OMTYtLT48ZyBpZD0ibGlua1/mnI3liqFfR01OMTYiPjxwYXRoIGQ9Ik04MTQsNjM2LjY4NDggQzgxNCw2MzcuNDk2NyA4MTQsNjM4LjMxMjYgODE0LDYzOS4xMzI1IEM4MTQsNjQyLjQxMjEgODE0LDY0NS43NTQzIDgxNCw2NDkuMTQ1MiBDODE0LDY2Mi43MDg4IDgxNCw2NzcuMDUxOSA4MTQsNjkxLjI4NDQgIiBmaWxsPSJub25lIiBpZD0i5pyN5YqhLUdNTjE2IiBzdHlsZT0ic3Ryb2tlOiMxODE4MTg7c3Ryb2tlLXdpZHRoOjEuMDtzdHJva2UtZGFzaGFycmF5OjcuMCw3LjA7Ii8+PC9nPjwhLS1NRDU9W2RkYTRhYTExZmMzOWRkNmQwZmJlNjE0MWQxMmQ2OWEwXQpsaW5rIEdNTjE5IHRvIOacjeWKoS0tPjxnIGlkPSJsaW5rX0dNTjE5X+acjeWKoSI+PHBhdGggZD0iTTcyMS44Niw0MjAuNTk0NCBDNzUzLjQyLDQzOC4xMjQ0IDc4NC45NCw0NTguMDU0NCA3OTUsNDcyLjQ4NDQgQzc5OC4xMDc1LDQ3Ni45NDA2IDgwMC43MzgsNDgxLjc3NjQgODAyLjk2MTcsNDg2LjgzMDkgQzgwMy4xMDA3LDQ4Ny4xNDY4IDgwMy4yMzgxLDQ4Ny40NjM1IDgwMy4zNzM5LDQ4Ny43ODExIEM4MDMuNDQxOSw0ODcuOTM5OSA4MDMuNTA5NCw0ODguMDk4OSA4MDMuNTc2NSw0ODguMjU4MSAiIGZpbGw9Im5vbmUiIGlkPSJHTU4xOS3mnI3liqEiIHN0eWxlPSJzdHJva2U6IzE4MTgxODtzdHJva2Utd2lkdGg6MS4wO3N0cm9rZS1kYXNoYXJyYXk6Ny4wLDcuMDsiLz48L2c+PCEtLU1ENT1bMjRlMTBlOWY4Y2UyODNjNDViNjIyNDMzMTg4Y2Y2NTZdCmxpbmsgR01OMjYgdG8gZGItLT48ZyBpZD0ibGlua19HTU4yNl9kYiI+PHBhdGggZD0iTTk2Ny41OCw1OTcuMjA0NCBDOTU1Ljk0LDYxNy45OTQ0IDkzNi41Miw2NDYuNDM0NCA5MTEsNjYxLjQ4NDQgQzgzNS4xLDcwNi4yNTQ0IDc4Ny42NSw2NDEuNTk0NCA3MTUsNjkxLjQ4NDQgQzY5Mi40NjUsNzA2Ljk1OTQgNjc3LjA5MjUsNzMzLjQ4NDQgNjY3LjI5MTMsNzU2LjQzMzEgQzY2Ni4wNjYxLDc1OS4zMDE3IDY2NC45MjgsNzYyLjExNDQgNjYzLjg3MzgsNzY0Ljg0MjcgQzY2My4zNDY3LDc2Ni4yMDY4IDY2Mi44NDA2LDc2Ny41NDk5IDY2Mi4zNTUyLDc2OC44NjgyIEM2NjIuMTEyNCw3NjkuNTI3NCA2NjEuODc0OCw3NzAuMTgwNCA2NjEuNjQyMyw3NzAuODI2OCBDNjYxLjUyNjEsNzcxLjE0OTkgNjYxLjQxMTEsNzcxLjQ3MTUgNjYxLjI5NzQsNzcxLjc5MTMgQzY2MS4yNDA1LDc3MS45NTEyIDY2MS4xODQsNzcyLjExMDcgNjYxLjEyNzgsNzcyLjI2OTggIiBmaWxsPSJub25lIiBpZD0iR01OMjYtZGIiIHN0eWxlPSJzdHJva2U6IzE4MTgxODtzdHJva2Utd2lkdGg6MS4wO3N0cm9rZS1kYXNoYXJyYXk6Ny4wLDcuMDsiLz48L2c+PCEtLU1ENT1bMzQzYzRkYWY3MjUzOTI4MDliMmMzMzQ5YzQzZWZjNGNdCmxpbmsgdXNlcnMgdG8gRjVEZXZpY2UtLT48ZyBpZD0ibGlua191c2Vyc19GNURldmljZSI+PHBhdGggY29kZUxpbmU9IjEyMyIgZD0iTTQxNCwxMTYuNjA0NCBDNDE0LDEzOC45MzQ0IDQxNCwxNjYuOTg0NCA0MTQsMTg3LjI0NDQgIiBmaWxsPSJub25lIiBpZD0idXNlcnMtdG8tRjVEZXZpY2UiIHN0eWxlPSJzdHJva2U6IzE4MTgxODtzdHJva2Utd2lkdGg6MS4wOyIvPjxwb2x5Z29uIGZpbGw9IiMxODE4MTgiIHBvaW50cz0iNDE0LDE5Mi40NzQ0LDQxOCwxODMuNDc0NCw0MTQsMTg3LjQ3NDQsNDEwLDE4My40NzQ0LDQxNCwxOTIuNDc0NCIgc3R5bGU9InN0cm9rZTojMTgxODE4O3N0cm9rZS13aWR0aDoxLjA7Ii8+PC9nPjwhLS1NRDU9WzVjNmE3YmRhNWRhMGI2YWJiNzJhZTAwMmJkZTRmOGY5XQpsaW5rIG9wIHRvIG5naW54MS0tPjxnIGlkPSJsaW5rX29wX25naW54MSI+PHBhdGggY29kZUxpbmU9IjEyNCIgZD0iTTI5MC4xMSwyMzAuNDk0NCBDMzEwLjM1LDI1MS4zMDQ0IDM0OC43MywyOTAuNzc0NCAzODAuOTEsMzIzLjg2NDQgIiBmaWxsPSJub25lIiBpZD0ib3AtdG8tbmdpbngxIiBzdHlsZT0ic3Ryb2tlOiMxODE4MTg7c3Ryb2tlLXdpZHRoOjEuMDsiLz48cG9seWdvbiBmaWxsPSIjMTgxODE4IiBwb2ludHM9IjM4NC40LDMyNy40NTQ0LDM4MC45OTQ4LDMxOC4yMTI5LDM4MC45MTQ4LDMyMy44NjkyLDM3NS4yNTg1LDMyMy43ODkyLDM4NC40LDMyNy40NTQ0IiBzdHlsZT0ic3Ryb2tlOiMxODE4MTg7c3Ryb2tlLXdpZHRoOjEuMDsiLz48L2c+PCEtLU1ENT1bNjUyYjY2MzlhYTg2NzU4ZTVkYmYwZGZlYzg4Yjc2YmZdCmxpbmsgb3AgdG8gbmdpbngyLS0+PGcgaWQ9Imxpbmtfb3BfbmdpbngyIj48cGF0aCBjb2RlTGluZT0iMTI1IiBkPSJNMjc0LjA1LDI1Mi41NjQ0IEMyNzMuNjIsMjYyLjI4NDQgMjczLjIyLDI3Mi43NzQ0IDI3MywyODIuNDg0NCBDMjcyLjcxLDI5NS4zNzQ0IDI3My4yMiwzMDkuMjA0NCAyNzQuMDcsMzIyLjI2NDQgIiBmaWxsPSJub25lIiBpZD0ib3AtdG8tbmdpbngyIiBzdHlsZT0ic3Ryb2tlOiMxODE4MTg7c3Ryb2tlLXdpZHRoOjEuMDsiLz48cG9seWdvbiBmaWxsPSIjMTgxODE4IiBwb2ludHM9IjI3NC40MiwzMjcuNDI0NCwyNzcuNzY4NiwzMTguMTYyMywyNzQuMDYzOCwzMjIuNDM3MSwyNjkuNzg4OSwzMTguNzMyMiwyNzQuNDIsMzI3LjQyNDQiIHN0eWxlPSJzdHJva2U6IzE4MTgxODtzdHJva2Utd2lkdGg6MS4wOyIvPjx0ZXh0IGZpbGw9IiMwMDAwMDAiIGZvbnQtZmFtaWx5PSJzYW5zLXNlcmlmIiBmb250LXNpemU9IjEzIiBsZW5ndGhBZGp1c3Q9InNwYWNpbmciIHRleHRMZW5ndGg9IjUyIiB4PSIyNzQiIHk9IjI5NS43NzM0Ij7nm67liY3orr/pl648L3RleHQ+PC9nPjwhLS1NRDU9W2MwMGQ4NTZhNmNmZTQ5NDgyNDAyMDkwYTMyOThhNWRkXQpsaW5rIG9wIHRvIHRvbWNhdDUtLT48ZyBpZD0ibGlua19vcF90b21jYXQ1Ij48cGF0aCBjb2RlTGluZT0iMTI2IiBkPSJNMjYxLjkzLDIzNS41MDQ0IEMyNDYuNTcsMjU3LjI4NDQgMjIxLjgxLDI5My44OTQ0IDIwNCwzMjcuNDg0NCBDMTY4LjgyLDM5My44NDQ0IDEzNi4zOSw0NzQuODQ0NCAxMTcuNjYsNTI0LjQwNDQgIiBmaWxsPSJub25lIiBpZD0ib3AtdG8tdG9tY2F0NSIgc3R5bGU9InN0cm9rZTojMTgxODE4O3N0cm9rZS13aWR0aDoxLjA7Ii8+PHBvbHlnb24gZmlsbD0iIzE4MTgxOCIgcG9pbnRzPSIxMTUuODksNTI5LjA5NDQsMTIyLjgwMjUsNTIyLjA3ODgsMTE3LjY1MDMsNTI0LjQxNDUsMTE1LjMxNDcsNTE5LjI2MjMsMTE1Ljg5LDUyOS4wOTQ0IiBzdHlsZT0ic3Ryb2tlOiMxODE4MTg7c3Ryb2tlLXdpZHRoOjEuMDsiLz48L2c+PCEtLU1ENT1bMzM5Y2JlMzAyNzY1MjRhMTkwNDczMDYwMjAwZjhjM2ZdCmxpbmsgRjVEZXZpY2UgdG8gbmdpbngxLS0+PGcgaWQ9ImxpbmtfRjVEZXZpY2VfbmdpbngxIj48cGF0aCBjb2RlTGluZT0iMTI5IiBkPSJNNDE2Ljc5LDIzNy42OTQ0IEM0MTkuNTUsMjU5LjIxNDQgNDIzLjksMjkzLjA4NDQgNDI3LjY2LDMyMi4zMzQ0ICIgZmlsbD0ibm9uZSIgaWQ9IkY1RGV2aWNlLXRvLW5naW54MSIgc3R5bGU9InN0cm9rZTojMTgxODE4O3N0cm9rZS13aWR0aDoxLjA7Ii8+PHBvbHlnb24gZmlsbD0iIzE4MTgxOCIgcG9pbnRzPSI0MjguMzEsMzI3LjM2NDQsNDMxLjExOTMsMzE3LjkyNDcsNDI3LjY2NywzMjIuNDA1OSw0MjMuMTg1OCwzMTguOTUzNSw0MjguMzEsMzI3LjM2NDQiIHN0eWxlPSJzdHJva2U6IzE4MTgxODtzdHJva2Utd2lkdGg6MS4wOyIvPjwvZz48IS0tTUQ1PVs4NWM3MDkyOWUzZTFmYTY5ZjIzY2EzNjdhN2MxNGE1N10KbGluayBGNURldmljZSB0byBuZ2lueDItLT48ZyBpZD0ibGlua19GNURldmljZV9uZ2lueDIiPjxwYXRoIGNvZGVMaW5lPSIxMzEiIGQ9Ik0zOTYuMjEsMjM3LjY5NDQgQzM3OC4zNSwyNTkuNDc0NCAzNTAuMTIsMjkzLjkzNDQgMzI1Ljk1LDMyMy40MjQ0ICIgZmlsbD0ibm9uZSIgaWQ9IkY1RGV2aWNlLXRvLW5naW54MiIgc3R5bGU9InN0cm9rZTojMTgxODE4O3N0cm9rZS13aWR0aDoxLjA7Ii8+PHBvbHlnb24gZmlsbD0iIzE4MTgxOCIgcG9pbnRzPSIzMjIuNzIsMzI3LjM2NDQsMzMxLjUyNTcsMzIyLjk1MywzMjUuODk1NSwzMjMuNTAyMiwzMjUuMzQ2MiwzMTcuODcyMSwzMjIuNzIsMzI3LjM2NDQiIHN0eWxlPSJzdHJva2U6IzE4MTgxODtzdHJva2Utd2lkdGg6MS4wOyIvPjwvZz48IS0tTUQ1PVsyNDM2NDU1M2ZkM2M5NmM2NDQzN2RkOWJiMjU0MjM5Yl0KbGluayBuZ2lueDEgdG8gdG9tY2F0MS0tPjxnIGlkPSJsaW5rX25naW54MV90b21jYXQxIj48cGF0aCBjb2RlTGluZT0iMTM1IiBkPSJNNDcxLjY5LDQzMy40OTQ0IEM0OTMuOSw0NjQuOTY0NCA1MjEuNyw1MDQuMzU0NCA1NDEuNzEsNTMyLjcyNDQgIiBmaWxsPSJub25lIiBpZD0ibmdpbngxLXRvLXRvbWNhdDEiIHN0eWxlPSJzdHJva2U6IzE4MTgxODtzdHJva2Utd2lkdGg6MS4wOyIvPjxwb2x5Z29uIGZpbGw9IiMxODE4MTgiIHBvaW50cz0iNTQ0LjYxLDUzNi44MjQ0LDU0Mi42ODUxLDUyNy4xNjU1LDU0MS43MjU1LDUzMi43NDAzLDUzNi4xNTA2LDUzMS43ODA3LDU0NC42MSw1MzYuODI0NCIgc3R5bGU9InN0cm9rZTojMTgxODE4O3N0cm9rZS13aWR0aDoxLjA7Ii8+PC9nPjwhLS1NRDU9WzlkNDAyOGYwMzUwY2VkYmY3NmI4NGY4YzMxMjIxMThkXQpsaW5rIG5naW54MSB0byB0b21jYXQyLS0+PGcgaWQ9ImxpbmtfbmdpbngxX3RvbWNhdDIiPjxwYXRoIGNvZGVMaW5lPSIxMzciIGQ9Ik00OTMuNjIsNDIzLjY4NDQgQzQ5OS42OCw0MjcuMjU0NCA1MDUuODcsNDMwLjU5NDQgNTEyLDQzMy40ODQ0IEM1NjcuMzMsNDU5LjU3NDQgNTkzLjQ0LDQzOC4wNDQ0IDY0NCw0NzIuNDg0NCBDNjY2LjUyLDQ4Ny44MjQ0IDY4NS40LDUxMS45MzQ0IDY5OC43MSw1MzIuMzM0NCAiIGZpbGw9Im5vbmUiIGlkPSJuZ2lueDEtdG8tdG9tY2F0MiIgc3R5bGU9InN0cm9rZTojMTgxODE4O3N0cm9rZS13aWR0aDoxLjA7Ii8+PHBvbHlnb24gZmlsbD0iIzE4MTgxOCIgcG9pbnRzPSI3MDEuNDYsNTM2LjYzNDQsNjk5Ljk1NzksNTI2LjkwMDcsNjk4Ljc1NjIsNTMyLjQyODUsNjkzLjIyODUsNTMxLjIyNjgsNzAxLjQ2LDUzNi42MzQ0IiBzdHlsZT0ic3Ryb2tlOiMxODE4MTg7c3Ryb2tlLXdpZHRoOjEuMDsiLz48L2c+PCEtLU1ENT1bOWRhZjQxMDg2NWYxMjg5MDE5N2E2M2NiYTRiOWE0NjBdCmxpbmsgbmdpbngxIHRvIHRvbWNhdDMtLT48ZyBpZD0ibGlua19uZ2lueDFfdG9tY2F0MyI+PHBhdGggY29kZUxpbmU9IjEzOSIgZD0iTTQzNC40MSw0MzMuNjA0NCBDNDMxLjc4LDQ0NS4yNDQ0IDQyNi44Myw0NTYuNDk0NCA0MTgsNDY0LjQ4NDQgQzQwNS4wOCw0NzYuMTc0NCAzNTUuMjUsNDY0LjA0NDQgMzQwLDQ3Mi40ODQ0IEMzMTUuNjMsNDg1Ljk3NDQgMjk2LjQ0LDUxMC44MzQ0IDI4My40NCw1MzIuMDg0NCAiIGZpbGw9Im5vbmUiIGlkPSJuZ2lueDEtdG8tdG9tY2F0MyIgc3R5bGU9InN0cm9rZTojMTgxODE4O3N0cm9rZS13aWR0aDoxLjA7Ii8+PHBvbHlnb24gZmlsbD0iIzE4MTgxOCIgcG9pbnRzPSIyODAuNzYsNTM2LjU1NDQsMjg4LjgyMDQsNTMwLjg5NDksMjgzLjMzMjUsNTMyLjI2NjksMjgxLjk2MDUsNTI2Ljc3OSwyODAuNzYsNTM2LjU1NDQiIHN0eWxlPSJzdHJva2U6IzE4MTgxODtzdHJva2Utd2lkdGg6MS4wOyIvPjwvZz48IS0tTUQ1PVs3MzcxNWEyODVkYjI4NDZiNjFmYTgzMGViZWU1YmQwMV0KbGluayBuZ2lueDEgdG8gdG9tY2F0NC0tPjxnIGlkPSJsaW5rX25naW54MV90b21jYXQ0Ij48cGF0aCBjb2RlTGluZT0iMTQxIiBkPSJNNDU3Ljk5LDQzMy44MzQ0IEM0NjAuMTksNDQzLjkyNDQgNDYwLjk2LDQ1NC40NzQ0IDQ1OSw0NjQuNDg0NCBDNDU0LjQ0LDQ4Ny43NDQ0IDQ0NC43Myw1MTIuMzQ0NCA0MzUuNjgsNTMxLjk0NDQgIiBmaWxsPSJub25lIiBpZD0ibmdpbngxLXRvLXRvbWNhdDQiIHN0eWxlPSJzdHJva2U6IzE4MTgxODtzdHJva2Utd2lkdGg6MS4wOyIvPjxwb2x5Z29uIGZpbGw9IiMxODE4MTgiIHBvaW50cz0iNDMzLjQsNTM2LjgwNDQsNDQwLjg0ODUsNTMwLjM2MDgsNDM1LjUyNjksNTMyLjI3OTMsNDMzLjYwODQsNTI2Ljk1NzcsNDMzLjQsNTM2LjgwNDQiIHN0eWxlPSJzdHJva2U6IzE4MTgxODtzdHJva2Utd2lkdGg6MS4wOyIvPjwvZz48IS0tTUQ1PVtkM2JhMjJkMzY5YWIxMzM0YmM0NjRmMDljOGQyODQzMF0KbGluayBuZ2lueDIgdG8gdG9tY2F0MS0tPjxnIGlkPSJsaW5rX25naW54Ml90b21jYXQxIj48cGF0aCBjb2RlTGluZT0iMTQzIiBkPSJNMzA2LjQ5LDQzMy44NTQ0IEMzMTUuMTYsNDQ1LjkzNDQgMzI1Ljk5LDQ1Ny4zMzQ0IDMzOSw0NjQuNDg0NCBDMzY4Ljg0LDQ4MC44ODQ0IDQ2MS44MSw0NTYuNzQ0NCA0OTIsNDcyLjQ4NDQgQzUxNi44OCw0ODUuNDU0NCA1MzYuMTYsNTEwLjU5NDQgNTQ5LjA4LDUzMi4wOTQ0ICIgZmlsbD0ibm9uZSIgaWQ9Im5naW54Mi10by10b21jYXQxIiBzdHlsZT0ic3Ryb2tlOiMxODE4MTg7c3Ryb2tlLXdpZHRoOjEuMDsiLz48cG9seWdvbiBmaWxsPSIjMTgxODE4IiBwb2ludHM9IjU1MS43NCw1MzYuNjI0NCw1NTAuNjQwMSw1MjYuODM3MSw1NDkuMjExOCw1MzIuMzEwNyw1NDMuNzM4Miw1MzAuODgyMyw1NTEuNzQsNTM2LjYyNDQiIHN0eWxlPSJzdHJva2U6IzE4MTgxODtzdHJva2Utd2lkdGg6MS4wOyIvPjwvZz48IS0tTUQ1PVszNjQ1MDFiN2U2MWYwMTVhOGFkYTYyZDdmMzdhYjVmYV0KbGluayBuZ2lueDIgdG8gdG9tY2F0Mi0tPjxnIGlkPSJsaW5rX25naW54Ml90b21jYXQyIj48cGF0aCBjb2RlTGluZT0iMTQ1IiBkPSJNMzM4Ljg5LDQyNC4xODQ0IEMzNDUuNDYsNDI3Ljc0NDQgMzUyLjI0LDQzMC45NDQ0IDM1OSw0MzMuNDg0NCBDMzg4LjkyLDQ0NC43MTQ0IDYxNi4zLDQ1Ni41MzQ0IDY0NCw0NzIuNDg0NCBDNjY4LjE0LDQ4Ni4zODQ0IDY4Ny4zMyw1MTEuMjQ0NCA3MDAuMzksNTMyLjM4NDQgIiBmaWxsPSJub25lIiBpZD0ibmdpbngyLXRvLXRvbWNhdDIiIHN0eWxlPSJzdHJva2U6IzE4MTgxODtzdHJva2Utd2lkdGg6MS4wOyIvPjxwb2x5Z29uIGZpbGw9IiMxODE4MTgiIHBvaW50cz0iNzAzLjA5LDUzNi44MzQ0LDcwMS44NTExLDUyNy4wNjM3LDcwMC41MDA3LDUzMi41NTcsNjk1LjAwNzQsNTMxLjIwNjYsNzAzLjA5LDUzNi44MzQ0IiBzdHlsZT0ic3Ryb2tlOiMxODE4MTg7c3Ryb2tlLXdpZHRoOjEuMDsiLz48L2c+PCEtLU1ENT1bNTY3NzcwNjBlYzY2M2Y0NDcxZjAyNjExMDEwNGJhMjddCmxpbmsgbmdpbngyIHRvIHRvbWNhdDMtLT48ZyBpZD0ibGlua19uZ2lueDJfdG9tY2F0MyI+PHBhdGggY29kZUxpbmU9IjE0NyIgZD0iTTI2My4xMSw0MzMuNTI0NCBDMjYwLjU3LDQ0My4zNzQ0IDI1OC4zNSw0NTMuNjc0NCAyNTcsNDYzLjQ4NDQgQzI1My45LDQ4NS45OTQ0IDI1NS4zOCw1MTEuMzY0NCAyNTcuNzYsNTMxLjcwNDQgIiBmaWxsPSJub25lIiBpZD0ibmdpbngyLXRvLXRvbWNhdDMiIHN0eWxlPSJzdHJva2U6IzE4MTgxODtzdHJva2Utd2lkdGg6MS4wOyIvPjxwb2x5Z29uIGZpbGw9IiMxODE4MTgiIHBvaW50cz0iMjU4LjM4LDUzNi43NjQ0LDI2MS4yNDYxLDUyNy4zNDE4LDI1Ny43NjY4LDUzMS44MDIxLDI1My4zMDY1LDUyOC4zMjI4LDI1OC4zOCw1MzYuNzY0NCIgc3R5bGU9InN0cm9rZTojMTgxODE4O3N0cm9rZS13aWR0aDoxLjA7Ii8+PC9nPjwhLS1NRDU9W2MxMjI3ZGZjMWEyMWNiZGQ4YmViZmVmNTQ2ODc2M2ZmXQpsaW5rIG5naW54MiB0byB0b21jYXQ0LS0+PGcgaWQ9ImxpbmtfbmdpbngyX3RvbWNhdDQiPjxwYXRoIGNvZGVMaW5lPSIxNDkiIGQ9Ik0yODEuODUsNDMzLjU1NDQgQzI4NC42Myw0NDUuMDU0NCAyODkuNTUsNDU2LjI1NDQgMjk4LDQ2NC40ODQ0IEMzMTEuNjEsNDc3Ljc1NDQgMzIzLjc4LDQ2Mi41NzQ0IDM0MCw0NzIuNDg0NCBDMzYzLjYsNDg2LjkwNDQgMzgyLjY5LDUxMS41MDQ0IDM5NS44NCw1MzIuMzg0NCAiIGZpbGw9Im5vbmUiIGlkPSJuZ2lueDItdG8tdG9tY2F0NCIgc3R5bGU9InN0cm9rZTojMTgxODE4O3N0cm9rZS13aWR0aDoxLjA7Ii8+PHBvbHlnb24gZmlsbD0iIzE4MTgxOCIgcG9pbnRzPSIzOTguNTUsNTM2Ljc3NDQsMzk3LjIxMDUsNTI3LjAxNywzOTUuOTE2Nyw1MzIuNTI0LDM5MC40MDk4LDUzMS4yMzAyLDM5OC41NSw1MzYuNzc0NCIgc3R5bGU9InN0cm9rZTojMTgxODE4O3N0cm9rZS13aWR0aDoxLjA7Ii8+PC9nPjwhLS1NRDU9WzYyMDJlYjY3OTA4YjVjYjgyZTg4NDM3MjkwODkzMzg1XQpsaW5rIG5naW54MSB0byB0b21jYXQ1LS0+PGcgaWQ9ImxpbmtfbmdpbngxX3RvbWNhdDUiPjxwYXRoIGNvZGVMaW5lPSIxNTEiIGQ9Ik0zNzYuMyw0MjMuMjg0NCBDMzY5LjYzLDQyNy4wNzQ0IDM2Mi43OSw0MzAuNTY0NCAzNTYsNDMzLjQ4NDQgQzMwMC4yMyw0NTcuNDM0NCAyODIuMTQsNDUwLjgzNDQgMjIzLDQ2NC40ODQ0IEMyMDcuNDUsNDY4LjA3NDQgMjAxLjc0LDQ2NC4zNzQ0IDE4OCw0NzIuNDg0NCBDMTY1Ljg0LDQ4NS41NzQ0IDE0Ni4yNCw1MDYuMTk0NCAxMzEuMjgsNTI1LjExNDQgIiBmaWxsPSJub25lIiBpZD0ibmdpbngxLXRvLXRvbWNhdDUiIHN0eWxlPSJzdHJva2U6IzE4MTgxODtzdHJva2Utd2lkdGg6MS4wOyIvPjxwb2x5Z29uIGZpbGw9IiMxODE4MTgiIHBvaW50cz0iMTI3Ljk3LDUyOS4zNzQ0LDEzNi42NTY0LDUyNC43MzI1LDEzMS4wNDI3LDUyNS40Mjk5LDEzMC4zNDUyLDUxOS44MTYyLDEyNy45Nyw1MjkuMzc0NCIgc3R5bGU9InN0cm9rZTojMTgxODE4O3N0cm9rZS13aWR0aDoxLjA7Ii8+PC9nPjwhLS1NRDU9WzQ5YmUxOGQ0ZThmY2UzYTY0YzFmMDNkYzM3MzA5MmE5XQpsaW5rIG5naW54MiB0byB0b21jYXQ1LS0+PGcgaWQ9ImxpbmtfbmdpbngyX3RvbWNhdDUiPjxwYXRoIGNvZGVMaW5lPSIxNTMiIGQ9Ik0yMjUuOTIsNDMzLjg2NDQgQzIxMy4zMiw0NDYuMzY0NCAyMDAuMDcsNDU5Ljc3NDQgMTg4LDQ3Mi40ODQ0IEMxNzEuODgsNDg5LjQ1NDQgMTU0LjYyLDUwOC41OTQ0IDEzOS43NSw1MjUuMzg0NCAiIGZpbGw9Im5vbmUiIGlkPSJuZ2lueDItdG8tdG9tY2F0NSIgc3R5bGU9InN0cm9rZTojMTgxODE4O3N0cm9rZS13aWR0aDoxLjA7Ii8+PHBvbHlnb24gZmlsbD0iIzE4MTgxOCIgcG9pbnRzPSIxMzYuNDIsNTI5LjE1NDQsMTQ1LjM3MzQsNTI1LjA1MTIsMTM5LjcyNzYsNTI1LjQwNDgsMTM5LjM3NDEsNTE5Ljc1OSwxMzYuNDIsNTI5LjE1NDQiIHN0eWxlPSJzdHJva2U6IzE4MTgxODtzdHJva2Utd2lkdGg6MS4wOyIvPjwvZz48IS0tTUQ1PVthMjU3OTc3YzBmZTE2MTM1ZDY3NzI3YjA3YjY3OWVkZF0KbGluayB0b21jYXQxIHRvIG9yYWNsZTEtLT48ZyBpZD0ibGlua190b21jYXQxX29yYWNsZTEiPjxwYXRoIGNvZGVMaW5lPSIxNTciIGQ9Ik01NjcuMTMsNjA1LjEzNDQgQzU2Ni4wMyw2NDYuNzk0NCA1NjQuMTUsNzE4LjEyNDQgNTYzLDc2MS45NTQ0ICIgZmlsbD0ibm9uZSIgaWQ9InRvbWNhdDEtdG8tb3JhY2xlMSIgc3R5bGU9InN0cm9rZTojRkYwMDAwO3N0cm9rZS13aWR0aDoxLjA7Ii8+PHBvbHlnb24gZmlsbD0iI0ZGMDAwMCIgcG9pbnRzPSI1NjIuODYsNzY3LjE2NDQsNTY3LjA5MDcsNzU4LjI3MDUsNTYyLjk4ODksNzYyLjE2Niw1NTkuMDkzMyw3NTguMDY0Miw1NjIuODYsNzY3LjE2NDQiIHN0eWxlPSJzdHJva2U6I0ZGMDAwMDtzdHJva2Utd2lkdGg6MS4wOyIvPjwvZz48IS0tTUQ1PVswYjgzZjNiYTk5ZWYwMDFkNzQzZmY3YjlkNmNiYTEzMV0KbGluayB0b21jYXQyIHRvIG9yYWNsZTEtLT48ZyBpZD0ibGlua190b21jYXQyX29yYWNsZTEiPjxwYXRoIGNvZGVMaW5lPSIxNTkiIGQ9Ik02ODkuOTgsNjA1LjIxNDQgQzY2OS42NCw2MjguNTE0NCA2NDIuNzgsNjYwLjg0NDQgNjIyLDY5MS40ODQ0IEM2MDYuNTUsNzE0LjI2NDQgNTkxLjU2LDc0MS4zNzQ0IDU4MC40Myw3NjIuNzg0NCAiIGZpbGw9Im5vbmUiIGlkPSJ0b21jYXQyLXRvLW9yYWNsZTEiIHN0eWxlPSJzdHJva2U6IzE4MTgxODtzdHJva2Utd2lkdGg6MS4wOyIvPjxwb2x5Z29uIGZpbGw9IiMxODE4MTgiIHBvaW50cz0iNTc4LjExLDc2Ny4yNjQ0LDU4NS43ODQyLDc2MS4wOTEzLDU4MC4zOTc0LDc2Mi44MTgzLDU3OC42NzA0LDc1Ny40MzE1LDU3OC4xMSw3NjcuMjY0NCIgc3R5bGU9InN0cm9rZTojMTgxODE4O3N0cm9rZS13aWR0aDoxLjA7Ii8+PC9nPjwhLS1NRDU9WzlkNjBlOTZiNTQ3MWJkMDY0MTU0ZDE3MjQ4ZmMxMjBmXQpsaW5rIHRvbWNhdDMgdG8gb3JhY2xlMS0tPjxnIGlkPSJsaW5rX3RvbWNhdDNfb3JhY2xlMSI+PHBhdGggY29kZUxpbmU9IjE2MSIgZD0iTTI4OC4wOSw2MDUuMjM0NCBDMzAxLjYyLDYyMS42ODQ0IDMxOS44Myw2NDAuNTI0NCAzNDAsNjUyLjQ4NDQgQzM5OC44OSw2ODcuMzg0NCA0MzMuMTgsNjUxLjg2NDQgNDg5LDY5MS40ODQ0IEM1MTQuMjUsNzA5LjQxNDQgNTMzLjMyLDczOS4wMzQ0IDU0NS42Miw3NjIuODA0NCAiIGZpbGw9Im5vbmUiIGlkPSJ0b21jYXQzLXRvLW9yYWNsZTEiIHN0eWxlPSJzdHJva2U6IzE4MTgxODtzdHJva2Utd2lkdGg6MS4wOyIvPjxwb2x5Z29uIGZpbGw9IiMxODE4MTgiIHBvaW50cz0iNTQ4LDc2Ny40NzQ0LDU0Ny40Nzc0LDc1Ny42Mzk0LDU0NS43Mjk3LDc2My4wMTk1LDU0MC4zNDk2LDc2MS4yNzE4LDU0OCw3NjcuNDc0NCIgc3R5bGU9InN0cm9rZTojMTgxODE4O3N0cm9rZS13aWR0aDoxLjA7Ii8+PC9nPjwhLS1NRDU9WzQxNmMzNjAzNzY5N2E4YzVhM2NmMGRiMDM1Njk1YWQxXQpsaW5rIHRvbWNhdDQgdG8gb3JhY2xlMS0tPjxnIGlkPSJsaW5rX3RvbWNhdDRfb3JhY2xlMSI+PHBhdGggY29kZUxpbmU9IjE2MyIgZD0iTTQzNy4yMyw2MDUuMTM0NCBDNDY0LjA3LDY0Ny4wNDQ0IDUxMC4xNCw3MTguOTk0NCA1MzguMTYsNzYyLjc1NDQgIiBmaWxsPSJub25lIiBpZD0idG9tY2F0NC10by1vcmFjbGUxIiBzdHlsZT0ic3Ryb2tlOiMxODE4MTg7c3Ryb2tlLXdpZHRoOjEuMDsiLz48cG9seWdvbiBmaWxsPSIjMTgxODE4IiBwb2ludHM9IjU0MC45OCw3NjcuMTY0NCw1MzkuNDkyOSw3NTcuNDI4NCw1MzguMjgyNyw3NjIuOTU0Myw1MzIuNzU2OCw3NjEuNzQ0MSw1NDAuOTgsNzY3LjE2NDQiIHN0eWxlPSJzdHJva2U6IzE4MTgxODtzdHJva2Utd2lkdGg6MS4wOyIvPjwvZz48IS0tTUQ1PVs4OGVlNTllOGUzYzIxYzA4NzNkZWI1ZDNkMzQyOWU4N10KbGluayB0b21jYXQzIHRvIG15c3FsMS0tPjxnIGlkPSJsaW5rX3RvbWNhdDNfbXlzcWwxIj48cGF0aCBjb2RlTGluZT0iMTY1IiBkPSJNMjgxLjMyLDYwNS4yOTQ0IEMyOTAuNTMsNjIyLjM5NDQgMzAyLjM0LDY0My4zNzQ0IDMxNCw2NjEuNDg0NCBDMzM2Ljk2LDY5Ny4xNDQ0IDM2NS44NCw3MzUuODU0NCAzODcsNzYzLjI2NDQgIiBmaWxsPSJub25lIiBpZD0idG9tY2F0My10by1teXNxbDEiIHN0eWxlPSJzdHJva2U6IzE4MTgxODtzdHJva2Utd2lkdGg6MS4wOyIvPjxwb2x5Z29uIGZpbGw9IiMxODE4MTgiIHBvaW50cz0iMzkwLjA2LDc2Ny4yMjQ0LDM4Ny43MjMxLDc1Ny42NTY4LDM4Ny4wMDMyLDc2My4yNjc2LDM4MS4zOTIzLDc2Mi41NDc3LDM5MC4wNiw3NjcuMjI0NCIgc3R5bGU9InN0cm9rZTojMTgxODE4O3N0cm9rZS13aWR0aDoxLjA7Ii8+PC9nPjwhLS1NRDU9W2FmMjhhZWQwMzZlOTYyMjA5MTliZjI3ZWRmMWNhNzg2XQpsaW5rIHRvbWNhdDQgdG8gbXlzcWwxLS0+PGcgaWQ9ImxpbmtfdG9tY2F0NF9teXNxbDEiPjxwYXRoIGNvZGVMaW5lPSIxNjciIGQ9Ik00MTYsNjA1LjEzNDQgQzQxNiw2NDYuNzk0NCA0MTYsNzE4LjEyNDQgNDE2LDc2MS45NTQ0ICIgZmlsbD0ibm9uZSIgaWQ9InRvbWNhdDQtdG8tbXlzcWwxIiBzdHlsZT0ic3Ryb2tlOiMxODE4MTg7c3Ryb2tlLXdpZHRoOjEuMDsiLz48cG9seWdvbiBmaWxsPSIjMTgxODE4IiBwb2ludHM9IjQxNiw3NjcuMTY0NCw0MjAsNzU4LjE2NDQsNDE2LDc2Mi4xNjQ0LDQxMiw3NTguMTY0NCw0MTYsNzY3LjE2NDQiIHN0eWxlPSJzdHJva2U6IzE4MTgxODtzdHJva2Utd2lkdGg6MS4wOyIvPjwvZz48IS0tTUQ1PVs2YzllMWJlY2ZkZDM0NjIxYmM4OGRjOTJjZGI0YmNmOV0KbGluayB0b21jYXQ1IHRvIG9yYWNsZTEtLT48ZyBpZD0ibGlua190b21jYXQ1X29yYWNsZTEiPjxwYXRoIGNvZGVMaW5lPSIxNjkiIGQ9Ik0xMzQuODQsNjEyLjU2NDQgQzE0OS41OSw2MjcuNTU0NCAxNjguMDYsNjQzLjE1NDQgMTg4LDY1Mi40ODQ0IEMzMTAuMTgsNzA5LjY2NDQgMzc0LjI2LDYyMC41NTQ0IDQ4OSw2OTEuNDg0NCBDNTE1LjYxLDcwNy45MzQ0IDUzNC43Myw3MzguMTE0NCA1NDYuNzEsNzYyLjQ4NDQgIiBmaWxsPSJub25lIiBpZD0idG9tY2F0NS10by1vcmFjbGUxIiBzdHlsZT0ic3Ryb2tlOiMxODE4MTg7c3Ryb2tlLXdpZHRoOjEuMDsiLz48cG9seWdvbiBmaWxsPSIjMTgxODE4IiBwb2ludHM9IjU0OS4wMSw3NjcuMjY0NCw1NDguNzEzNCw3NTcuNDIsNTQ2Ljg0MjYsNzYyLjc1ODUsNTQxLjUwNDEsNzYwLjg4NzgsNTQ5LjAxLDc2Ny4yNjQ0IiBzdHlsZT0ic3Ryb2tlOiMxODE4MTg7c3Ryb2tlLXdpZHRoOjEuMDsiLz48L2c+PCEtLU1ENT1bODJjOGJkNjA5MzQwNWMyZTM1Mzg1NmJmODNiNzBjNGRdCmxpbmsgb3JhY2xlMSB0byBvcmFjbGUyLS0+PGcgaWQ9Imxpbmtfb3JhY2xlMV9vcmFjbGUyIj48cGF0aCBjb2RlTGluZT0iMTcyIiBkPSJNNTYyLDgzNC43OTQ0IEM1NjIsODczLjgzNDQgNTYyLDkzOC45MTQ0IDU2Miw5ODAuMDc0NCAiIGZpbGw9Im5vbmUiIGlkPSJvcmFjbGUxLXRvLW9yYWNsZTIiIHN0eWxlPSJzdHJva2U6IzE4MTgxODtzdHJva2Utd2lkdGg6MS4wOyIvPjxwb2x5Z29uIGZpbGw9IiMxODE4MTgiIHBvaW50cz0iNTYyLDk4NS4yMjQ0LDU2Niw5NzYuMjI0NCw1NjIsOTgwLjIyNDQsNTU4LDk3Ni4yMjQ0LDU2Miw5ODUuMjI0NCIgc3R5bGU9InN0cm9rZTojMTgxODE4O3N0cm9rZS13aWR0aDoxLjA7Ii8+PHRleHQgZmlsbD0iIzAwMDAwMCIgZm9udC1mYW1pbHk9InNhbnMtc2VyaWYiIGZvbnQtc2l6ZT0iMTMiIGxlbmd0aEFkanVzdD0ic3BhY2luZyIgdGV4dExlbmd0aD0iNTIiIHg9IjU2MyIgeT0iOTUzLjc3MzQiPuWunuaXtuWQjOatpTwvdGV4dD48L2c+PCEtLU1ENT1bNDU0ZDNkOTM2NGJlMTk5MjczYmI3MTcxYWM3MTkzZjBdCmxpbmsgaXQgdG8g5pyN5YqhLS0+PGcgaWQ9ImxpbmtfaXRf5pyN5YqhIj48cGF0aCBjb2RlTGluZT0iMTc1IiBkPSJNNzY3LjA3LDI1Mi42MjQ0IEM3NzAuNjQsMjc0LjM2NDQgNzc1LjE4LDMwMi40ODQ0IDc3OSwzMjcuNDg0NCBDNzg3LjEsMzgwLjQ2NDQgNzk1LjcwNSw0NDAuMDM2OSA4MDIuMzU2Miw0ODYuODc4MSBDODAyLjQwODIsNDg3LjI0NDEgODAyLjQ2MDEsNDg3LjYwOTIgODAyLjUxMTgsNDg3Ljk3MzYgIiBmaWxsPSJub25lIiBpZD0iaXQtdG8t5pyN5YqhIiBzdHlsZT0ic3Ryb2tlOiNGRkZGMDA7c3Ryb2tlLXdpZHRoOjEuMDsiLz48cG9seWdvbiBmaWxsPSIjRkZGRjAwIiBwb2ludHM9IjgwMi41MTE4LDQ4Ny45NzM2LDgwNS4yMDcyLDQ3OC41MDA4LDgwMS44MDkxLDQ4My4wMjMzLDc5Ny4yODY2LDQ3OS42MjUxLDgwMi41MTE4LDQ4Ny45NzM2IiBzdHlsZT0ic3Ryb2tlOiNGRkZGMDA7c3Ryb2tlLXdpZHRoOjEuMDsiLz48L2c+PCEtLU1ENT1bZmQ5ZmFkNTA2YTMxMzgxMmVkNWRjMmJiOWYwZDNjNjJdCmxpbmsgaXQgdG8gbmdpbngxLS0+PGcgaWQ9ImxpbmtfaXRfbmdpbngxIj48cGF0aCBjb2RlTGluZT0iMTc3IiBkPSJNNzQ2LjgyLDIyMS4zMzQ0IEM3MDguMTQsMjM2LjEzNDQgNTk3LjksMjc5LjcyNDQgNTEyLDMyNy40ODQ0IEM1MDcuMzYsMzMwLjA2NDQgNTAyLjY0LDMzMi44NDQ0IDQ5Ny45MywzMzUuNzI0NCAiIGZpbGw9Im5vbmUiIGlkPSJpdC10by1uZ2lueDEiIHN0eWxlPSJzdHJva2U6I0ZGRkYwMDtzdHJva2Utd2lkdGg6MS4wOyIvPjxwb2x5Z29uIGZpbGw9IiNGRkZGMDAiIHBvaW50cz0iNDkzLjYyLDMzOC4zOTQ0LDUwMy4zNzczLDMzNy4wNTQ5LDQ5Ny44NzA0LDMzNS43NjExLDQ5OS4xNjQxLDMzMC4yNTQyLDQ5My42MiwzMzguMzk0NCIgc3R5bGU9InN0cm9rZTojRkZGRjAwO3N0cm9rZS13aWR0aDoxLjA7Ii8+PC9nPjwhLS1NRDU9WzM5OGY5OWE1ZTc2YjIxNDUyY2MyMjMxMGQwMDBmYmVhXQpsaW5rIGl0IHRvIG5naW54Mi0tPjxnIGlkPSJsaW5rX2l0X25naW54MiI+PHBhdGggY29kZUxpbmU9IjE3OCIgZD0iTTc0Ni45MiwyMTguMjQ0NCBDNjk0LjA3LDIyNy4wODQ0IDUwMy4wOSwyNjIuMDM0NCAzNTksMzI3LjQ4NDQgQzM1My43NCwzMjkuODc0NCAzNDguNDQsMzMyLjU4NDQgMzQzLjIxLDMzNS40ODQ0ICIgZmlsbD0ibm9uZSIgaWQ9Iml0LXRvLW5naW54MiIgc3R5bGU9InN0cm9rZTojRkZGRjAwO3N0cm9rZS13aWR0aDoxLjA7Ii8+PHBvbHlnb24gZmlsbD0iI0ZGRkYwMCIgcG9pbnRzPSIzMzguODIsMzM3Ljk2NDQsMzQ4LjYyMDUsMzM2Ljk4OTUsMzQzLjE2NTYsMzM1LjQ5MTQsMzQ0LjY2MzcsMzMwLjAzNjUsMzM4LjgyLDMzNy45NjQ0IiBzdHlsZT0ic3Ryb2tlOiNGRkZGMDA7c3Ryb2tlLXdpZHRoOjEuMDsiLz48L2c+PCEtLU1ENT1bOTdkZTM0ZjI3N2IzMTI1ZGM4ZWM0ZWM4OTU3ZjIzYmNdCmxpbmsgaXQgdG8gZGItLT48ZyBpZD0ibGlua19pdF9kYiI+PHBhdGggY29kZUxpbmU9IjE4MCIgZD0iTTc3NS4wMywyMzcuNDc0NCBDNzgyLjg3LDI1MC4xODQ0IDc5Mi4zNywyNjYuODA0NCA3OTksMjgyLjQ4NDQgQzgwNy4xMSwzMDEuNjU0NCA4MDcuODIsMzA3LjA5NDQgODEyLDMyNy40ODQ0IEM4NDEuMDgsNDY5LjE5NDQgOTE0LjI4LDUzNC45MDQ0IDgzMCw2NTIuNDg0NCBDNzk4LjU2LDY5Ni4zNDQ0IDc1Ni42NSw2NTcuMTU0NCA3MTUsNjkxLjQ4NDQgQzY5My45MDUsNzA4Ljg2OTQgNjc4LjU1NSw3MzUuNDI0NCA2NjguNDA1LDc1Ny45MTE5IEM2NjUuODY3NSw3NjMuNTMzOCA2NjMuNjU1LDc2OC45MDE0IDY2MS43NTksNzczLjgwOCBDNjYxLjUyMiw3NzQuNDIxMyA2NjEuMjg5OSw3NzUuMDI3NSA2NjEuMDYyOCw3NzUuNjI2ICIgZmlsbD0ibm9uZSIgaWQ9Iml0LXRvLWRiIiBzdHlsZT0ic3Ryb2tlOiNGRkZGMDA7c3Ryb2tlLXdpZHRoOjEuMDsiLz48cG9seWdvbiBmaWxsPSIjRkZGRjAwIiBwb2ludHM9IjY2MS4wNjI4LDc3NS42MjYsNjY3Ljk5NTgsNzY4LjYzMDcsNjYyLjgzNjgsNzcwLjk1MTMsNjYwLjUxNjIsNzY1Ljc5MjMsNjYxLjA2MjgsNzc1LjYyNiIgc3R5bGU9InN0cm9rZTojRkZGRjAwO3N0cm9rZS13aWR0aDoxLjA7Ii8+PC9nPjwhLS1NRDU9WzI2YmM1MWI5OThmYTVhNTA4ZmNkZjc0YzUwZDdmZGI1XQpAc3RhcnR1bWwNCnRpdGxlIOi0ouS6uuaxh+ezu+eJqeeQhuWbvg0KDQphY3RvciB1c2Vyc1sNCiAgICDkupLogZTnvZHnlKjmiLcNCl0NCm5vdGUgcmlnaHQ6IOS7juS6kuiBlOe9keadpeeahOeUqOaItw0KYWN0b3Igb3BbDQogICAg5p+c5ZGYDQpdDQoNCmFjdG9yIGl0Ww0KICAgIOi/kOe7tA0KXQ0KDQpub2RlIG5naW54MVsNCiAgICBOZ2lueA0KICAgIC0gLSAtIC0NCiAgICAxMC4xNjkuMTcuMQ0KICAgIC0gLSAtIC0NCiAgICA4MA0KICAgIDQ0Mw0KXQ0KDQpub2RlIG5naW54MlsNCiAgICBOZ2lueA0KICAgIC0gLSAtIC0NCiAgICAxMC4xNjkuMTcuMg0KICAgIC0gLSAtIC0NCiAgICA4MA0KICAgIDQ0Mw0KXQ0KDQpyZWN0YW5nbGUg5pyN5Yqhew0KDQogICAgbm9kZSB0b21jYXQxWw0KICAgICAgICB0b21jYXQNCiAgICAgICAgLSAtIC0gLQ0KICAgICAgICAxMC4xNjkuMTUuMw0KICAgIF0NCg0KICAgIG5vZGUgdG9tY2F0MlsNCiAgICAgICAgdG9tY2F0DQogICAgICAgIC0gLSAtIC0NCiAgICAgICAgMTAuMTY5LjE1LjQNCiAgICBdDQoNCiAgICBub2RlIHRvbWNhdDNbDQogICAgICAgIHRvbWNhdA0KICAgICAgICAtIC0gLSAtDQogICAgICAgIDEwLjE2OS4xNS41DQogICAgXQ0KDQoNCiAgICBub2RlIHRvbWNhdDRbDQogICAgICAgIHRvbWNhdA0KICAgICAgICAtIC0gLSAtDQogICAgICAgIDEwLjE2OS4xNS42DQogICAgXQ0KDQogICAgbm9kZSB0b21jYXQ1Ww0KICAgICAgICBBbnlDaGF0LXRvbWNhdA0KICAgICAgICAtIC0gLSAtDQogICAgICAgIDEwLjE2OS40Mi43MQ0KICAgICAgICAxMC4xNjkuNDIuNzANCiAgICBdDQogICAgDQp9DQpub3RlIGJvdHRvbSBvZiDmnI3liqEgI2dyZWVuDQp0b21jYXTnmoTmnI3liqHpnIDopoHnmoTnq6/lj6MNCiMgODAzMA0KIyA4MDMxDQojIDgwMzINCiMgODAzMw0KIyA4MDM0DQojIDgwMzUNCiMgODAzNg0KIyA4MDM4DQojIDgwMzkNCiMgODA0NQ0KIyA4MDYwDQojIDgwNjENCiMgODg4MA0KIyA4ODgxDQplbmQgbm90ZSANCg0Kbm90ZSB0b3Agb2Yg5pyN5YqhICNncmVlbg0Kem9va2VlcGVyXGR1YmJvXHJlZGlz6ZyA6KaB55qE56uv5Y+jDQoyMTgxDQo2Mzc5DQoyNjM3OQ0KNjE2MTYNCmVuZCBub3RlDQoNCnJlY3RhbmdsZSBkYnsNCiAgICBkYXRhYmFzZSBvcmFjbGUxWw0KICAgICAgICBvcmFjbGXkuLsNCiAgICAgICAgLSAtIC0gLQ0KICAgICAgICAxMC4xNjkuMTUuMTAwDQogICAgXQ0KICAgIGRhdGFiYXNlIG9yYWNsZTJbDQogICAgICAgIG9yYWNsZeS7jg0KICAgICAgICAtIC0gLSAtDQogICAgICAgIDEwLjE2OS4xNS4xMDENCiAgICBdDQoNCiAgICBkYXRhYmFzZSBteXNxbDFbDQogICAgICAgIG15c3Fs5Li7DQogICAgICAgIC0gLSAtIC0NCiAgICAgICAgMTAuMTY5LjE1LjEwMg0KICAgIF0NCn0NCm5vdGUgdG9wIG9mIGRiICNncmVlbg0KDQoxNTIxLzMzMDYNCg0KZW5kIG5vdGUNCg0Kbm9kZSBGNURldmljZVsNCiAgICBGNei0n+i9veWdh+ihoQ0KXQ0KDQonIOi/m+WFpUY1DQp1c2VycyA9PT4gRjVEZXZpY2UNCm9wID09PiBuZ2lueDENCm9wID09PiBuZ2lueDIgOiDnm67liY3orr/pl64NCm9wID09PiB0b21jYXQ1DQoNCicgRjVEZXZpY2UNCkY1RGV2aWNlIC0gLT4gbmdpbngxDQoNCkY1RGV2aWNlID09PiBuZ2lueDINCg0KDQonIE5naW54DQpuZ2lueDEgPT0+IHRvbWNhdDENCg0KbmdpbngxID09PiB0b21jYXQyDQoNCm5naW54MSA9PT4gdG9tY2F0Mw0KDQpuZ2lueDEgPT0+IHRvbWNhdDQNCg0KbmdpbngyID09PiB0b21jYXQxDQoNCm5naW54MiA9PT4gdG9tY2F0Mg0KDQpuZ2lueDIgPT0+IHRvbWNhdDMNCg0KbmdpbngyID09PiB0b21jYXQ0DQoNCm5naW54MSA9PT4gdG9tY2F0NQ0KDQpuZ2lueDIgPT0+IHRvbWNhdDUNCg0KJyBUb21jYXQNCg0KdG9tY2F0MSA9WyNyZWRdPT4gb3JhY2xlMQ0KDQp0b21jYXQyID09PiBvcmFjbGUxDQoNCnRvbWNhdDMgPT0+IG9yYWNsZTENCg0KdG9tY2F0NCA9PT4gb3JhY2xlMQ0KDQp0b21jYXQzID09PiBteXNxbDENCg0KdG9tY2F0NCA9PT4gbXlzcWwxDQoNCnRvbWNhdDUgPT0+IG9yYWNsZTENCg0KJyBPcmFjbGUNCm9yYWNsZTEgPT0+IG9yYWNsZTIgOiDlrp7ml7blkIzmraUNCg0KDQppdCA9WyN5ZWxsb3ddPT4g5pyN5YqhDQoNCml0ID1bI3llbGxvd109PiBuZ2lueDENCml0ID1bI3llbGxvd109PiBuZ2lueDINCg0KaXQgPVsjeWVsbG93XT0+IGRiDQpAZW5kdW1sDQoKQHN0YXJ0dW1sDQp0aXRsZSDotKLkurrmsYfns7vniannkIblm74NCg0KYWN0b3IgdXNlcnNbDQogICAg5LqS6IGU572R55So5oi3DQpdDQpub3RlIHJpZ2h0OiDku47kupLogZTnvZHmnaXnmoTnlKjmiLcNCmFjdG9yIG9wWw0KICAgIOafnOWRmA0KXQ0KDQphY3RvciBpdFsNCiAgICDov5Dnu7QNCl0NCg0Kbm9kZSBuZ2lueDFbDQogICAgTmdpbngNCiAgICAtIC0gLSAtDQogICAgMTAuMTY5LjE3LjENCiAgICAtIC0gLSAtDQogICAgODANCiAgICA0NDMNCl0NCg0Kbm9kZSBuZ2lueDJbDQogICAgTmdpbngNCiAgICAtIC0gLSAtDQogICAgMTAuMTY5LjE3LjINCiAgICAtIC0gLSAtDQogICAgODANCiAgICA0NDMNCl0NCg0KcmVjdGFuZ2xlIOacjeWKoXsNCg0KICAgIG5vZGUgdG9tY2F0MVsNCiAgICAgICAgdG9tY2F0DQogICAgICAgIC0gLSAtIC0NCiAgICAgICAgMTAuMTY5LjE1LjMNCiAgICBdDQoNCiAgICBub2RlIHRvbWNhdDJbDQogICAgICAgIHRvbWNhdA0KICAgICAgICAtIC0gLSAtDQogICAgICAgIDEwLjE2OS4xNS40DQogICAgXQ0KDQogICAgbm9kZSB0b21jYXQzWw0KICAgICAgICB0b21jYXQNCiAgICAgICAgLSAtIC0gLQ0KICAgICAgICAxMC4xNjkuMTUuNQ0KICAgIF0NCg0KDQogICAgbm9kZSB0b21jYXQ0Ww0KICAgICAgICB0b21jYXQNCiAgICAgICAgLSAtIC0gLQ0KICAgICAgICAxMC4xNjkuMTUuNg0KICAgIF0NCg0KICAgIG5vZGUgdG9tY2F0NVsNCiAgICAgICAgQW55Q2hhdC10b21jYXQNCiAgICAgICAgLSAtIC0gLQ0KICAgICAgICAxMC4xNjkuNDIuNzENCiAgICAgICAgMTAuMTY5LjQyLjcwDQogICAgXQ0KICAgIA0KfQ0Kbm90ZSBib3R0b20gb2Yg5pyN5YqhICNncmVlbg0KdG9tY2F055qE5pyN5Yqh6ZyA6KaB55qE56uv5Y+jDQojIDgwMzANCiMgODAzMQ0KIyA4MDMyDQojIDgwMzMNCiMgODAzNA0KIyA4MDM1DQojIDgwMzYNCiMgODAzOA0KIyA4MDM5DQojIDgwNDUNCiMgODA2MA0KIyA4MDYxDQojIDg4ODANCiMgODg4MQ0KZW5kIG5vdGUgDQoNCm5vdGUgdG9wIG9mIOacjeWKoSAjZ3JlZW4NCnpvb2tlZXBlclxkdWJib1xyZWRpc+mcgOimgeeahOerr+WPow0KMjE4MQ0KNjM3OQ0KMjYzNzkNCjYxNjE2DQplbmQgbm90ZQ0KDQpyZWN0YW5nbGUgZGJ7DQogICAgZGF0YWJhc2Ugb3JhY2xlMVsNCiAgICAgICAgb3JhY2xl5Li7DQogICAgICAgIC0gLSAtIC0NCiAgICAgICAgMTAuMTY5LjE1LjEwMA0KICAgIF0NCiAgICBkYXRhYmFzZSBvcmFjbGUyWw0KICAgICAgICBvcmFjbGXku44NCiAgICAgICAgLSAtIC0gLQ0KICAgICAgICAxMC4xNjkuMTUuMTAxDQogICAgXQ0KDQogICAgZGF0YWJhc2UgbXlzcWwxWw0KICAgICAgICBteXNxbOS4uw0KICAgICAgICAtIC0gLSAtDQogICAgICAgIDEwLjE2OS4xNS4xMDINCiAgICBdDQp9DQpub3RlIHRvcCBvZiBkYiAjZ3JlZW4NCg0KMTUyMS8zMzA2DQoNCmVuZCBub3RlDQoNCm5vZGUgRjVEZXZpY2VbDQogICAgRjXotJ/ovb3lnYfooaENCl0NCg0KdXNlcnMgPT0+IEY1RGV2aWNlDQpvcCA9PT4gbmdpbngxDQpvcCA9PT4gbmdpbngyIDog55uu5YmN6K6/6ZeuDQpvcCA9PT4gdG9tY2F0NQ0KDQpGNURldmljZSAtIC0+IG5naW54MQ0KDQpGNURldmljZSA9PT4gbmdpbngyDQoNCg0KbmdpbngxID09PiB0b21jYXQxDQoNCm5naW54MSA9PT4gdG9tY2F0Mg0KDQpuZ2lueDEgPT0+IHRvbWNhdDMNCg0KbmdpbngxID09PiB0b21jYXQ0DQoNCm5naW54MiA9PT4gdG9tY2F0MQ0KDQpuZ2lueDIgPT0+IHRvbWNhdDINCg0KbmdpbngyID09PiB0b21jYXQzDQoNCm5naW54MiA9PT4gdG9tY2F0NA0KDQpuZ2lueDEgPT0+IHRvbWNhdDUNCg0KbmdpbngyID09PiB0b21jYXQ1DQoNCg0KdG9tY2F0MSA9WyNyZWRdPT4gb3JhY2xlMQ0KDQp0b21jYXQyID09PiBvcmFjbGUxDQoNCnRvbWNhdDMgPT0+IG9yYWNsZTENCg0KdG9tY2F0NCA9PT4gb3JhY2xlMQ0KDQp0b21jYXQzID09PiBteXNxbDENCg0KdG9tY2F0NCA9PT4gbXlzcWwxDQoNCnRvbWNhdDUgPT0+IG9yYWNsZTENCg0Kb3JhY2xlMSA9PT4gb3JhY2xlMiA6IOWunuaXtuWQjOatpQ0KDQoNCml0ID1bI3llbGxvd109PiDmnI3liqENCg0KaXQgPVsjeWVsbG93XT0+IG5naW54MQ0KaXQgPVsjeWVsbG93XT0+IG5naW54Mg0KDQppdCA9WyN5ZWxsb3ddPT4gZGINCkBlbmR1bWwNCgpQbGFudFVNTCB2ZXJzaW9uIDEuMjAyMi42KFR1ZSBKdW4gMjEgMTc6MzQ6NDkgR01UIDIwMjIpCkphdmEgUnVudGltZTogT3BlbkpESyBSdW50aW1lIEVudmlyb25tZW50CkpWTTogT3BlbkpESyA2NC1CaXQgU2VydmVyIFZNCkRlZmF1bHQgRW5jb2Rpbmc6IFVURi04Ckxhbmd1YWdlOiBlbgpDb3VudHJ5OiBVUwotLT48L2c+PC9zdmc+;fontColor=default;imageBackground=none;imageBorder=none;sketch=0;labelBorderColor=none;labelBackgroundColor=none;" parent="1" vertex="1">
            <mxGeometry x="30" y="20" width="1029" height="1082" as="geometry" />
          </mxCell>
        </UserObject>
      </root>
    </mxGraphModel>
  </diagram>
  <diagram id="flFPsX5GT0Mt4jsx-hf5" name="第 4 页">
    <mxGraphModel dx="1422" dy="794" grid="1" gridSize="10" guides="1" tooltips="1" connect="1" arrows="1" fold="1" page="1" pageScale="1" pageWidth="827" pageHeight="1169" math="0" shadow="0">
      <root>
        <mxCell id="0" />
        <mxCell id="1" parent="0" />
      </root>
    </mxGraphModel>
  </diagram>
</mxfile>
